<?xml version="1.0" standalone="no"?>
<!DOCTYPE svg PUBLIC "-//W3C//DTD SVG 1.1//EN" "http://www.w3.org/Graphics/SVG/1.1/DTD/svg11.dtd" >
<svg>
<metadata>
Created by FontForge 20090914 at Thu Nov 16 15:20:18 2017
 By www-data
Copyright 2011 Google Inc. All Rights Reserved.
</metadata>
<defs>
<font id="RobotoCondensed-Light" horiz-adv-x="1123" >
  <font-face 
    font-family="Roboto Condensed Light"
    font-weight="300"
    font-stretch="normal"
    units-per-em="2048"
    panose-1="2 0 0 0 0 0 0 0 0 0"
    ascent="1536"
    descent="-512"
    x-height="1082"
    cap-height="1456"
    bbox="-1504 -554.998 2027 2163"
    underline-thickness="100"
    underline-position="-100"
    unicode-range="U+0002-U+FFFD"
  />
<missing-glyph horiz-adv-x="803" 
d="M699 0h-595v1456h595v-1456zM653 86v1284l-229 -642zM149 1361v-1267l226 634zM183 54h432l-216 605zM399 796l216 606h-432z" />
    <glyph glyph-name="uniFB01" unicode="fi" horiz-adv-x="969" 
d="M207 0v981.999h-150v100h150v124c2 110.667 30.167 196.834 84.5 258.501s128.833 92.5 223.5 92.5c74 0 151.667 -19.667 233 -59l-19 -105c-68 34.667 -136.667 52 -206 52c-132.667 0 -200.667 -79.667 -204 -239v-124h207v-100h-207v-982h-112zM807 -0.000976562
h-112v1082h112v-1082z" />
    <glyph glyph-name="uniFB02" unicode="fl" horiz-adv-x="984" 
d="M710 1421c-82 18.667 -148.333 28 -199 28c-118.667 0 -178 -82 -178 -246v-121h212v-100h-212v-982h-112v982h-149v100h149v138c0.666992 108.667 25.667 192 75 250s118.333 87 207 87c70 0 176 -20.333 318 -61v-1496h-111v1421z" />
    <glyph glyph-name="uniFB03" unicode="ffi" horiz-adv-x="1472" 
d="M221 0l0.000976562 981.999h-149v100h149v142c1.33301 107.333 26.166 189.666 74.499 246.999s115.166 86 200.499 86c38.667 0 74.334 -5.66699 107.001 -17l-8 -102c-29.333 7.33301 -59.333 11 -90 11c-54 0 -96.167 -20.167 -126.5 -60.5
s-45.5 -98.166 -45.5 -173.499v-133h377v124c2 110.667 30.167 196.834 84.5 258.501s128.833 92.5 223.5 92.5c74 0 151.667 -19.667 233 -59l-19 -105c-68 34.667 -137.333 52 -208 52c-135.333 0 -203 -84 -203 -252v-111h208v-100h-208v-982h-111v982h-377v-982h-112z
M1309 -0.000976562h-111v1082h111v-1082z" />
    <glyph glyph-name="uniFB04" unicode="ffl" horiz-adv-x="1472" 
d="M221 0l0.000976562 982h-149v100h149v142c1.33301 107.333 26.166 189.666 74.499 246.999s115.166 86 200.499 86c38.667 0 74.334 -5.66699 107.001 -17l-8 -102c-29.333 7.33301 -59.333 11 -90 11c-54 0 -96.167 -20.167 -126.5 -60.5s-45.5 -98.166 -45.5 -173.499
v-133h377v138c0.666992 108.667 25.5 192 74.5 250s117.833 87 206.5 87c70 0 176 -20.333 318 -61v-1496h-111v1421c-82 18.667 -148.333 28 -199 28c-118.667 0 -178 -82 -178 -246v-121h213v-100h-213v-982h-111v982h-377v-982h-112z" />
    <glyph glyph-name=".notdef" horiz-adv-x="803" 
d="M699 0h-595v1456h595v-1456zM653 86v1284l-229 -642zM149 1361v-1267l226 634zM183 54h432l-216 605zM399 796l216 606h-432z" />
    <glyph glyph-name="uni0000" horiz-adv-x="0" 
 />
    <glyph glyph-name="uni0000" horiz-adv-x="0" 
 />
    <glyph glyph-name="uni0002" horiz-adv-x="0" 
 />
    <glyph glyph-name="uni000D" unicode="&#xd;" horiz-adv-x="460" 
 />
    <glyph glyph-name="space" unicode=" " horiz-adv-x="460" 
 />
    <glyph glyph-name="exclam" unicode="!" horiz-adv-x="438" 
d="M269 406h-103l-6 1050h116zM149 71c0 23.333 6.5 42.833 19.5 58.5s31.167 23.5 54.5 23.5s41.5 -7.83301 54.5 -23.5s19.5 -35.167 19.5 -58.5c0 -22.667 -6.5 -41.5 -19.5 -56.5s-31.167 -22.5 -54.5 -22.5s-41.5 7.5 -54.5 22.5s-19.5 33.833 -19.5 56.5z" />
    <glyph glyph-name="quotedbl" unicode="&#x22;" horiz-adv-x="588" 
d="M243 1396l-20 -315h-80l3 455h97v-140zM479 1396l-20 -315h-81l4 455h97v-140z" />
    <glyph glyph-name="numbersign" unicode="#" horiz-adv-x="1052" 
d="M654 410h-256l-65 -410h-90l65 410h-211v95h226l70 437h-232v98h247l67 416h90l-67 -416h257l67 416h91l-67 -416h188v-98h-204l-70 -437h211v-95h-226l-65 -410h-91zM413 505h256l70 437h-256z" />
    <glyph glyph-name="dollar" unicode="$" horiz-adv-x="996" 
d="M769 359c0 74.667 -19.667 134.997 -59 180.997s-108.333 90 -207 132c-129.333 50 -218.833 107.5 -268.5 172.5s-74.5 148.167 -74.5 249.5c0 108.667 28 197 84 265s131.333 106.667 226 116v203h94v-204c97.333 -11.333 172.833 -55 226.5 -131
s80.5 -181.333 80.5 -316h-110c0 102.667 -21.833 185.167 -65.5 247.5s-104.167 93.5 -181.5 93.5c-76 0 -135.667 -24.833 -179 -74.5s-65 -115.5 -65 -197.5c0 -77.333 19.833 -138.666 59.5 -183.999s108.667 -88.166 207 -128.499s169.5 -78.833 213.5 -115.5
s76.833 -79.667 98.5 -129s32.5 -108.666 32.5 -177.999c0 -108 -28.833 -195.833 -86.5 -263.5s-136.5 -106.167 -236.5 -115.5v-190h-92v189c-112 10 -198.333 53 -259 129s-91 179 -91 309h111c0 -103.333 24.5 -184.5 73.5 -243.5s117.5 -88.5 205.5 -88.5
c79.333 0 143 25.333 191 76s72 116 72 196z" />
    <glyph glyph-name="percent" unicode="%" horiz-adv-x="1309" 
d="M111 1176c0 86 22.5 157.667 67.5 215s102.833 86 173.5 86c70 0 127.833 -28.5 173.5 -85.5s68.5 -130.5 68.5 -220.5v-72c0 -85.333 -22.5 -156.5 -67.5 -213.5s-102.5 -85.5 -172.5 -85.5s-128 28.167 -174 84.5s-69 129.833 -69 220.5v71zM199 1099
c0 -60.667 14.001 -110.998 42.001 -150.998s65.667 -60 113 -60c46.667 0 83.667 20.167 111 60.5s41 92.166 41 155.499v72c0 60 -13.833 110.333 -41.5 151s-65.167 61 -112.5 61c-46.667 0 -83.834 -20.333 -111.501 -61s-41.5 -92.334 -41.5 -155.001v-73z
M723.001 357.002c0 86 22.5 157.5 67.5 214.5s102.5 85.5 172.5 85.5s128 -28.167 174 -84.5s69 -130.5 69 -222.5v-71c0 -87.333 -23 -159.166 -69 -215.499s-103.333 -84.5 -172 -84.5c-69.333 0 -127 28.167 -173 84.5s-69 130.166 -69 221.499v72zM810.001 279.002
c0 -60.667 14 -111.166 42 -151.499s65.667 -60.5 113 -60.5c46.667 0 83.834 20 111.501 60s41.5 92.333 41.5 157v73c0 63.333 -13.833 114.333 -41.5 153s-65.5 58 -113.5 58c-46.667 0 -83.834 -19.333 -111.501 -58s-41.5 -91.334 -41.5 -158.001v-73zM386.001 120.003
l-67 49l597 1138l68 -49z" />
    <glyph glyph-name="ampersand" unicode="&#x26;" horiz-adv-x="1100" 
d="M359 792c-53.333 76 -90.333 141.001 -111 195.001s-31 106.333 -31 157c0 103.333 26 184.5 78 243.5s121.333 88.5 208 88.5c78 0 142 -26.833 192 -80.5s75 -122.167 75 -205.5c0 -96.667 -44 -188.667 -132 -276l-141 -129l328 -458c47.333 96 71 204.333 71 325h102
c0 -166 -35.667 -304.667 -107 -416l169 -236h-134l-102 142c-44 -50.667 -94.667 -90.334 -152 -119.001s-117.333 -43 -180 -43c-116 0 -208.667 35.667 -278 107s-104 166.333 -104 285c0 70 17.5 136.5 52.5 199.5s100.5 136.5 196.5 220.5zM492 83.001
c101.333 0 191.333 48.333 270 145l-337 472l-10 12l-36 -33c-106 -104 -159 -206.333 -159 -307c0 -87.333 24.667 -157.333 74 -210s115.333 -79 198 -79zM328 1148c0 -78.667 37.334 -172.999 112.001 -282.999l105 96c35.333 30.667 64.166 64.167 86.499 100.5
s33.5 79.166 33.5 128.499c0 52 -14.833 95.333 -44.5 130s-69.167 52 -118.5 52c-52 0 -94 -20.5 -126 -61.5s-48 -95.167 -48 -162.5z" />
    <glyph glyph-name="quotesingle" unicode="'" horiz-adv-x="348" 
d="M226 1397l-17 -308h-90c3.33301 198.667 5 347.667 5 447h102v-139z" />
    <glyph glyph-name="parenleft" unicode="(" horiz-adv-x="596" 
d="M136 588c0 150 17.499 295.333 52.499 436s82.667 265.334 143 374.001s123.833 187 190.5 235l26 -84c-55.333 -48 -106 -120.833 -152 -218.5s-82.167 -210.667 -108.5 -339s-39.5 -268.5 -39.5 -420.5c0 -138 13 -270.833 39 -398.5s62.333 -241.334 109 -341.001
s97.334 -173.834 152.001 -222.501l-26 -79c-45.333 32.667 -91.333 82 -138 148s-88.5 144.667 -125.5 236s-66.667 191.833 -89 301.5s-33.5 233.834 -33.5 372.501z" />
    <glyph glyph-name="parenright" unicode=")" horiz-adv-x="607" 
d="M460 573c0 -150 -16.5 -293.832 -49.5 -431.499s-80 -261.5 -141 -371.5s-126.167 -190 -195.5 -240l-25 79c65.333 57.333 123.666 148.333 174.999 273c83.333 203.333 125 439.666 125 708.999c0 136.667 -13.167 268.5 -39.5 395.5s-63 241.5 -110 343.5
s-97.167 176.667 -150.5 224l25 79c72.667 -52.667 141.334 -140.667 206.001 -264c120 -230 180 -495.333 180 -796z" />
    <glyph glyph-name="asterisk" unicode="*" horiz-adv-x="869" 
d="M361 1000l-332 106l32 104l332 -123l-4 369h104l-8 -372l324 127l33 -104l-333 -114l223 -293l-85 -64l-214 304l-204 -302l-85 62z" />
    <glyph glyph-name="plus" unicode="+" horiz-adv-x="1012" 
d="M556 742h366v-115h-366v-481h-113v481h-360v115h360v464h113v-464z" />
    <glyph glyph-name="comma" unicode="," horiz-adv-x="392" 
d="M131 -273l-71 53c60.667 81.333 92 166 94 254v156h117v-123c0 -142 -46.667 -255.333 -140 -340z" />
    <glyph glyph-name="hyphen" unicode="-" horiz-adv-x="529" 
d="M463 590h-404v103h404v-103z" />
    <glyph glyph-name="period" unicode="." horiz-adv-x="489" 
d="M145 73c0 24 7.5 44.167 22.5 60.5s35.833 24.5 62.5 24.5s47.667 -8.16699 63 -24.5s23 -36.5 23 -60.5c0 -23.333 -7.66699 -42.666 -23 -57.999s-36.333 -23 -63 -23s-47.5 7.66699 -62.5 23s-22.5 34.666 -22.5 57.999z" />
    <glyph glyph-name="slash" unicode="/" horiz-adv-x="728" 
d="M143 -125h-100l511 1581h99z" />
    <glyph glyph-name="zero" unicode="0" horiz-adv-x="996" 
d="M876 608c0 -206.667 -31.834 -363.001 -95.501 -469.001s-157.5 -159 -281.5 -159c-122.667 0 -216.167 52.833 -280.5 158.5s-97.166 258.167 -98.499 457.5v256c0 202.667 31.667 357.334 95 464.001s157.333 160 282 160c122.667 0 216 -51.5 280 -154.5
s97 -253.167 99 -450.5v-263zM763.999 867.999c0 166.667 -22.168 292.334 -66.501 377.001s-111.166 127 -200.499 127c-86 0 -151.5 -40.5 -196.5 -121.5s-68.5 -201.5 -70.5 -361.5v-295c0 -162.667 22.833 -288.5 68.5 -377.5s112.5 -133.5 200.5 -133.5
c85.333 0 150.5 42.167 195.5 126.5s68.167 208.166 69.5 371.499v287z" />
    <glyph glyph-name="one" unicode="1" horiz-adv-x="996" 
d="M609 0h-112v1309l-329 -147v114l422 185h19v-1461z" />
    <glyph glyph-name="two" unicode="2" horiz-adv-x="996" 
d="M905 0l-772 -0.000976562v94l414 559c69.333 95.333 117.666 174.333 144.999 237s41 124 41 184c0 91.333 -21.833 163.833 -65.5 217.5s-104.167 80.5 -181.5 80.5c-82 0 -147.333 -31.167 -196 -93.5s-73 -143.166 -73 -242.499h-111c0 126.667 35 231.667 105 315
s161.667 125 275 125c110.667 0 198.334 -34.5 263.001 -103.5s97 -164.833 97 -287.5c0 -116.667 -52.667 -253 -158 -409l-64 -92l-356 -481h637v-103z" />
    <glyph glyph-name="three" unicode="3" horiz-adv-x="996" 
d="M356 794h109.001c81.333 0.666992 147.166 26.5 197.499 77.5s75.5 119.167 75.5 204.5c0 94 -21.667 166.833 -65 218.5s-104.666 77.5 -183.999 77.5c-77.333 0 -139.833 -27.5 -187.5 -82.5s-71.5 -126.833 -71.5 -215.5h-111c0 76 15.5 144.5 46.5 205.5
s75.167 109 132.5 144s121 52.5 191 52.5c109.333 0 196.666 -35.5 261.999 -106.5s98 -170.167 98 -297.5c0 -72 -18.833 -137.333 -56.5 -196s-88.167 -102 -151.5 -130c73.333 -24 130 -66.167 170 -126.5s60 -134.833 60 -223.5c0 -126.667 -34.667 -227.667 -104 -303
s-161 -113 -275 -113c-72.667 0 -139.334 17.167 -200.001 51.5s-107.5 82.5 -140.5 144.5s-49.5 134.667 -49.5 218h111c0 -90.667 25.833 -165.167 77.5 -223.5s118.834 -87.5 201.501 -87.5c84.667 0 150.5 26.5 197.5 79.5s70.5 129.5 70.5 229.5
c0 96 -25.167 169.5 -75.5 220.5s-123.833 76.833 -220.5 77.5h-108v104z" />
    <glyph glyph-name="four" unicode="4" horiz-adv-x="996" 
d="M757 470h187v-104h-187v-366h-111v366h-572v71l563 1019h120v-986zM207 470h439v818l-40 -81z" />
    <glyph glyph-name="five" unicode="5" horiz-adv-x="996" 
d="M201 746l60 710.001h615v-114h-520l-41 -488c65.333 53.333 140.333 80 225 80c111.333 0 199.5 -42.833 264.5 -128.5s97.5 -199.5 97.5 -341.5c0 -152 -32 -270.667 -96 -356s-155 -128 -273 -128c-107.333 0 -194.333 35.833 -261 107.5
s-104.334 170.167 -113.001 295.5h106c9.33301 -98 37 -172.5 83 -223.5s107.667 -76.5 185 -76.5c84.667 0 148.834 33 192.501 99s65.5 159.333 65.5 280c0 107.333 -24.5 194.166 -73.5 260.499s-115.167 99.5 -198.5 99.5c-48 0 -89.333 -7.5 -124 -22.5
s-70 -42.167 -106 -81.5z" />
    <glyph glyph-name="six" unicode="6" horiz-adv-x="996" 
d="M729 1466l-0.000976562 -107.002h-17c-141.333 -0.666992 -252.5 -50.667 -333.5 -150s-126.167 -239.666 -135.5 -420.999c34 54 76.333 95.5 127 124.5s106.667 43.5 168 43.5c107.333 0 192.833 -44.167 256.5 -132.5s95.5 -203.833 95.5 -346.5
c0 -148.667 -33.667 -268.667 -101 -360s-155.333 -137 -264 -137c-116.667 0 -211.667 50 -285 150s-110 231.333 -110 394v118c0 267.333 49.333 470.833 148 610.5s240.334 210.834 425.001 213.501h26zM519.999 850.998c-62.667 0 -120.5 -22.499 -173.5 -67.499
s-88.167 -100.5 -105.5 -166.5v-104c0 -126.667 26.667 -229.834 80 -309.501s121.333 -119.5 204 -119.5c76 0 137.667 36.333 185 109s71 165.667 71 279c0 114 -23.5 205.667 -70.5 275s-110.5 104 -190.5 104z" />
    <glyph glyph-name="seven" unicode="7" horiz-adv-x="996" 
d="M893 1386l-520 -1386h-116l517 1352h-689v104h808v-70z" />
    <glyph glyph-name="eight" unicode="8" horiz-adv-x="996" 
d="M857 1081c0 -73.333 -17.832 -139.832 -53.499 -199.499s-84.167 -104.5 -145.5 -134.5c72 -30.667 128.5 -78 169.5 -142s61.5 -137 61.5 -219c0 -122.667 -35.5 -221 -106.5 -295s-165.167 -111 -282.5 -111c-118.667 0 -213.334 36.833 -284.001 110.5
s-106 172.167 -106 295.5c0 83.333 20.167 156.666 60.5 219.999s95.833 110.333 166.5 141c-61.333 30 -109.5 74.5 -144.5 133.5s-52.5 125.833 -52.5 200.5c0 120.667 32.667 216.667 98 288s152 107 260 107c108.667 0 195.667 -36 261 -108s98 -167.667 98 -287z
M777.001 386.001c0 90.667 -26.332 164.834 -78.999 222.501s-119.334 86.5 -200.001 86.5s-147.167 -28.333 -199.5 -85s-78.5 -131.334 -78.5 -224.001s25.167 -166.334 75.5 -221.001s118.5 -82 204.5 -82c84 0 151.167 27.333 201.5 82s75.5 128.334 75.5 221.001z
M746.002 1082c0 83.333 -23.5 152.5 -70.5 207.5s-106.167 82.5 -177.5 82.5c-74 0 -133.5 -26.667 -178.5 -80s-67.5 -123.333 -67.5 -210c0 -87.333 23.167 -156.333 69.5 -207s105.5 -76 177.5 -76s131.167 25.833 177.5 77.5s69.5 120.167 69.5 205.5z" />
    <glyph glyph-name="nine" unicode="9" horiz-adv-x="996" 
d="M754 664c-34.667 -58.667 -78.333 -104.5 -131 -137.5s-108.667 -49.5 -168 -49.5c-104 0 -188.333 45.667 -253 137s-97 208.333 -97 351c0 148 33.833 270.167 101.5 366.5s157.5 144.5 269.5 144.5c122.667 0 218.167 -51 286.5 -153s102.5 -247 102.5 -435v-108
c0 -265.333 -46.333 -462.833 -139 -592.5s-233.667 -195.5 -423 -197.5h-30l1 106h32c144 2 253.5 49.5 328.5 142.5s114.833 234.833 119.5 425.5zM470.001 582c62.667 0 119.833 22.832 171.5 68.499s89.5 106.834 113.5 183.501v73c0 143.333 -25.167 256.5 -75.5 339.5
s-117.833 124.5 -202.5 124.5c-76.667 0 -139.667 -38 -189 -114s-74 -171.667 -74 -287c0 -111.333 23.667 -203.833 71 -277.5s109 -110.5 185 -110.5z" />
    <glyph glyph-name="colon" unicode=":" horiz-adv-x="412" 
d="M131 73c0 24 7.5 44.167 22.5 60.5s35.833 24.5 62.5 24.5s47.667 -8.16699 63 -24.5s23 -36.5 23 -60.5c0 -23.333 -7.66699 -42.666 -23 -57.999s-36.333 -23 -63 -23s-47.5 7.66699 -62.5 23s-22.5 34.666 -22.5 57.999zM133 995c0 24 7.5 44.167 22.5 60.5
s35.833 24.5 62.5 24.5s47.667 -8.16699 63 -24.5s23 -36.5 23 -60.5c0 -23.333 -7.66699 -42.666 -23 -57.999s-36.333 -23 -63 -23s-47.5 7.66699 -62.5 23s-22.5 34.666 -22.5 57.999z" />
    <glyph glyph-name="semicolon" unicode=";" horiz-adv-x="381" 
d="M122 995c0 24 7.5 44.167 22.5 60.5s35.833 24.5 62.5 24.5s47.667 -8.16699 63 -24.5s23 -36.5 23 -60.5c0 -23.333 -7.66699 -42.666 -23 -57.999s-36.333 -23 -63 -23s-47.5 7.66699 -62.5 23s-22.5 34.666 -22.5 57.999zM133 -273l-71 53
c60.667 81.333 92 166 94 254v156h117v-123c0 -142 -46.667 -255.333 -140 -340z" />
    <glyph glyph-name="less" unicode="&#x3c;" horiz-adv-x="919" 
d="M201 655l576 -298v-129l-693 379v99l693 378v-129z" />
    <glyph glyph-name="equal" unicode="=" horiz-adv-x="990" 
d="M846 828h-701v108h701v-108zM846 417h-701v108h701v-108z" />
    <glyph glyph-name="greater" unicode="&#x3e;" horiz-adv-x="933" 
d="M715 659l-589 300v127l711 -378v-99l-711 -379v126z" />
    <glyph glyph-name="question" unicode="?" horiz-adv-x="827" 
d="M333 405c0 73.333 8.16699 134.502 24.5 183.502s52 105.667 107 170s90.833 110.833 107.5 139.5s29.5 59 38.5 91s13.5 69.333 13.5 112c0 83.333 -18.333 148.5 -55 195.5s-86.667 70.5 -150 70.5c-64 0 -116.333 -22.833 -157 -68.5s-61.667 -106.834 -63 -183.501
h-110c1.33301 109.333 32.833 196.833 94.5 262.5s140.167 98.5 235.5 98.5c98.667 0 176 -33.833 232 -101.5s84 -158.5 84 -272.5c0 -70.667 -13.833 -136.834 -41.5 -198.501s-80.5 -136.167 -158.5 -223.5c-61.333 -63.333 -92 -155 -92 -275h-110zM321 71.002
c0 23.333 6.33301 42.833 19 58.5s30.667 23.5 54 23.5s41.5 -7.83301 54.5 -23.5s19.5 -35.167 19.5 -58.5c0 -22.667 -6.5 -41.5 -19.5 -56.5s-31.167 -22.5 -54.5 -22.5s-41.333 7.5 -54 22.5s-19 33.833 -19 56.5z" />
    <glyph glyph-name="at" unicode="@" horiz-adv-x="1606" 
d="M1491 512c-3.33301 -102 -19.3369 -194.831 -48.0039 -278.498s-67.167 -146.834 -115.5 -189.501s-104.166 -64 -167.499 -64c-54 0 -98.167 16.5 -132.5 49.5s-57.166 79.5 -68.499 139.5c-30 -62.667 -66.167 -109.834 -108.5 -141.501s-87.833 -47.5 -136.5 -47.5
c-78.667 0 -137.5 40 -176.5 120s-53.167 188.667 -42.5 326c12.667 167.333 53.334 302.833 122.001 406.5s149.334 155.5 242.001 155.5c71.333 0 132.333 -21.667 183 -65l47 -43l-44 -569c-4.66699 -78 3.5 -138.167 24.5 -180.5s55.167 -63.5 102.5 -63.5
c68.667 0 124 40.5 166 121.5s65 188.833 69 323.5c11.333 267.333 -31 469.833 -127 607.5s-241.667 206.5 -437 206.5c-117.333 0 -222.666 -35.167 -315.999 -105.5s-167 -169.833 -221 -298.5s-84 -276.667 -90 -444c-7.33301 -166.667 10.667 -314 54 -442
s109 -226.333 197 -295s192.333 -103 313 -103c50.667 0 101.167 7.33301 151.5 22s92.5 33.667 126.5 57l27 -81c-35.333 -26.667 -81.166 -48.167 -137.499 -64.5s-113.166 -24.5 -170.499 -24.5c-140.667 0 -261.334 37.667 -362.001 113s-176.167 183.5 -226.5 324.5
s-71.833 305.5 -64.5 493.5c6 184.667 40 349 102 493s146.667 255 254 333s229.666 117 366.999 117c141.333 0 261.666 -35.667 360.999 -107s173 -175.333 221 -312s68.667 -300 62 -490zM591.996 285.002c6 -66 21.5 -116.833 46.5 -152.5s57.5 -53.5 97.5 -53.5
c97.333 0 170 82 218 246l39 525c-38 30.667 -80.333 46 -127 46c-60 0 -112.167 -29 -156.5 -87s-77 -138.833 -98 -242.5s-27.5 -197.5 -19.5 -281.5z" />
    <glyph glyph-name="A" unicode="A" 
d="M834 407h-546l-124 -407h-119l464 1456h106l464 -1456h-119zM321 514h480l-240 781z" />
    <glyph glyph-name="B" unicode="B" horiz-adv-x="1097" 
d="M172 0l-0.00195312 1456h369c131.333 0 230.833 -32.167 298.5 -96.5s101.5 -159.166 101.5 -284.499c0 -74.667 -17.333 -139.667 -52 -195s-82.667 -95.333 -144 -120c70.667 -18 127.834 -59.167 171.501 -123.5s65.5 -139.833 65.5 -226.5
c0 -126.667 -34.667 -226.667 -104 -300s-167.666 -110 -294.999 -110h-411zM285.998 698.999v-593h302c86.667 0 155 26.667 205 80s75 127.333 75 222c0 88 -23.167 158 -69.5 210s-110.833 79 -193.5 81h-319zM285.998 803.999l265 -0.000976562c86.667 0 154 23 202 69
s72 114.333 72 205c0 92.667 -23.5 160.834 -70.5 204.501s-118.167 65.5 -213.5 65.5h-255v-544z" />
    <glyph glyph-name="C" unicode="C" horiz-adv-x="1158" 
d="M1045 454c-10.667 -163.333 -54.666 -283.167 -131.999 -359.5s-184.333 -114.5 -321 -114.5c-140.667 0 -251.667 53.167 -333 159.5s-122.333 250.833 -123 433.5v316c0 183.333 41.5 327 124.5 431s196.5 156 340.5 156c136 0 241.333 -39 316 -117
s117.334 -197.667 128.001 -359h-116c-10.667 132 -41.834 226.333 -93.501 283s-129.834 85 -234.501 85c-110 0 -195.667 -41 -257 -123s-92 -201 -92 -357v-312c0 -154.667 29.667 -275 89 -361s143 -129 251 -129c113.333 0 195.333 28.333 246 85s81 151 91 283h116z
" />
    <glyph glyph-name="D" unicode="D" horiz-adv-x="1167" 
d="M172 0v1456h343c158 0 283 -50.5 375 -151.5s139.333 -240.167 142 -417.5v-305c0 -182.667 -46.5 -325.334 -139.5 -428.001s-223.5 -154 -391.5 -154h-329zM286 1348v-1242h221c130 0 230.667 40.167 302 120.5s108 195.166 110 344.499v305
c0 149.333 -34.833 265.333 -104.5 348s-170.5 124 -302.5 124h-226z" />
    <glyph glyph-name="E" unicode="E" horiz-adv-x="1018" 
d="M851 697h-565v-591h650v-106h-764v1456h759v-108h-645v-545h565v-106z" />
    <glyph glyph-name="F" unicode="F" horiz-adv-x="1004" 
d="M846 678h-560v-678h-114v1456h758v-108h-644v-562h560v-108z" />
    <glyph glyph-name="G" unicode="G" horiz-adv-x="1215" 
d="M1059 169c-48.667 -62.667 -110.002 -109.833 -184.002 -141.5s-155 -47.5 -243 -47.5c-149.333 0 -266.666 50 -351.999 150s-129.666 238.667 -132.999 416v354c0 186 40.5 328.5 121.5 427.5s196.5 148.5 346.5 148.5c134 0 239 -37 315 -111
s118.667 -180.667 128 -320h-114c-12 112 -44.833 193.833 -98.5 245.5s-130.167 77.5 -229.5 77.5c-118.667 0 -207.5 -39.5 -266.5 -118.5s-88.5 -194.833 -88.5 -347.5v-336c0 -152 32.5 -270 97.5 -354s156.167 -126 273.5 -126c127.333 0 231.333 40.333 312 121v379
h-319v107h434v-524z" />
    <glyph glyph-name="H" unicode="H" horiz-adv-x="1259" 
d="M1085 0h-115v697h-684v-697h-114v1456h114v-653h684v653h115v-1456z" />
    <glyph glyph-name="I" unicode="I" horiz-adv-x="500" 
d="M307 0h-114v1456h114v-1456z" />
    <glyph glyph-name="J" unicode="J" horiz-adv-x="987" 
d="M707 1456l115 -0.000976562v-1023c0 -140 -34 -250.5 -102 -331.5s-158.333 -121.5 -271 -121.5c-118.667 0 -210.334 36.833 -275.001 110.5s-97 177.167 -97 310.5h114c0 -105.333 22.833 -184.166 68.5 -236.499s108.834 -78.5 189.501 -78.5
c77.333 0 139.5 31 186.5 93s70.833 145 71.5 249v1028z" />
    <glyph glyph-name="K" unicode="K" horiz-adv-x="1124" 
d="M455 718l-169 -196v-522h-114v1456h114v-776l160 200l451 576h143l-508 -648l547 -808h-139z" />
    <glyph glyph-name="L" unicode="L" horiz-adv-x="950" 
d="M287 106h600v-106h-715v1456h115v-1350z" />
    <glyph glyph-name="M" unicode="M" horiz-adv-x="1531" 
d="M323 1456l441 -1281l443 1281h151v-1456h-114v631l10 635l-446 -1266h-88l-444 1260l10 -625v-635h-114v1456h151z" />
    <glyph glyph-name="N" unicode="N" horiz-adv-x="1262" 
d="M1088 0h-114l-687 1240v-1240h-115v1456h115l688 -1242v1242h113v-1456z" />
    <glyph glyph-name="O" unicode="O" horiz-adv-x="1208" 
d="M1075 570c0 -188 -41.165 -333.333 -123.498 -436s-197.833 -154 -346.5 -154c-147.333 0 -262.833 51.333 -346.5 154s-125.834 247 -126.501 433v317c0 187.333 41.667 332.833 125 436.5s198.666 155.5 345.999 155.5c149.333 0 265.333 -52 348 -156
s124 -250.333 124 -439v-311zM960.002 886c0 159.333 -30.668 279 -92.001 359s-149.666 120 -264.999 120c-111.333 0 -198.333 -39.167 -261 -117.5s-94.667 -195.5 -96 -351.5v-326c0 -160 31.667 -280.167 95 -360.5s151.333 -120.5 264 -120.5
c116 0 204.167 40 264.5 120s90.5 200.333 90.5 361v316z" />
    <glyph glyph-name="P" unicode="P" horiz-adv-x="1104" 
d="M286 592l0.000976562 -592.001h-114v1456h423c128.667 0 230 -38.667 304 -116s111 -183.666 111 -318.999c0 -138 -35.833 -244 -107.5 -318s-174.834 -111 -309.501 -111h-307zM286.001 698.999h309c96 0 170.167 27.833 222.5 83.5s78.5 134.5 78.5 236.5
s-26.5 182.333 -79.5 241s-126.5 88 -220.5 88h-310v-649z" />
    <glyph glyph-name="Q" unicode="Q" horiz-adv-x="1208" 
d="M1071 570c0 -130 -19.334 -238.832 -58.001 -326.499s-93.667 -153.834 -165 -198.501l219 -220l-78 -79l-250 252c-43.333 -12 -89.666 -18 -138.999 -18c-148 0 -263.333 51.5 -346 154.5s-124.667 245.833 -126 428.5v321c0 187.333 41.667 332.833 125 436.5
s198.333 155.5 345 155.5c150 0 266.333 -52 349 -156s124 -250.333 124 -439v-311zM955.999 886.001c0 159.333 -30.666 279 -91.999 359s-150 120 -266 120c-110.667 0 -197.334 -39.167 -260.001 -117.5s-94.667 -195.5 -96 -351.5v-326
c0 -160 31.667 -280.167 95 -360.5s151 -120.5 263 -120.5c114.667 0 202.167 38.667 262.5 116s91.5 194 93.5 350v331z" />
    <glyph glyph-name="R" unicode="R" horiz-adv-x="1126" 
d="M625 606l-340 0.000976562v-606h-115v1456h399c132.667 0 235.5 -37.833 308.5 -113.5s109.5 -180.834 109.5 -315.501c0 -94 -22.667 -176.5 -68 -247.5s-106.333 -120.167 -183 -147.5l303 -619v-13h-122zM285 712.001h304c86 0 154.667 29.5 206 88.5
s77 134.5 77 226.5c0 102 -26.667 181 -80 237s-128 84 -224 84h-283v-636z" />
    <glyph glyph-name="S" unicode="S" horiz-adv-x="1059" 
d="M856 358c0 81.333 -23.168 145.332 -69.501 191.999s-132.833 91.334 -259.5 134.001s-219.667 90.334 -279 143.001c-78 68.667 -117 159.334 -117 272.001c0 111.333 38.333 202 115 272s175.667 105 297 105c124 0 225.333 -40.667 304 -122s118 -186 118 -314h-115
c0 98 -27.5 177.167 -82.5 237.5s-129.833 90.5 -224.5 90.5c-92 0 -164.5 -24.833 -217.5 -74.5s-79.5 -113.834 -79.5 -192.501c0 -73.333 25 -133.333 75 -180s129.667 -88.167 239 -124.5s192 -74 248 -113s97.333 -84.833 124 -137.5s40 -114.667 40 -186
c0 -114 -38.5 -205.833 -115.5 -275.5s-178.833 -104.5 -305.5 -104.5c-85.333 0 -163.166 17.5 -233.499 52.5s-125.333 85.333 -165 151s-59.5 143.167 -59.5 232.5h114c0 -102.667 31 -183.334 93 -242.001s145.667 -88 251 -88c92 0 165.833 24.667 221.5 74
s83.5 115.333 83.5 198z" />
    <glyph glyph-name="T" unicode="T" horiz-adv-x="1067" 
d="M1005 1348h-414v-1348h-115v1348h-413v108h942v-108z" />
    <glyph glyph-name="U" unicode="U" horiz-adv-x="1168" 
d="M1018 1456v-1033c-0.666992 -140.667 -38.5 -249.667 -113.5 -327s-181.5 -116 -319.5 -116c-140 0 -247.167 38.167 -321.5 114.5s-111.5 187.166 -111.5 332.499v1029h114v-1025c0 -230 106.333 -345 319 -345c209.333 0 315.333 111.667 318 335v1035h115z" />
    <glyph glyph-name="V" unicode="V" horiz-adv-x="1107" 
d="M550 182l3 -16l4 16l380 1274h126l-455 -1456h-108l-455 1456h125z" />
    <glyph glyph-name="W" unicode="W" horiz-adv-x="1579" 
d="M405 396l35 -216l44 206l261 1070h102l257 -1070l43 -208l38 218l215 1060h116l-310 -1456h-108l-273 1135l-29 135l-28 -135l-279 -1135h-109l-309 1456h117z" />
    <glyph glyph-name="X" unicode="X" horiz-adv-x="1097" 
d="M549 842l335 614h136l-401 -718l413 -738h-137l-346 633l-347 -633h-136l415 738l-403 718h136z" />
    <glyph glyph-name="Y" unicode="Y" horiz-adv-x="1070" 
d="M534 664l363 792h131l-438 -908v-548h-114v548l-437 908h134z" />
    <glyph glyph-name="Z" unicode="Z" horiz-adv-x="1069" 
d="M228 106h749v-106h-882v95l720 1254h-700v107h835v-91z" />
    <glyph glyph-name="bracketleft" unicode="[" horiz-adv-x="461" 
d="M439 1560h-174v-1768h174v-104h-285v1976h285v-104z" />
    <glyph glyph-name="backslash" unicode="\" horiz-adv-x="723" 
d="M59 1456h108l510 -1581h-107z" />
    <glyph glyph-name="bracketright" unicode="]" horiz-adv-x="461" 
d="M21 1664h286v-1976h-286v104h175v1768h-175v104z" />
    <glyph glyph-name="asciicircum" unicode="^" horiz-adv-x="756" 
d="M374 1295l-185 -566h-107l252 727h81l250 -727h-106z" />
    <glyph glyph-name="underscore" unicode="_" horiz-adv-x="789" 
d="M767 -103h-746v103h746v-103z" />
    <glyph glyph-name="grave" unicode="`" horiz-adv-x="585" 
d="M438 1255h-109l-226 281h144z" />
    <glyph glyph-name="a" unicode="a" horiz-adv-x="964" 
d="M720 0c-10 34.667 -16.6689 84.667 -20.002 150c-33.333 -54 -76.166 -95.833 -128.499 -125.5s-109.166 -44.5 -170.499 -44.5c-93.333 0 -166 26.333 -218 79s-78 127.667 -78 225c0 106 36.167 190 108.5 252s172.166 93.333 299.499 94h186v151
c0 77.333 -19.167 132.833 -57.5 166.5s-94.5 50.5 -168.5 50.5c-68.667 0 -125 -20 -169 -60s-66 -91.667 -66 -155l-111 1c0 88.667 33.333 163.834 100 225.501s150.334 92.5 251.001 92.5c108.667 0 191 -27.333 247 -82s84 -134.334 84 -239.001v-531
c0 -106 9.66699 -185.333 29 -238v-12h-118zM414.998 87c65.333 0 123.167 17 173.5 51s87.166 79.333 110.499 136v263h-176c-101.333 -1.33301 -177.666 -23.833 -228.999 -67.5s-77 -102.5 -77 -176.5c0 -137.333 66 -206 198 -206z" />
    <glyph glyph-name="b" unicode="b" horiz-adv-x="996" 
d="M887 490c0 -166.667 -29.1689 -293.334 -87.502 -380.001s-145.166 -130 -260.499 -130c-127.333 0 -221.666 55 -282.999 165l-5 -145h-103v1536h110v-605c60.667 114 153.667 171 279 171c116.667 0 203.667 -41.167 261 -123.5s87 -205.166 89 -368.499v-120z
M775.998 591c0 137.333 -20.334 239 -61.001 305s-107.334 99 -200.001 99c-123.333 0 -209 -65 -257 -195v-536c22.667 -56.667 56 -100.5 100 -131.5s97 -46.5 159 -46.5c88.667 0 153.834 32.167 195.501 96.5s62.834 164.5 63.501 300.5v108z" />
    <glyph glyph-name="c" unicode="c" horiz-adv-x="929" 
d="M490 83c77.333 0 136.668 21.668 178.001 65.001s63.666 105.666 66.999 186.999h107c-5.33301 -110.667 -40.666 -197.5 -105.999 -260.5s-147.333 -94.5 -246 -94.5c-128.667 0 -225.834 41.167 -291.501 123.5s-99.167 204.5 -100.5 366.5v132
c0 165.333 32.833 290 98.5 374s163.167 126 292.5 126c107.333 0 192 -33.833 254 -101.5s95 -162.167 99 -283.5h-107c-3.33301 89.333 -26 158.5 -68 207.5s-101.333 73.5 -178 73.5c-96 0 -166.5 -32.333 -211.5 -97s-67.5 -164 -67.5 -298v-123
c0 -138.667 22.667 -239.5 68 -302.5s116 -94.5 212 -94.5z" />
    <glyph glyph-name="d" unicode="d" horiz-adv-x="999" 
d="M108 591c0 169.333 29.667 296.833 89 382.5s147.333 128.5 264 128.5c122.667 0 214.334 -55 275.001 -165v599h111v-1536h-104l-5 139c-60.667 -106 -153.334 -159 -278.001 -159c-114 0 -200.833 43.333 -260.5 130s-90.167 209.667 -91.5 369v112zM221 490
c0 -138.667 20.833 -240.667 62.5 -306s107.834 -98 198.501 -98c116.667 0 201.334 55.667 254.001 167v561c-50 120.667 -134.333 181 -253 181c-90.667 0 -156.834 -32.333 -198.501 -97s-62.834 -164.667 -63.501 -300v-108z" />
    <glyph glyph-name="e" unicode="e" horiz-adv-x="937" 
d="M505 -20c-127.333 0 -226.999 41.667 -298.999 125s-108.667 202 -110 356v132c0 158.667 34.667 283.167 104 373.5s164.666 135.5 285.999 135.5c117.333 0 206.833 -38.333 268.5 -115s93.167 -194 94.5 -352v-104h-643v-61c0 -124 26.5 -219.667 79.5 -287
s127.833 -101 224.5 -101c106.667 0 193 39 259 117l58 -74c-70.667 -96.667 -178 -145 -322 -145zM486.001 998c-87.333 0 -154.5 -30.832 -201.5 -92.499s-72.833 -151.834 -77.5 -270.501h531v29c-5.33301 222.667 -89.333 334 -252 334z" />
    <glyph glyph-name="f" unicode="f" horiz-adv-x="615" 
d="M221 0l0.000976562 982h-149v100h149v142c1.33301 107.333 26.166 189.666 74.499 246.999s115.166 86 200.499 86c38.667 0 74.334 -5.66699 107.001 -17l-8 -102c-29.333 7.33301 -59.333 11 -90 11c-54 0 -96.167 -20.167 -126.5 -60.5s-45.5 -98.166 -45.5 -173.499
v-133h212v-100h-212v-982h-112z" />
    <glyph glyph-name="g" unicode="g" horiz-adv-x="996" 
d="M109 591c0 170.667 29.332 298.5 87.999 383.5s146.667 127.5 264 127.5c124.667 0 217.334 -57 278.001 -171l6 151h103v-1113c-0.666992 -130.667 -31.834 -230 -93.501 -298s-151.5 -102 -269.5 -102c-59.333 0 -119.166 14.5 -179.499 43.5
s-106.166 64.5 -137.499 106.5l52 80c74 -84.667 159.667 -127 257 -127c90 0 155.5 24 196.5 72s61.833 121 62.5 219v172c-60.667 -103.333 -152.667 -155 -276 -155c-112.667 0 -198.834 42.333 -258.501 127s-90.5 207 -92.5 367v117zM220.999 490
c0 -138.667 21 -240.667 63 -306s108 -98 198 -98c120 0 204.667 57 254 171v553c-50 123.333 -134 185 -252 185c-90.667 0 -157 -32.333 -199 -97s-63.333 -164.667 -64 -300v-108z" />
    <glyph glyph-name="h" unicode="h" horiz-adv-x="985" 
d="M259 912c32 58 72.498 104.167 121.498 138.5s105.167 51.5 168.5 51.5c188.667 0 285.334 -125.667 290.001 -377v-725h-110v713c-0.666992 96.667 -17.667 168 -51 214s-85.666 69 -156.999 69c-58 0 -110.167 -21.833 -156.5 -65.5s-81.5 -103.5 -105.5 -179.5v-751
h-111v1536h111v-624z" />
    <glyph glyph-name="i" unicode="i" horiz-adv-x="431" 
d="M272 0h-112v1082h112v-1082zM144 1394c0 22.667 6.33301 42 19 58s30.667 24 54 24s41.5 -8 54.5 -24s19.5 -35.333 19.5 -58s-6.5 -41.834 -19.5 -57.501s-31.167 -23.5 -54.5 -23.5s-41.333 7.83301 -54 23.5s-19 34.834 -19 57.501z" />
    <glyph glyph-name="j" unicode="j" horiz-adv-x="436" 
d="M267 1082v-1202c0 -211.333 -79.667 -317 -239 -317c-31.333 0 -61 6.33301 -89 19l1 101c26 -8.66699 50.667 -13 74 -13c94.667 0 142 67.667 142 203v1209h111zM139 1394c0 22.667 6.16699 42 18.5 58s30.166 24 53.499 24s41.5 -8 54.5 -24s19.5 -35.333 19.5 -58
s-6.5 -41.834 -19.5 -57.501s-31.167 -23.5 -54.5 -23.5s-41.166 7.83301 -53.499 23.5s-18.5 34.834 -18.5 57.501z" />
    <glyph glyph-name="k" unicode="k" horiz-adv-x="888" 
d="M373 541l-113 -126v-415h-112v1536h112v-977l93 118l335 405h138l-380 -457l416 -625h-132z" />
    <glyph glyph-name="l" unicode="l" horiz-adv-x="431" 
d="M272 0h-112v1536h112v-1536z" />
    <glyph glyph-name="m" unicode="m" horiz-adv-x="1561" 
d="M250 1082l2.99805 -162c67.333 121.333 164 182 290 182c139.333 0 229.333 -66.333 270 -199c34 66 77.833 115.667 131.5 149s112.167 50 175.5 50c194.667 0 294.334 -125.333 299.001 -376v-726h-111v719c-1.33301 93.333 -18.666 162.833 -51.999 208.5
s-88 68.5 -164 68.5c-68.667 -1.33301 -126.667 -28 -174 -80s-74.333 -117.333 -81 -196v-720h-112v716c0 94.667 -17.5 165 -52.5 211s-89.5 69 -163.5 69c-60.667 0 -113.167 -21 -157.5 -63s-76.5 -102 -96.5 -180v-753h-111v1082h106z" />
    <glyph glyph-name="n" unicode="n" horiz-adv-x="986" 
d="M254 1082l2.99805 -172.001c32 58.667 72.833 105.334 122.5 140.001s106.167 52 169.5 52c188.667 0 285.334 -125.667 290.001 -377v-725h-110v713c-0.666992 96.667 -17.667 168 -51 214s-85.666 69 -156.999 69c-58 0 -110.167 -21.833 -156.5 -65.5
s-81.5 -103.5 -105.5 -179.5v-751h-111v1082h106z" />
    <glyph glyph-name="o" unicode="o" horiz-adv-x="1005" 
d="M106 596c0 156 35.335 279.334 106.002 370.001s167 136 289 136c122.667 0 219.167 -44.667 289.5 -134s105.833 -212.333 106.5 -369v-115c0 -158.667 -35.5 -282.334 -106.5 -371.001s-166.833 -133 -287.5 -133s-216.334 43.333 -287.001 130
s-107.334 206 -110.001 358v128zM218.002 484.001c0 -124.667 25.1699 -222.668 75.5029 -294.001s120.166 -107 209.499 -107c91.333 0 161.166 34.333 209.499 103s72.833 167 73.5 295v115c0 124.667 -25.333 222.834 -76 294.501s-120.334 107.5 -209.001 107.5
c-86 0 -154.333 -35 -205 -105s-76.667 -166.333 -78 -289v-120z" />
    <glyph glyph-name="p" unicode="p" horiz-adv-x="996" 
d="M886 490c0 -166.667 -29 -293.333 -87 -380s-144.667 -130 -260 -130c-125.333 0 -219 50 -281 150v-546h-110v1498h102l5 -148c64 112 157.667 168 281 168c116.667 0 204 -41.333 262 -124s87.333 -209 88 -379v-109zM775 591.001c0 138.667 -21.5 240.667 -64.5 306
s-110.167 98 -201.5 98c-117.333 0 -201 -59.667 -251 -179v-570c50 -108.667 134.333 -163 253 -163c89.333 0 155.5 32.667 198.5 98s64.833 166 65.5 302v108z" />
    <glyph glyph-name="q" unicode="q" horiz-adv-x="1003" 
d="M108 591c0 171.333 29.667 299.333 89 384s148 127 266 127c120.667 0 212 -53.333 274 -160l6 140h104v-1498h-112v542c-63.333 -97.333 -154.333 -146 -273 -146c-115.333 0 -202.833 42.333 -262.5 127s-90.167 208.667 -91.5 372v112zM221 490
c0 -138.667 21.167 -241.167 63.5 -307.5s108.833 -99.5 199.5 -99.5c114 0 197.667 53 251 159v583c-54 115.333 -137.333 173 -250 173c-90.667 0 -157.167 -32.667 -199.5 -98s-63.833 -166 -64.5 -302v-108z" />
    <glyph glyph-name="r" unicode="r" horiz-adv-x="619" 
d="M572 978c-26.667 4.66699 -50 7 -70 7c-61.333 0 -112.833 -21 -154.5 -63s-71.167 -100.333 -88.5 -175v-747h-111v1082h109l2 -162c52.667 121.333 135.334 182 248.001 182c29.333 0 51.666 -4.33301 66.999 -13z" />
    <glyph glyph-name="s" unicode="s" horiz-adv-x="914" 
d="M689 266c0 46.667 -19.335 87.4971 -58.002 122.497s-104.167 73.333 -196.5 115s-156.833 76.334 -193.5 104.001s-63.667 57.834 -81 90.501s-26 71.334 -26 116.001c0 83.333 30 152.166 90 206.499s137.667 81.5 233 81.5c102.667 0 184.667 -29 246 -87
s92 -134.667 92 -230h-111c0 61.333 -21 112.166 -63 152.499s-96.667 60.5 -164 60.5c-65.333 0 -117.166 -16.667 -155.499 -50s-57.5 -76.666 -57.5 -129.999c0 -43.333 14.667 -78.666 44 -105.999s92.666 -64.333 189.999 -111c100.667 -44 170 -80.333 208 -109
s66.667 -60.5 86 -95.5s29 -76.5 29 -124.5c0 -89.333 -31 -160.333 -93 -213s-143.667 -79 -245 -79c-107.333 0 -194.166 29.333 -260.499 88s-99.5 134.334 -99.5 227.001h112c3.33301 -67.333 25.833 -119.5 67.5 -156.5s101.834 -55.5 180.501 -55.5
c68 0 122.667 16.667 164 50s62 77.666 62 132.999z" />
    <glyph glyph-name="t" unicode="t" horiz-adv-x="594" 
d="M315 1358l-0.000976562 -276h185v-100h-185v-719c0 -59.333 8.83301 -103.5 26.5 -132.5s47.167 -43.5 88.5 -43.5c18 0 44.667 3.33301 80 10l3 -100c-25.333 -11.333 -61.666 -17 -108.999 -17c-130 0 -196.667 89.333 -200 268v734h-167v100h167v276h111z" />
    <glyph glyph-name="u" unicode="u" horiz-adv-x="986" 
d="M728 129c-61.333 -99.333 -156.333 -149 -285 -149c-98 0 -172 34 -222 102s-75.333 168 -76 300v700h110v-697c0 -98 17.333 -172.333 52 -223s84.667 -76 150 -76c140 0 229.667 68 269 204v792h112v-1082h-108z" />
    <glyph glyph-name="v" unicode="v" horiz-adv-x="869" 
d="M435 174l266 908h114l-337 -1082h-88l-339 1082h114z" />
    <glyph glyph-name="w" unicode="w" horiz-adv-x="1336" 
d="M376 246l9 -60l12 65l221 831h93l219 -824l16 -85l13 76l187 833h114l-265 -1082h-93l-235 860l-5 26l-4 -27l-231 -859h-94l-263 1082h113z" />
    <glyph glyph-name="x" unicode="x" horiz-adv-x="880" 
d="M438 645l237 437h131l-307 -531l319 -551h-130l-249 455l-250 -455h-130l318 551l-306 531h130z" />
    <glyph glyph-name="y" unicode="y" horiz-adv-x="857" 
d="M436 183l258 899h119l-381 -1255l-21 -60c-51.333 -136 -130 -204 -236 -204c-25.333 0 -52 4.66699 -80 14l-1 102c15.333 -4.66699 32.333 -7 51 -7c48 0 87.333 14.333 118 43s56 75 76 139l46 153l-340 1075h122z" />
    <glyph glyph-name="z" unicode="z" horiz-adv-x="880" 
d="M225 103h584v-103h-716v90l547 887h-532v105h667v-91z" />
    <glyph glyph-name="braceleft" unicode="{" horiz-adv-x="610" 
d="M554 -402c-187.333 66 -283.001 214.667 -287.001 446v237c0 174.667 -63.667 262 -191 262v106c124 0 187.667 81.333 191 244v255c4 233.333 99.667 383 287 449l24 -81c-129.333 -49.333 -195.666 -172.666 -198.999 -369.999v-230
c0 -164.667 -52.667 -271.334 -158 -320.001c105.333 -51.333 158 -158.333 158 -321v-223c2 -196 69 -320.333 201 -373z" />
    <glyph glyph-name="bar" unicode="|" horiz-adv-x="452" 
d="M279 -270h-101v1726h101v-1726z" />
    <glyph glyph-name="braceright" unicode="}" horiz-adv-x="610" 
d="M29 -321c134 53.333 201.333 179.331 202 377.998v218c0 165.333 54.667 272 164 320c-109.333 48 -164 154 -164 318v233c-3.33301 196.667 -70 320 -200 370l24 81c96.667 -34 168.667 -89.167 216 -165.5s71 -176.166 71 -299.499v-222c0 -174 63.667 -261 191 -261
v-106c-127.333 0 -191 -88.333 -191 -265v-223c-0.666992 -122.667 -25 -221.167 -73 -295.5s-119.333 -128.166 -214 -161.499z" />
    <glyph glyph-name="asciitilde" unicode="~" horiz-adv-x="1216" 
d="M1075 765c0 -98.667 -23.8359 -180.499 -71.5029 -245.499s-108.167 -97.5 -181.5 -97.5c-66.667 0 -130 27.667 -190 83l-116 118c-39.333 37.333 -80.333 56 -123 56c-48.667 0 -86.5 -19.833 -113.5 -59.5s-40.5 -96.5 -40.5 -170.5l-100 -1
c0 98.667 23.333 180 70 244s108 96 184 96c40.667 0 79.834 -10.333 117.501 -31s82.167 -58.334 133.5 -113.001c38.667 -44.667 70.834 -74.667 96.501 -90s52.834 -23 81.501 -23c48.667 0 87.167 21.5 115.5 64.5s42.5 99.5 42.5 169.5h95z" />
    <glyph glyph-name="uni00A0" unicode="&#xa0;" horiz-adv-x="460" 
 />
    <glyph glyph-name="exclamdown" unicode="&#xa1;" horiz-adv-x="427" 
d="M165 689h103l7 -1048h-116zM285 1021c0 -22.667 -6.5 -42 -19.5 -58s-31.167 -24 -54.5 -24s-41.5 8 -54.5 24s-19.5 35.333 -19.5 58s6.5 41.834 19.5 57.501s31.167 23.5 54.5 23.5s41.5 -7.83301 54.5 -23.5s19.5 -34.834 19.5 -57.501z" />
    <glyph glyph-name="cent" unicode="&#xa2;" horiz-adv-x="977" 
d="M509 83c66 0 122.168 22.835 168.501 68.502s71.833 106.834 76.5 183.501h107c-4 -90 -34.167 -167.833 -90.5 -233.5s-126.833 -104.834 -211.5 -117.501v-229h-111v230c-104 16.667 -185 73.167 -243 169.5s-87 220.166 -87 371.499v36c0 148.667 29.5 271 88.5 367
s139.5 152 241.5 168v221h111v-220c87.333 -12 158.5 -52.333 213.5 -121s84.5 -155.334 88.5 -260.001h-107c-4 83.333 -28.5 151 -73.5 203s-102.5 78 -172.5 78c-88.667 0 -157.334 -38.5 -206.001 -115.5s-73 -187.167 -73 -330.5v-32
c0 -136.667 24.333 -243.667 73 -321s117.667 -116 207 -116z" />
    <glyph glyph-name="sterling" unicode="&#xa3;" horiz-adv-x="1026" 
d="M366 644l7.99902 -275.001c1.33301 -115.333 -17.334 -203 -56.001 -263h626v-106h-843v106h79c24.667 8 44.5 37.5 59.5 88.5s21.5 109.167 19.5 174.5l-8 275h-153v107h150l-7 288c0 133.333 31.5 239.5 94.5 318.5s147.167 118.5 252.5 118.5
c100.667 0 181.334 -34.5 242.001 -103.5s91 -163.833 91 -284.5h-114c0 90 -20.667 159.333 -62 208s-96.666 73 -165.999 73c-68.667 0 -123 -29.667 -163 -89s-60 -139.666 -60 -240.999l7 -288h286v-107h-283z" />
    <glyph glyph-name="currency" unicode="&#xa4;" horiz-adv-x="1481" 
d="M1131 133c-52 -48 -111.333 -85.5 -178 -112.5s-137.667 -40.5 -213 -40.5c-150.667 0 -281 50.667 -391 152l-155 -158l-85 88l158 160c-82 113.333 -123 242 -123 386c0 152 44 284 132 396l-167 171l85 89l167 -170c110 93.333 236.333 140 379 140
s269 -47.333 379 -142l170 173l86 -90l-170 -174c86 -114.667 129 -245.667 129 -393c0 -142.667 -40.333 -270 -121 -382l162 -164l-86 -89zM257 608c0 -92 21.333 -177.502 64 -256.502s101.667 -141.833 177 -188.5s156 -70 242 -70c85.333 0 165.5 23.167 240.5 69.5
s133.833 109.333 176.5 189s64 165.167 64 256.5c0 90.667 -21.5 175.834 -64.5 255.501s-101.833 142.334 -176.5 188.001s-154.667 68.5 -240 68.5c-86 0 -166.5 -23 -241.5 -69s-134 -108.5 -177 -187.5s-64.5 -164.167 -64.5 -255.5z" />
    <glyph glyph-name="yen" unicode="&#xa5;" horiz-adv-x="930" 
d="M465 748l297 708h128l-333 -749h257v-91h-295v-202h295v-90h-295v-324h-114v324h-292v90h292v202h-292v91h257l-331 749h129z" />
    <glyph glyph-name="brokenbar" unicode="&#xa6;" horiz-adv-x="444" 
d="M159 -270v772h120v-772h-120zM279 698h-120v758h120v-758z" />
    <glyph glyph-name="section" unicode="&#xa7;" horiz-adv-x="1083" 
d="M964 431c0 -66 -17.166 -122.17 -51.499 -168.503s-81.833 -80.833 -142.5 -103.5c50.667 -31.333 89.5 -70.5 116.5 -117.5s40.5 -106.833 40.5 -179.5c0 -109.333 -35.5 -196.166 -106.5 -260.499s-167.833 -96.5 -290.5 -96.5
c-132.667 0 -236.834 37.667 -312.501 113s-113.5 181.333 -113.5 318l111 2c0 -102.667 28.167 -183.167 84.5 -241.5s133.166 -87.5 230.499 -87.5c88 0 157.5 23.167 208.5 69.5s76.5 106.833 76.5 181.5c0 70.667 -21.667 126 -65 166s-124 79.667 -242 119
c-104.667 32 -183.834 65.5 -237.501 100.5s-94 77.167 -121 126.5s-40.5 109 -40.5 179c0 66.667 16.333 123.334 49 170.001s78.334 81.334 137.001 104.001c-48 32 -84.833 71 -110.5 117s-38.5 105 -38.5 177c0 108 36.5 194.5 109.5 259.5s169.5 97.5 289.5 97.5
c125.333 0 223.333 -37.5 294 -112.5s106 -181.167 106 -318.5h-111c0 99.333 -26.833 178.666 -80.5 237.999s-123.167 89 -208.5 89c-89.333 0 -159.5 -22.5 -210.5 -67.5s-76.5 -105.833 -76.5 -182.5c0 -74 19.833 -130.5 59.5 -169.5s122.834 -80.167 249.501 -123.5
c110 -34 191.167 -67.833 243.5 -101.5s91 -74.167 116 -121.5s37.5 -105.666 37.5 -174.999zM522.001 726.997c-45.333 13.333 -85.668 27.6631 -121.001 42.9961c-59.333 -10 -104.333 -34 -135 -72s-46 -86.333 -46 -145c0 -53.333 9 -95.666 27 -126.999
s48.833 -59.666 92.5 -84.999s113.834 -54.666 210.501 -87.999l106 -38c59.333 8.66699 107 32.334 143 71.001s54 86 54 142c0 70.667 -22.833 127 -68.5 169s-133.167 85.333 -262.5 130z" />
    <glyph glyph-name="dieresis" unicode="&#xa8;" horiz-adv-x="881" 
d="M137 1395c0 23.333 7.33301 42.833 22 58.5s34.667 23.5 60 23.5s45.5 -7.83301 60.5 -23.5s22.5 -35.167 22.5 -58.5c0 -22.667 -7.5 -41.667 -22.5 -57s-35.167 -23 -60.5 -23s-45.333 7.66699 -60 23s-22 34.333 -22 57zM575 1394c0 23.333 7.33301 42.833 22 58.5
s34.667 23.5 60 23.5s45.5 -7.83301 60.5 -23.5s22.5 -35.167 22.5 -58.5c0 -22.667 -7.5 -41.667 -22.5 -57s-35.167 -23 -60.5 -23s-45.333 7.66699 -60 23s-22 34.333 -22 57z" />
    <glyph glyph-name="copyright" unicode="&#xa9;" horiz-adv-x="1637" 
d="M1121 606c0 -101.333 -27.332 -179.001 -81.999 -233.001s-132 -81 -232 -81s-180.5 35.333 -241.5 106s-91.5 166.334 -91.5 287.001v92c0 116 30.667 209.5 92 280.5s141.666 106.5 240.999 106.5s176.666 -26.833 231.999 -80.5s83 -131.167 83 -232.5h-99
c0 147.333 -72 221 -216 221c-72 0 -129 -27.167 -171 -81.5s-63 -126.5 -63 -216.5v-95c0 -88 20.833 -159 62.5 -213s98.834 -81 171.501 -81c70 0 123.333 17.333 160 52s55 91 55 169h99zM192.001 728.999c0 -118 27.332 -228.168 81.999 -330.501
s131 -183.333 229 -243s202.667 -89.5 314 -89.5c108.667 0 211.334 28.833 308.001 86.5s173.5 137.834 230.5 240.501s85.5 214.667 85.5 336c0 118.667 -27.667 228.667 -83 330s-131.5 181.5 -228.5 240.5s-201.167 88.5 -312.5 88.5c-114 0 -219.667 -30 -317 -90
s-173 -140.5 -227 -241.5s-81 -210.167 -81 -327.5zM107 728.998c0 134.667 31.167 259.667 93.5 375s148.666 206.166 258.999 272.499s229.5 99.5 357.5 99.5s247 -33.167 357 -99.5s196.167 -157.166 258.5 -272.499s93.5 -240.333 93.5 -375
c0 -131.333 -30 -254.333 -90 -369s-145.167 -206.834 -255.5 -276.501s-231.5 -104.5 -363.5 -104.5c-131.333 0 -252.166 34.5 -362.499 103.5s-195.833 160.833 -256.5 275.5s-91 238.334 -91 371.001z" />
    <glyph glyph-name="ordfeminine" unicode="&#xaa;" horiz-adv-x="802" 
d="M560 705l-17 91.001c-18 -28 -42.5 -52.5 -73.5 -73.5s-67.833 -31.5 -110.5 -31.5c-67.333 0 -119 19.833 -155 59.5s-54 92.5 -54 158.5c0 73.333 23.333 130.166 70 170.499s116 60.5 208 60.5h112v61c0 118 -43 177 -129 177c-48 0 -85.833 -11.667 -113.5 -35
s-41.5 -59 -41.5 -107l-99 7c0 69.333 23.833 125.5 71.5 168.5s108.5 64.5 182.5 64.5c70 0 125.667 -23.833 167 -71.5s62 -116.167 62 -205.5v-315c0 -61.333 7.33301 -121 22 -179h-102zM379 788.001c26.667 0 55.5 9 86.5 27s55.833 42 74.5 72v170h-105
c-123.333 0 -185 -48 -185 -144c0 -83.333 43 -125 129 -125z" />
    <glyph glyph-name="guillemotleft" unicode="&#xab;" horiz-adv-x="828" 
d="M232 537l229 -389h-93l-248 380v19l248 379h93zM495 537l229 -389h-93l-248 380v19l248 379h93z" />
    <glyph glyph-name="logicalnot" unicode="&#xac;" horiz-adv-x="981" 
d="M810 385h-112v283h-574v109h686v-392z" />
    <glyph glyph-name="uni00AD" unicode="&#xad;" horiz-adv-x="529" 
d="M463 590h-404v103h404v-103z" />
    <glyph glyph-name="registered" unicode="&#xae;" horiz-adv-x="1642" 
d="M102 729c0 134.667 31.167 259.667 93.5 375s148.666 206.166 258.999 272.499s229.5 99.5 357.5 99.5s247.167 -33.167 357.5 -99.5s196.666 -157.166 258.999 -272.499s93.5 -240.333 93.5 -375c0 -132.667 -30.333 -256.334 -91 -371.001
s-146.167 -206.5 -256.5 -275.5s-231.166 -103.5 -362.499 -103.5s-252.166 34.5 -362.499 103.5s-195.833 160.833 -256.5 275.5s-91 238.334 -91 371.001zM812 66c111.333 0 215.5 29.5 312.5 88.5s173.167 139.667 228.5 242s83 213.166 83 332.499
c0 117.333 -27 226.5 -81 327.5s-129.5 181.5 -226.5 241.5s-202.5 90 -316.5 90c-112 0 -216.167 -29.167 -312.5 -87.5s-172.5 -138.166 -228.5 -239.499s-84 -212 -84 -332s28 -231.167 84 -333.5s132.5 -182.833 229.5 -241.5s200.833 -88 311.5 -88zM650 666v-344.999
h-98v839h258c98 0 173.333 -20.5 226 -61.5s79 -103.167 79 -186.5c0 -88 -46.667 -153.667 -140 -197c84.667 -30.667 127 -99.334 127 -206.001c0 -86 5.66699 -143.333 17 -172v-16h-102c-9.33301 24 -14 84.667 -14 182c0 59.333 -12.5 101.333 -37.5 126
s-67.5 37 -127.5 37h-188zM650 758.001l181 0.000976562c54 0 98.5 13.833 133.5 41.5s52.5 64.5 52.5 110.5c0 56 -14.5 96.167 -43.5 120.5s-78.833 37.166 -149.5 38.499h-174v-311z" />
    <glyph glyph-name="macron" unicode="&#xaf;" horiz-adv-x="784" 
d="M664 1342h-528v98h528v-98z" />
    <glyph glyph-name="degree" unicode="&#xb0;" horiz-adv-x="774" 
d="M143 1226c0 68.667 24.333 127.5 73 176.5s106 73.5 172 73.5s122.833 -24.5 170.5 -73.5s71.5 -107.833 71.5 -176.5s-23.5 -127 -70.5 -175s-104.167 -72 -171.5 -72s-125 24 -173 72s-72 106.333 -72 175zM233 1226c0 -43.333 14.667 -80 44 -110s66.333 -45 111 -45
c45.333 0 82 15.167 110 45.5s42 66.833 42 109.5c0 45.333 -14.333 83 -43 113s-65 45 -109 45c-43.333 0 -80 -15 -110 -45s-45 -67.667 -45 -113z" />
    <glyph glyph-name="plusminus" unicode="&#xb1;" horiz-adv-x="953" 
d="M538 830h324v-104h-324v-437h-102v437h-344v104h344v437h102v-437zM830 0h-702v103h702v-103z" />
    <glyph glyph-name="uni00B2" unicode="&#xb2;" horiz-adv-x="664" 
d="M583 665h-484.001v76l264 309c60.667 74.667 91 137 91 187c0 41.333 -11 74.666 -33 99.999s-54 38 -96 38c-46.667 0 -82.667 -14.5 -108 -43.5s-38 -67.833 -38 -116.5h-97c0 72.667 22.5 132.5 67.5 179.5s102.833 70.5 173.5 70.5s126.334 -20.5 167.001 -61.5
s61 -96.167 61 -165.5c0 -37.333 -9.5 -75.666 -28.5 -114.999s-53.833 -88.333 -104.5 -147l-197 -222h362v-89z" />
    <glyph glyph-name="uni00B3" unicode="&#xb3;" horiz-adv-x="664" 
d="M244 1107l69.001 -0.00195312c45.333 0.666992 81 13.334 107 38.001s39 56.667 39 96c0 42 -12 74.833 -36 98.5s-57 35.5 -99 35.5c-40.667 0 -73.834 -12 -99.501 -36s-38.5 -55.333 -38.5 -94h-97c0 62.667 21.833 115 65.5 157s99.834 63 168.501 63
c73.333 0 130.5 -20.167 171.5 -60.5s61.5 -94.166 61.5 -161.499c0 -38 -10.5 -72.667 -31.5 -104s-51.167 -55 -90.5 -71c90 -28 135 -90.667 135 -188c0 -68.667 -22.5 -123.5 -67.5 -164.5s-104.167 -61.5 -177.5 -61.5c-72.667 0 -131.834 21.167 -177.501 63.5
s-68.5 97.833 -68.5 166.5h98c0 -41.333 14 -75.333 42 -102s64.333 -40 109 -40c46.667 0 82.667 12.667 108 38s38 60 38 104c0 94 -55 141 -165 141h-64v82z" />
    <glyph glyph-name="acute" unicode="&#xb4;" horiz-adv-x="576" 
d="M315 1536h145l-231 -281h-105z" />
    <glyph glyph-name="uni00B5" unicode="&#xb5;" horiz-adv-x="1001" 
d="M265 1082l-0.000976562 -655.001c2 -112 19.833 -197.333 53.5 -256s87.167 -88 160.5 -88c68 0 123.167 17.333 165.5 52s72.5 89.334 90.5 164.001v783h112v-1082h-101l-7 145c-53.333 -110 -137.666 -165 -252.999 -165c-99.333 0 -173 40.333 -221 121v-517h-110
v1498h110z" />
    <glyph glyph-name="paragraph" unicode="&#xb6;" horiz-adv-x="862" 
d="M586 0v519.998h-92c-83.333 0.666992 -155.666 20.334 -216.999 59.001s-108.333 93.334 -141 164.001s-49 152.334 -49 245.001c0 139.333 36.167 251.666 108.5 336.999s171.166 129 296.499 131h206v-1456h-112z" />
    <glyph glyph-name="periodcentered" unicode="&#xb7;" horiz-adv-x="467" 
d="M154 717c0 24 6.66699 44.167 20 60.5s32 24.5 56 24.5s42.833 -8.16699 56.5 -24.5s20.5 -36.5 20.5 -60.5c0 -23.333 -6.83301 -42.833 -20.5 -58.5s-32.5 -23.5 -56.5 -23.5s-42.667 7.83301 -56 23.5s-20 35.167 -20 58.5z" />
    <glyph glyph-name="cedilla" unicode="&#xb8;" horiz-adv-x="460" 
d="M233 0l-10 -64c90.667 -14.667 136 -71.667 136 -171c0 -60.667 -22 -109.167 -66 -145.5s-104.667 -54.5 -182 -54.5l-6 79c47.333 0 86.5 10.333 117.5 31s46.5 50 46.5 88c0 34 -9.83301 59.167 -29.5 75.5s-58.5 27.5 -116.5 33.5l25 128h85z" />
    <glyph glyph-name="uni00B9" unicode="&#xb9;" horiz-adv-x="664" 
d="M415 665h-98v660l-192 -69v92l277 107h13v-790z" />
    <glyph glyph-name="ordmasculine" unicode="&#xba;" horiz-adv-x="816" 
d="M131 1132c0 102.667 25.333 185.669 76 249.002s117 95 199 95c83.333 0 150 -31.833 200 -95.5s75 -147.834 75 -252.501v-95c0 -102.667 -25.167 -185.5 -75.5 -248.5s-116.5 -94.5 -198.5 -94.5s-148.5 31.167 -199.5 93.5s-76.5 147.166 -76.5 254.499v94zM231 1033
c0 -76.667 15.5 -136.835 46.5 -180.502s74.167 -65.5 129.5 -65.5c52.667 0 94.667 21.333 126 64s47.333 102.334 48 179.001v102c0 74.667 -15.667 134.334 -47 179.001s-74 67 -128 67s-96.667 -22.333 -128 -67s-47 -106 -47 -184v-94z" />
    <glyph glyph-name="guillemotright" unicode="&#xbb;" horiz-adv-x="824" 
d="M209 944l248 -384v-19l-248 -380h-95l229 389l-229 394h95zM482 944l248 -384v-19l-248 -380h-95l229 389l-229 394h95z" />
    <glyph glyph-name="onequarter" unicode="&#xbc;" horiz-adv-x="1289" 
d="M402 664h-98v660l-192 -69v92l277 107h13v-790zM372 128l-66 49l597 1138l67 -49zM1096 276h104v-90h-104v-186h-96v186h-332l-3 68l330 535h101v-513zM767 276h233v376l-24 -45z" />
    <glyph glyph-name="onehalf" unicode="&#xbd;" horiz-adv-x="1347" 
d="M335 128l-66 49l597 1138l67 -49zM391 664h-98v660l-192 -69v92l277 107h13v-790zM1233 0h-484.001v76l264 309c60.667 74.667 91 137 91 187c0 41.333 -11 74.666 -33 99.999s-54 38 -96 38c-46.667 0 -82.667 -14.5 -108 -43.5s-38 -67.833 -38 -116.5h-97
c0 72.667 22.5 132.5 67.5 179.5s102.833 70.5 173.5 70.5s126.334 -20.5 167.001 -61.5s61 -96.167 61 -165.5c0 -37.333 -9.5 -75.666 -28.5 -114.999s-53.833 -88.333 -104.5 -147l-197 -222h362v-89z" />
    <glyph glyph-name="threequarters" unicode="&#xbe;" horiz-adv-x="1376" 
d="M490 128l-66 49l597 1138l67 -49zM1188 276h104v-90h-104v-186h-96v186h-332l-3 68l330 535h101v-513zM859 276h233v376l-24 -45zM284 1107l69.001 -0.00195312c45.333 0.666992 81 13.334 107 38.001s39 56.667 39 96c0 42 -12 74.833 -36 98.5s-57 35.5 -99 35.5
c-40.667 0 -73.834 -12 -99.501 -36s-38.5 -55.333 -38.5 -94h-97c0 62.667 21.833 115 65.5 157s99.834 63 168.501 63c73.333 0 130.5 -20.167 171.5 -60.5s61.5 -94.166 61.5 -161.499c0 -38 -10.5 -72.667 -31.5 -104s-51.167 -55 -90.5 -71
c90 -28 135 -90.667 135 -188c0 -68.667 -22.5 -123.5 -67.5 -164.5s-104.167 -61.5 -177.5 -61.5c-72.667 0 -131.834 21.167 -177.501 63.5s-68.5 97.833 -68.5 166.5h98c0 -41.333 14 -75.333 42 -102s64.333 -40 109 -40c46.667 0 82.667 12.667 108 38s38 60 38 104
c0 94 -55 141 -165 141h-64v82z" />
    <glyph glyph-name="questiondown" unicode="&#xbf;" horiz-adv-x="834" 
d="M489 687c-1.33301 -84 -9.83398 -145.999 -25.501 -185.999s-49 -90.167 -100 -150.5s-86 -106.666 -105 -138.999s-33.333 -66 -43 -101s-14.5 -74.5 -14.5 -118.5c0 -85.333 18.333 -151 55 -197s89.667 -69 159 -69c64 0 115.833 23.333 155.5 70s59.5 108 59.5 184
h111c-1.33301 -112.667 -31.833 -201.334 -91.5 -266.001s-137.834 -97 -234.501 -97c-101.333 0 -180.666 33.333 -237.999 100s-86 157.667 -86 273c0 74 15.167 145.167 45.5 213.5s84.5 146.166 162.5 233.499c28.667 30 48.834 62.167 60.501 96.5
s17.5 85.5 17.5 153.5h112zM500.999 1021c0 -23.333 -6.33301 -42.833 -19 -58.5s-30.667 -23.5 -54 -23.5s-41.5 7.83301 -54.5 23.5s-19.5 35.167 -19.5 58.5c0 22.667 6.5 41.667 19.5 57s31.167 23 54.5 23s41.333 -7.66699 54 -23s19 -34.333 19 -57z" />
    <glyph glyph-name="Agrave" unicode="&#xc0;" 
d="M834 407h-546l-124 -407h-119l464 1456h106l464 -1456h-119zM321 514h480l-240 781zM638 1570h-109l-226 281h144z" />
    <glyph glyph-name="Aacute" unicode="&#xc1;" 
d="M834 407h-546l-124 -407h-119l464 1456h106l464 -1456h-119zM321 514h480l-240 781zM684 1851h145l-231 -281h-105z" />
    <glyph glyph-name="Acircumflex" unicode="&#xc2;" 
d="M834 407h-546l-124 -407h-119l464 1456h106l464 -1456h-119zM321 514h480l-240 781zM802 1583v-10h-100l-138 182l-138 -182h-98v12l201 256h69z" />
    <glyph glyph-name="Atilde" unicode="&#xc3;" 
d="M834 407h-546l-124 -407h-119l464 1456h106l464 -1456h-119zM321 514h480l-240 781zM852 1810c0 -63.333 -16.001 -115 -48.001 -155s-71.333 -60 -118 -60c-29.333 0 -53.5 5.66699 -72.5 17s-36.333 24 -52 38s-31.667 26.667 -48 38s-36.5 17 -60.5 17
c-25.333 0 -46.666 -10.5 -63.999 -31.5s-26 -49.833 -26 -86.5l-81 3c0 63.333 15.833 114.833 47.5 154.5s71.167 59.5 118.5 59.5c20.667 0 39 -3.5 55 -10.5s39.167 -22.5 69.5 -46.5s52 -38.667 65 -44s27.5 -8 43.5 -8c25.333 0 46.833 11 64.5 33
s26.5 51.333 26.5 88z" />
    <glyph glyph-name="Adieresis" unicode="&#xc4;" 
d="M834 407h-546l-124 -407h-119l464 1456h106l464 -1456h-119zM321 514h480l-240 781zM265 1710c0 23.333 7.33301 42.833 22 58.5s34.667 23.5 60 23.5s45.5 -7.83301 60.5 -23.5s22.5 -35.167 22.5 -58.5c0 -22.667 -7.5 -41.667 -22.5 -57s-35.167 -23 -60.5 -23
s-45.333 7.66699 -60 23s-22 34.333 -22 57zM703 1709c0 23.333 7.33301 42.833 22 58.5s34.667 23.5 60 23.5s45.5 -7.83301 60.5 -23.5s22.5 -35.167 22.5 -58.5c0 -22.667 -7.5 -41.667 -22.5 -57s-35.167 -23 -60.5 -23s-45.333 7.66699 -60 23s-22 34.333 -22 57z" />
    <glyph glyph-name="Aring" unicode="&#xc5;" 
d="M834 407h-546l-124 -407h-119l464 1456h106l464 -1456h-119zM321 514h480l-240 781zM372 1716c0 53.333 18.667 98.666 56 135.999s83 56 137 56s99.667 -18.667 137 -56s56 -82.666 56 -135.999c0 -52.667 -18.333 -97 -55 -133s-82.667 -54 -138 -54
s-101.333 18 -138 54s-55 80.333 -55 133zM449 1716c0 -32.667 11.001 -60 33.001 -82s49.667 -33 83 -33c32 0 59.5 10.833 82.5 32.5s34.5 49.167 34.5 82.5c0 35.333 -11.333 64 -34 86s-50.334 33 -83.001 33c-34 0 -61.833 -11.333 -83.5 -34s-32.5 -51 -32.5 -85z" />
    <glyph glyph-name="AE" unicode="&#xc6;" horiz-adv-x="1614" 
d="M1560 0h-697l-14 388h-493l-191 -388h-136l740 1456h740v-104h-583l19 -542h495v-104h-491l21 -603h590v-103zM412 503h433l-29 821z" />
    <glyph glyph-name="Ccedilla" unicode="&#xc7;" horiz-adv-x="1158" 
d="M1045 454c-10.667 -163.333 -54.666 -283.167 -131.999 -359.5s-184.333 -114.5 -321 -114.5c-140.667 0 -251.667 53.167 -333 159.5s-122.333 250.833 -123 433.5v316c0 183.333 41.5 327 124.5 431s196.5 156 340.5 156c136 0 241.333 -39 316 -117
s117.334 -197.667 128.001 -359h-116c-10.667 132 -41.834 226.333 -93.501 283s-129.834 85 -234.501 85c-110 0 -195.667 -41 -257 -123s-92 -201 -92 -357v-312c0 -154.667 29.667 -275 89 -361s143 -129 251 -129c113.333 0 195.333 28.333 246 85s81 151 91 283h116z
M636.001 -9.00098l-10 -64c90.667 -14.667 136 -71.667 136 -171c0 -60.667 -22 -109.167 -66 -145.5s-104.667 -54.5 -182 -54.5l-6 79c47.333 0 86.5 10.333 117.5 31s46.5 50 46.5 88c0 34 -9.83301 59.167 -29.5 75.5s-58.5 27.5 -116.5 33.5l25 128h85z" />
    <glyph glyph-name="Egrave" unicode="&#xc8;" horiz-adv-x="1018" 
d="M851 697h-565v-591h650v-106h-764v1456h759v-108h-645v-545h565v-106zM614 1576h-109l-226 281h144z" />
    <glyph glyph-name="Eacute" unicode="&#xc9;" horiz-adv-x="1018" 
d="M851 697h-565v-591h650v-106h-764v1456h759v-108h-645v-545h565v-106zM660 1857h145l-231 -281h-105z" />
    <glyph glyph-name="Ecircumflex" unicode="&#xca;" horiz-adv-x="1018" 
d="M851 697h-565v-591h650v-106h-764v1456h759v-108h-645v-545h565v-106zM778 1589v-10h-100l-138 182l-138 -182h-98v12l201 256h69z" />
    <glyph glyph-name="Edieresis" unicode="&#xcb;" horiz-adv-x="1018" 
d="M851 697h-565v-591h650v-106h-764v1456h759v-108h-645v-545h565v-106zM241 1716c0 23.333 7.33301 42.833 22 58.5s34.667 23.5 60 23.5s45.5 -7.83301 60.5 -23.5s22.5 -35.167 22.5 -58.5c0 -22.667 -7.5 -41.667 -22.5 -57s-35.167 -23 -60.5 -23
s-45.333 7.66699 -60 23s-22 34.333 -22 57zM679 1715c0 23.333 7.33301 42.833 22 58.5s34.667 23.5 60 23.5s45.5 -7.83301 60.5 -23.5s22.5 -35.167 22.5 -58.5c0 -22.667 -7.5 -41.667 -22.5 -57s-35.167 -23 -60.5 -23s-45.333 7.66699 -60 23s-22 34.333 -22 57z" />
    <glyph glyph-name="Igrave" unicode="&#xcc;" horiz-adv-x="500" 
d="M307 0h-114v1456h114v-1456zM325 1576h-109l-226 281h144z" />
    <glyph glyph-name="Iacute" unicode="&#xcd;" horiz-adv-x="500" 
d="M307 0h-114v1456h114v-1456zM370 1857h145l-231 -281h-105z" />
    <glyph glyph-name="Icircumflex" unicode="&#xce;" horiz-adv-x="500" 
d="M307 0h-114v1456h114v-1456zM489 1589v-10h-100l-138 182l-138 -182h-98v12l201 256h69z" />
    <glyph glyph-name="Idieresis" unicode="&#xcf;" horiz-adv-x="500" 
d="M307 0h-114v1456h114v-1456zM-48 1716c0 23.333 7.33301 42.833 22 58.5s34.667 23.5 60 23.5s45.5 -7.83301 60.5 -23.5s22.5 -35.167 22.5 -58.5c0 -22.667 -7.5 -41.667 -22.5 -57s-35.167 -23 -60.5 -23s-45.333 7.66699 -60 23s-22 34.333 -22 57zM390 1715
c0 23.333 7.33301 42.833 22 58.5s34.667 23.5 60 23.5s45.5 -7.83301 60.5 -23.5s22.5 -35.167 22.5 -58.5c0 -22.667 -7.5 -41.667 -22.5 -57s-35.167 -23 -60.5 -23s-45.333 7.66699 -60 23s-22 34.333 -22 57z" />
    <glyph glyph-name="Eth" unicode="&#xd0;" horiz-adv-x="1197" 
d="M202 0v689.001h-158v104h158v663h343c158 0 283 -50.5 375 -151.5s139.333 -240.167 142 -417.5v-305c0 -182.667 -46.5 -325.334 -139.5 -428.001s-223.5 -154 -391.5 -154h-329zM562 689.001l-245.999 0.000976562v-583h219c131.333 0 232.666 40.167 303.999 120.5
s108 195.166 110 344.499v305c0 149.333 -34.833 265.333 -104.5 348s-170.5 124 -302.5 124h-226v-555h246v-104z" />
    <glyph glyph-name="Ntilde" unicode="&#xd1;" horiz-adv-x="1262" 
d="M1088 0h-114l-687 1240v-1240h-115v1456h115l688 -1242v1242h113v-1456zM918 1810c0 -63.333 -16.001 -115 -48.001 -155s-71.333 -60 -118 -60c-29.333 0 -53.5 5.66699 -72.5 17s-36.333 24 -52 38s-31.667 26.667 -48 38s-36.5 17 -60.5 17
c-25.333 0 -46.666 -10.5 -63.999 -31.5s-26 -49.833 -26 -86.5l-81 3c0 63.333 15.833 114.833 47.5 154.5s71.167 59.5 118.5 59.5c20.667 0 39 -3.5 55 -10.5s39.167 -22.5 69.5 -46.5s52 -38.667 65 -44s27.5 -8 43.5 -8c25.333 0 46.833 11 64.5 33
s26.5 51.333 26.5 88z" />
    <glyph glyph-name="Ograve" unicode="&#xd2;" horiz-adv-x="1208" 
d="M1075 570c0 -188 -41.165 -333.333 -123.498 -436s-197.833 -154 -346.5 -154c-147.333 0 -262.833 51.333 -346.5 154s-125.834 247 -126.501 433v317c0 187.333 41.667 332.833 125 436.5s198.666 155.5 345.999 155.5c149.333 0 265.333 -52 348 -156
s124 -250.333 124 -439v-311zM960.002 886c0 159.333 -30.668 279 -92.001 359s-149.666 120 -264.999 120c-111.333 0 -198.333 -39.167 -261 -117.5s-94.667 -195.5 -96 -351.5v-326c0 -160 31.667 -280.167 95 -360.5s151.333 -120.5 264 -120.5
c116 0 204.167 40 264.5 120s90.5 200.333 90.5 361v316zM677.001 1581h-109l-226 281h144z" />
    <glyph glyph-name="Oacute" unicode="&#xd3;" horiz-adv-x="1208" 
d="M1075 570c0 -188 -41.165 -333.333 -123.498 -436s-197.833 -154 -346.5 -154c-147.333 0 -262.833 51.333 -346.5 154s-125.834 247 -126.501 433v317c0 187.333 41.667 332.833 125 436.5s198.666 155.5 345.999 155.5c149.333 0 265.333 -52 348 -156
s124 -250.333 124 -439v-311zM960.002 886c0 159.333 -30.668 279 -92.001 359s-149.666 120 -264.999 120c-111.333 0 -198.333 -39.167 -261 -117.5s-94.667 -195.5 -96 -351.5v-326c0 -160 31.667 -280.167 95 -360.5s151.333 -120.5 264 -120.5
c116 0 204.167 40 264.5 120s90.5 200.333 90.5 361v316zM723.001 1862h145l-231 -281h-105z" />
    <glyph glyph-name="Ocircumflex" unicode="&#xd4;" horiz-adv-x="1208" 
d="M1075 570c0 -188 -41.165 -333.333 -123.498 -436s-197.833 -154 -346.5 -154c-147.333 0 -262.833 51.333 -346.5 154s-125.834 247 -126.501 433v317c0 187.333 41.667 332.833 125 436.5s198.666 155.5 345.999 155.5c149.333 0 265.333 -52 348 -156
s124 -250.333 124 -439v-311zM960.002 886c0 159.333 -30.668 279 -92.001 359s-149.666 120 -264.999 120c-111.333 0 -198.333 -39.167 -261 -117.5s-94.667 -195.5 -96 -351.5v-326c0 -160 31.667 -280.167 95 -360.5s151.333 -120.5 264 -120.5
c116 0 204.167 40 264.5 120s90.5 200.333 90.5 361v316zM841.001 1594v-10h-100l-138 182l-138 -182h-98v12l201 256h69z" />
    <glyph glyph-name="Otilde" unicode="&#xd5;" horiz-adv-x="1208" 
d="M1075 570c0 -188 -41.165 -333.333 -123.498 -436s-197.833 -154 -346.5 -154c-147.333 0 -262.833 51.333 -346.5 154s-125.834 247 -126.501 433v317c0 187.333 41.667 332.833 125 436.5s198.666 155.5 345.999 155.5c149.333 0 265.333 -52 348 -156
s124 -250.333 124 -439v-311zM960.002 886c0 159.333 -30.668 279 -92.001 359s-149.666 120 -264.999 120c-111.333 0 -198.333 -39.167 -261 -117.5s-94.667 -195.5 -96 -351.5v-326c0 -160 31.667 -280.167 95 -360.5s151.333 -120.5 264 -120.5
c116 0 204.167 40 264.5 120s90.5 200.333 90.5 361v316zM891.001 1821c0 -63.333 -16.001 -115 -48.001 -155s-71.333 -60 -118 -60c-29.333 0 -53.5 5.66699 -72.5 17s-36.333 24 -52 38s-31.667 26.667 -48 38s-36.5 17 -60.5 17c-25.333 0 -46.666 -10.5 -63.999 -31.5
s-26 -49.833 -26 -86.5l-81 3c0 63.333 15.833 114.833 47.5 154.5s71.167 59.5 118.5 59.5c20.667 0 39 -3.5 55 -10.5s39.167 -22.5 69.5 -46.5s52 -38.667 65 -44s27.5 -8 43.5 -8c25.333 0 46.833 11 64.5 33s26.5 51.333 26.5 88z" />
    <glyph glyph-name="Odieresis" unicode="&#xd6;" horiz-adv-x="1208" 
d="M1075 570c0 -188 -41.165 -333.333 -123.498 -436s-197.833 -154 -346.5 -154c-147.333 0 -262.833 51.333 -346.5 154s-125.834 247 -126.501 433v317c0 187.333 41.667 332.833 125 436.5s198.666 155.5 345.999 155.5c149.333 0 265.333 -52 348 -156
s124 -250.333 124 -439v-311zM960.002 886c0 159.333 -30.668 279 -92.001 359s-149.666 120 -264.999 120c-111.333 0 -198.333 -39.167 -261 -117.5s-94.667 -195.5 -96 -351.5v-326c0 -160 31.667 -280.167 95 -360.5s151.333 -120.5 264 -120.5
c116 0 204.167 40 264.5 120s90.5 200.333 90.5 361v316zM304.001 1721c0 23.333 7.33301 42.833 22 58.5s34.667 23.5 60 23.5s45.5 -7.83301 60.5 -23.5s22.5 -35.167 22.5 -58.5c0 -22.667 -7.5 -41.667 -22.5 -57s-35.167 -23 -60.5 -23s-45.333 7.66699 -60 23
s-22 34.333 -22 57zM742.001 1720c0 23.333 7.33301 42.833 22 58.5s34.667 23.5 60 23.5s45.5 -7.83301 60.5 -23.5s22.5 -35.167 22.5 -58.5c0 -22.667 -7.5 -41.667 -22.5 -57s-35.167 -23 -60.5 -23s-45.333 7.66699 -60 23s-22 34.333 -22 57z" />
    <glyph glyph-name="multiply" unicode="&#xd7;" horiz-adv-x="944" 
d="M97 185l299 363l-288 350l73 82l285 -347l286 347l72 -82l-288 -350l299 -363l-73 -81l-296 359l-296 -359z" />
    <glyph glyph-name="Oslash" unicode="&#xd8;" horiz-adv-x="1208" 
d="M1083 650c0 -133.333 -19.5 -250.833 -58.5 -352.5s-94.833 -180 -167.5 -235s-156.667 -82.5 -252 -82.5c-102 0 -191 31.333 -267 94l-83 -158h-93l116 219c-102.667 124 -154 298 -154 522v147c0 132.667 19.667 250 59 352s95.5 180.833 168.5 236.5
s156.833 83.5 251.5 83.5c123.333 0 227.333 -45.667 312 -137l88 166h93l-126 -238c73.333 -118.667 111 -268.667 113 -450v-167zM238 650c0 -172.667 32.333 -308.333 97 -407l524 990c-64.667 88 -150 132 -256 132c-112.667 0 -201.667 -50.333 -267 -151
s-98 -238.667 -98 -414v-150zM969 806.001c0 133.333 -20.666 247.667 -61.999 343l-516 -975c59.333 -56.667 130.666 -85 213.999 -85c114 0 203.167 50 267.5 150s96.5 238.667 96.5 416v151z" />
    <glyph glyph-name="Ugrave" unicode="&#xd9;" horiz-adv-x="1168" 
d="M1018 1456v-1033c-0.666992 -140.667 -38.5 -249.667 -113.5 -327s-181.5 -116 -319.5 -116c-140 0 -247.167 38.167 -321.5 114.5s-111.5 187.166 -111.5 332.499v1029h114v-1025c0 -230 106.333 -345 319 -345c209.333 0 315.333 111.667 318 335v1035h115zM664 1570
h-109l-226 281h144z" />
    <glyph glyph-name="Uacute" unicode="&#xda;" horiz-adv-x="1168" 
d="M1018 1456v-1033c-0.666992 -140.667 -38.5 -249.667 -113.5 -327s-181.5 -116 -319.5 -116c-140 0 -247.167 38.167 -321.5 114.5s-111.5 187.166 -111.5 332.499v1029h114v-1025c0 -230 106.333 -345 319 -345c209.333 0 315.333 111.667 318 335v1035h115zM710 1851
h145l-231 -281h-105z" />
    <glyph glyph-name="Ucircumflex" unicode="&#xdb;" horiz-adv-x="1168" 
d="M1018 1456v-1033c-0.666992 -140.667 -38.5 -249.667 -113.5 -327s-181.5 -116 -319.5 -116c-140 0 -247.167 38.167 -321.5 114.5s-111.5 187.166 -111.5 332.499v1029h114v-1025c0 -230 106.333 -345 319 -345c209.333 0 315.333 111.667 318 335v1035h115zM828 1583
v-10h-100l-138 182l-138 -182h-98v12l201 256h69z" />
    <glyph glyph-name="Udieresis" unicode="&#xdc;" horiz-adv-x="1168" 
d="M1018 1456v-1033c-0.666992 -140.667 -38.5 -249.667 -113.5 -327s-181.5 -116 -319.5 -116c-140 0 -247.167 38.167 -321.5 114.5s-111.5 187.166 -111.5 332.499v1029h114v-1025c0 -230 106.333 -345 319 -345c209.333 0 315.333 111.667 318 335v1035h115zM291 1710
c0 23.333 7.33301 42.833 22 58.5s34.667 23.5 60 23.5s45.5 -7.83301 60.5 -23.5s22.5 -35.167 22.5 -58.5c0 -22.667 -7.5 -41.667 -22.5 -57s-35.167 -23 -60.5 -23s-45.333 7.66699 -60 23s-22 34.333 -22 57zM729 1709c0 23.333 7.33301 42.833 22 58.5
s34.667 23.5 60 23.5s45.5 -7.83301 60.5 -23.5s22.5 -35.167 22.5 -58.5c0 -22.667 -7.5 -41.667 -22.5 -57s-35.167 -23 -60.5 -23s-45.333 7.66699 -60 23s-22 34.333 -22 57z" />
    <glyph glyph-name="Yacute" unicode="&#xdd;" horiz-adv-x="1070" 
d="M534 664l363 792h131l-438 -908v-548h-114v548l-437 908h134zM655 1845h145l-231 -281h-105z" />
    <glyph glyph-name="Thorn" unicode="&#xde;" horiz-adv-x="1059" 
d="M282 1456v-303h267c120.667 -0.666992 216.667 -38.5 288 -113.5s107 -175.5 107 -301.5c0 -125.333 -35.5 -225.833 -106.5 -301.5s-168.833 -113.5 -293.5 -113.5h-262v-323h-111v1456h111zM282 1049v-621.998h265c88 0 157.667 28.667 209 86s77 131.666 77 222.999
c0 93.333 -25.333 168.666 -76 225.999s-119.667 86.333 -207 87h-268z" />
    <glyph glyph-name="germandbls" unicode="&#xdf;" horiz-adv-x="1051" 
d="M256 0l-111 0.000976562v1127c0 132.667 27.167 235.334 81.5 308.001s129.833 109 226.5 109c87.333 0 158.166 -27.833 212.499 -83.5s81.5 -130.5 81.5 -224.5c0 -40 -3.83301 -76 -11.5 -108s-21.667 -69.667 -42 -113s-33.833 -78 -40.5 -104s-10 -55 -10 -87
c0 -37.333 11.667 -73.5 35 -108.5s61.5 -76 114.5 -123s91.833 -93.333 116.5 -139s37 -94.5 37 -146.5c0 -98 -29.5 -177 -88.5 -237s-135.167 -90 -228.5 -90c-47.333 0 -96.666 8.16699 -147.999 24.5s-87.333 34.833 -108 55.5l30 103
c21.333 -20 52.833 -38.5 94.5 -55.5s81.167 -25.5 118.5 -25.5c66 0 119 21 159 63s60 95.667 60 161c0 40 -11.667 78.167 -35 114.5s-61.166 77.666 -113.499 123.999s-91.166 91.833 -116.499 136.5s-38 93 -38 145c0 44.667 5.66699 83.334 17 116.001
s23.666 63.167 36.999 91.5s25.666 57.666 36.999 87.999s17 66.166 17 107.499c0 60.667 -16.833 111.167 -50.5 151.5s-76.167 60.5 -127.5 60.5c-135.333 0 -204 -102 -206 -306v-1135z" />
    <glyph glyph-name="agrave" unicode="&#xe0;" horiz-adv-x="964" 
d="M720 0c-10 34.667 -16.6689 84.667 -20.002 150c-33.333 -54 -76.166 -95.833 -128.499 -125.5s-109.166 -44.5 -170.499 -44.5c-93.333 0 -166 26.333 -218 79s-78 127.667 -78 225c0 106 36.167 190 108.5 252s172.166 93.333 299.499 94h186v151
c0 77.333 -19.167 132.833 -57.5 166.5s-94.5 50.5 -168.5 50.5c-68.667 0 -125 -20 -169 -60s-66 -91.667 -66 -155l-111 1c0 88.667 33.333 163.834 100 225.501s150.334 92.5 251.001 92.5c108.667 0 191 -27.333 247 -82s84 -134.334 84 -239.001v-531
c0 -106 9.66699 -185.333 29 -238v-12h-118zM414.998 87c65.333 0 123.167 17 173.5 51s87.166 79.333 110.499 136v263h-176c-101.333 -1.33301 -177.666 -23.833 -228.999 -67.5s-77 -102.5 -77 -176.5c0 -137.333 66 -206 198 -206zM580.999 1255h-109l-226 281h144z" />
    <glyph glyph-name="aacute" unicode="&#xe1;" horiz-adv-x="964" 
d="M720 0c-10 34.667 -16.6689 84.667 -20.002 150c-33.333 -54 -76.166 -95.833 -128.499 -125.5s-109.166 -44.5 -170.499 -44.5c-93.333 0 -166 26.333 -218 79s-78 127.667 -78 225c0 106 36.167 190 108.5 252s172.166 93.333 299.499 94h186v151
c0 77.333 -19.167 132.833 -57.5 166.5s-94.5 50.5 -168.5 50.5c-68.667 0 -125 -20 -169 -60s-66 -91.667 -66 -155l-111 1c0 88.667 33.333 163.834 100 225.501s150.334 92.5 251.001 92.5c108.667 0 191 -27.333 247 -82s84 -134.334 84 -239.001v-531
c0 -106 9.66699 -185.333 29 -238v-12h-118zM414.998 87c65.333 0 123.167 17 173.5 51s87.166 79.333 110.499 136v263h-176c-101.333 -1.33301 -177.666 -23.833 -228.999 -67.5s-77 -102.5 -77 -176.5c0 -137.333 66 -206 198 -206zM626.999 1536h145l-231 -281h-105z
" />
    <glyph glyph-name="acircumflex" unicode="&#xe2;" horiz-adv-x="964" 
d="M720 0c-10 34.667 -16.6689 84.667 -20.002 150c-33.333 -54 -76.166 -95.833 -128.499 -125.5s-109.166 -44.5 -170.499 -44.5c-93.333 0 -166 26.333 -218 79s-78 127.667 -78 225c0 106 36.167 190 108.5 252s172.166 93.333 299.499 94h186v151
c0 77.333 -19.167 132.833 -57.5 166.5s-94.5 50.5 -168.5 50.5c-68.667 0 -125 -20 -169 -60s-66 -91.667 -66 -155l-111 1c0 88.667 33.333 163.834 100 225.501s150.334 92.5 251.001 92.5c108.667 0 191 -27.333 247 -82s84 -134.334 84 -239.001v-531
c0 -106 9.66699 -185.333 29 -238v-12h-118zM414.998 87c65.333 0 123.167 17 173.5 51s87.166 79.333 110.499 136v263h-176c-101.333 -1.33301 -177.666 -23.833 -228.999 -67.5s-77 -102.5 -77 -176.5c0 -137.333 66 -206 198 -206zM744.999 1268v-10h-100l-138 182
l-138 -182h-98v12l201 256h69z" />
    <glyph glyph-name="atilde" unicode="&#xe3;" horiz-adv-x="964" 
d="M720 0c-10 34.667 -16.6689 84.667 -20.002 150c-33.333 -54 -76.166 -95.833 -128.499 -125.5s-109.166 -44.5 -170.499 -44.5c-93.333 0 -166 26.333 -218 79s-78 127.667 -78 225c0 106 36.167 190 108.5 252s172.166 93.333 299.499 94h186v151
c0 77.333 -19.167 132.833 -57.5 166.5s-94.5 50.5 -168.5 50.5c-68.667 0 -125 -20 -169 -60s-66 -91.667 -66 -155l-111 1c0 88.667 33.333 163.834 100 225.501s150.334 92.5 251.001 92.5c108.667 0 191 -27.333 247 -82s84 -134.334 84 -239.001v-531
c0 -106 9.66699 -185.333 29 -238v-12h-118zM414.998 87c65.333 0 123.167 17 173.5 51s87.166 79.333 110.499 136v263h-176c-101.333 -1.33301 -177.666 -23.833 -228.999 -67.5s-77 -102.5 -77 -176.5c0 -137.333 66 -206 198 -206zM794.999 1495
c0 -63.333 -16.001 -115 -48.001 -155s-71.333 -60 -118 -60c-29.333 0 -53.5 5.66699 -72.5 17s-36.333 24 -52 38s-31.667 26.667 -48 38s-36.5 17 -60.5 17c-25.333 0 -46.666 -10.5 -63.999 -31.5s-26 -49.833 -26 -86.5l-81 3c0 63.333 15.833 114.833 47.5 154.5
s71.167 59.5 118.5 59.5c20.667 0 39 -3.5 55 -10.5s39.167 -22.5 69.5 -46.5s52 -38.667 65 -44s27.5 -8 43.5 -8c25.333 0 46.833 11 64.5 33s26.5 51.333 26.5 88z" />
    <glyph glyph-name="adieresis" unicode="&#xe4;" horiz-adv-x="964" 
d="M720 0c-10 34.667 -16.6689 84.667 -20.002 150c-33.333 -54 -76.166 -95.833 -128.499 -125.5s-109.166 -44.5 -170.499 -44.5c-93.333 0 -166 26.333 -218 79s-78 127.667 -78 225c0 106 36.167 190 108.5 252s172.166 93.333 299.499 94h186v151
c0 77.333 -19.167 132.833 -57.5 166.5s-94.5 50.5 -168.5 50.5c-68.667 0 -125 -20 -169 -60s-66 -91.667 -66 -155l-111 1c0 88.667 33.333 163.834 100 225.501s150.334 92.5 251.001 92.5c108.667 0 191 -27.333 247 -82s84 -134.334 84 -239.001v-531
c0 -106 9.66699 -185.333 29 -238v-12h-118zM414.998 87c65.333 0 123.167 17 173.5 51s87.166 79.333 110.499 136v263h-176c-101.333 -1.33301 -177.666 -23.833 -228.999 -67.5s-77 -102.5 -77 -176.5c0 -137.333 66 -206 198 -206zM207.999 1395
c0 23.333 7.33301 42.833 22 58.5s34.667 23.5 60 23.5s45.5 -7.83301 60.5 -23.5s22.5 -35.167 22.5 -58.5c0 -22.667 -7.5 -41.667 -22.5 -57s-35.167 -23 -60.5 -23s-45.333 7.66699 -60 23s-22 34.333 -22 57zM645.999 1394c0 23.333 7.33301 42.833 22 58.5
s34.667 23.5 60 23.5s45.5 -7.83301 60.5 -23.5s22.5 -35.167 22.5 -58.5c0 -22.667 -7.5 -41.667 -22.5 -57s-35.167 -23 -60.5 -23s-45.333 7.66699 -60 23s-22 34.333 -22 57z" />
    <glyph glyph-name="aring" unicode="&#xe5;" horiz-adv-x="964" 
d="M720 0c-10 34.667 -16.6689 84.667 -20.002 150c-33.333 -54 -76.166 -95.833 -128.499 -125.5s-109.166 -44.5 -170.499 -44.5c-93.333 0 -166 26.333 -218 79s-78 127.667 -78 225c0 106 36.167 190 108.5 252s172.166 93.333 299.499 94h186v151
c0 77.333 -19.167 132.833 -57.5 166.5s-94.5 50.5 -168.5 50.5c-68.667 0 -125 -20 -169 -60s-66 -91.667 -66 -155l-111 1c0 88.667 33.333 163.834 100 225.501s150.334 92.5 251.001 92.5c108.667 0 191 -27.333 247 -82s84 -134.334 84 -239.001v-531
c0 -106 9.66699 -185.333 29 -238v-12h-118zM414.998 87c65.333 0 123.167 17 173.5 51s87.166 79.333 110.499 136v263h-176c-101.333 -1.33301 -177.666 -23.833 -228.999 -67.5s-77 -102.5 -77 -176.5c0 -137.333 66 -206 198 -206zM314.999 1401
c0 53.333 18.667 98.666 56 135.999s83 56 137 56s99.667 -18.667 137 -56s56 -82.666 56 -135.999c0 -52.667 -18.333 -97 -55 -133s-82.667 -54 -138 -54s-101.333 18 -138 54s-55 80.333 -55 133zM391.999 1401c0 -32.667 11.001 -60 33.001 -82s49.667 -33 83 -33
c32 0 59.5 10.833 82.5 32.5s34.5 49.167 34.5 82.5c0 35.333 -11.333 64 -34 86s-50.334 33 -83.001 33c-34 0 -61.833 -11.333 -83.5 -34s-32.5 -51 -32.5 -85z" />
    <glyph glyph-name="ae" unicode="&#xe6;" horiz-adv-x="1494" 
d="M1082 -20c-77.333 0 -144.001 17.834 -200.001 53.501s-101 85.167 -135 148.5c-34 -64 -82.833 -113.667 -146.5 -149s-134.5 -53 -212.5 -53c-93.333 0 -166.333 27.667 -219 83s-79 132.333 -79 231c0 106.667 32 189.667 96 249s156 89 276 89h209v88
c0 87.333 -17.167 155.5 -51.5 204.5s-85.833 73.5 -154.5 73.5c-72.667 0 -131 -21.833 -175 -65.5s-66 -99.5 -66 -167.5l-110 13c0 95.333 32.667 173.166 98 233.499s149.666 90.5 252.999 90.5c68.667 0 127.834 -17 177.501 -51s86.167 -85 109.5 -153
c34 64 77 114 129 150s110 54 174 54c110.667 0 198 -40.5 262 -121.5s96 -196.5 96 -346.5v-98h-631v-26c0 -133.333 26.333 -237.833 79 -313.5s126.334 -113.5 221.001 -113.5c102 0 192.333 39.333 271 118l42 -90c-36 -42.667 -81.333 -75.167 -136 -97.5
s-113.667 -33.5 -177 -33.5zM405.999 82.001c49.333 0 99.5 14.832 150.5 44.499s89.167 64.834 114.5 105.501v302h-213c-77.333 -0.666992 -139.333 -23.5 -186 -68.5s-70 -103.5 -70 -175.5c0 -62 17 -112.167 51 -150.5s85 -57.5 153 -57.5zM1055 998
c-73.333 0 -134.167 -32.833 -182.5 -98.5s-77.5 -153.5 -87.5 -263.5h518v31c0 103.333 -22 184.333 -66 243s-104.667 88 -182 88z" />
    <glyph glyph-name="ccedilla" unicode="&#xe7;" horiz-adv-x="929" 
d="M490 83c77.333 0 136.668 21.668 178.001 65.001s63.666 105.666 66.999 186.999h107c-5.33301 -110.667 -40.666 -197.5 -105.999 -260.5s-147.333 -94.5 -246 -94.5c-128.667 0 -225.834 41.167 -291.501 123.5s-99.167 204.5 -100.5 366.5v132
c0 165.333 32.833 290 98.5 374s163.167 126 292.5 126c107.333 0 192 -33.833 254 -101.5s95 -162.167 99 -283.5h-107c-3.33301 89.333 -26 158.5 -68 207.5s-101.333 73.5 -178 73.5c-96 0 -166.5 -32.333 -211.5 -97s-67.5 -164 -67.5 -298v-123
c0 -138.667 22.667 -239.5 68 -302.5s116 -94.5 212 -94.5zM517.002 -8.99902l-10 -64c90.667 -14.667 136 -71.667 136 -171c0 -60.667 -22 -109.167 -66 -145.5s-104.667 -54.5 -182 -54.5l-6 79c47.333 0 86.5 10.333 117.5 31s46.5 50 46.5 88
c0 34 -9.83301 59.167 -29.5 75.5s-58.5 27.5 -116.5 33.5l25 128h85z" />
    <glyph glyph-name="egrave" unicode="&#xe8;" horiz-adv-x="937" 
d="M505 -20c-127.333 0 -226.999 41.667 -298.999 125s-108.667 202 -110 356v132c0 158.667 34.667 283.167 104 373.5s164.666 135.5 285.999 135.5c117.333 0 206.833 -38.333 268.5 -115s93.167 -194 94.5 -352v-104h-643v-61c0 -124 26.5 -219.667 79.5 -287
s127.833 -101 224.5 -101c106.667 0 193 39 259 117l58 -74c-70.667 -96.667 -178 -145 -322 -145zM486.001 998c-87.333 0 -154.5 -30.832 -201.5 -92.499s-72.833 -151.834 -77.5 -270.501h531v29c-5.33301 222.667 -89.333 334 -252 334zM569.001 1255h-109l-226 281h144
z" />
    <glyph glyph-name="eacute" unicode="&#xe9;" horiz-adv-x="937" 
d="M505 -20c-127.333 0 -226.999 41.667 -298.999 125s-108.667 202 -110 356v132c0 158.667 34.667 283.167 104 373.5s164.666 135.5 285.999 135.5c117.333 0 206.833 -38.333 268.5 -115s93.167 -194 94.5 -352v-104h-643v-61c0 -124 26.5 -219.667 79.5 -287
s127.833 -101 224.5 -101c106.667 0 193 39 259 117l58 -74c-70.667 -96.667 -178 -145 -322 -145zM486.001 998c-87.333 0 -154.5 -30.832 -201.5 -92.499s-72.833 -151.834 -77.5 -270.501h531v29c-5.33301 222.667 -89.333 334 -252 334zM615.001 1536h145l-231 -281
h-105z" />
    <glyph glyph-name="ecircumflex" unicode="&#xea;" horiz-adv-x="937" 
d="M505 -20c-127.333 0 -226.999 41.667 -298.999 125s-108.667 202 -110 356v132c0 158.667 34.667 283.167 104 373.5s164.666 135.5 285.999 135.5c117.333 0 206.833 -38.333 268.5 -115s93.167 -194 94.5 -352v-104h-643v-61c0 -124 26.5 -219.667 79.5 -287
s127.833 -101 224.5 -101c106.667 0 193 39 259 117l58 -74c-70.667 -96.667 -178 -145 -322 -145zM486.001 998c-87.333 0 -154.5 -30.832 -201.5 -92.499s-72.833 -151.834 -77.5 -270.501h531v29c-5.33301 222.667 -89.333 334 -252 334zM733.001 1268v-10h-100l-138 182
l-138 -182h-98v12l201 256h69z" />
    <glyph glyph-name="edieresis" unicode="&#xeb;" horiz-adv-x="937" 
d="M505 -20c-127.333 0 -226.999 41.667 -298.999 125s-108.667 202 -110 356v132c0 158.667 34.667 283.167 104 373.5s164.666 135.5 285.999 135.5c117.333 0 206.833 -38.333 268.5 -115s93.167 -194 94.5 -352v-104h-643v-61c0 -124 26.5 -219.667 79.5 -287
s127.833 -101 224.5 -101c106.667 0 193 39 259 117l58 -74c-70.667 -96.667 -178 -145 -322 -145zM486.001 998c-87.333 0 -154.5 -30.832 -201.5 -92.499s-72.833 -151.834 -77.5 -270.501h531v29c-5.33301 222.667 -89.333 334 -252 334zM196.001 1395
c0 23.333 7.33301 42.833 22 58.5s34.667 23.5 60 23.5s45.5 -7.83301 60.5 -23.5s22.5 -35.167 22.5 -58.5c0 -22.667 -7.5 -41.667 -22.5 -57s-35.167 -23 -60.5 -23s-45.333 7.66699 -60 23s-22 34.333 -22 57zM634.001 1394c0 23.333 7.33301 42.833 22 58.5
s34.667 23.5 60 23.5s45.5 -7.83301 60.5 -23.5s22.5 -35.167 22.5 -58.5c0 -22.667 -7.5 -41.667 -22.5 -57s-35.167 -23 -60.5 -23s-45.333 7.66699 -60 23s-22 34.333 -22 57z" />
    <glyph glyph-name="igrave" unicode="&#xec;" horiz-adv-x="431" 
d="M270 0h-111v1082h111v-1082zM292 1243h-109l-226 281h144z" />
    <glyph glyph-name="iacute" unicode="&#xed;" horiz-adv-x="431" 
d="M270 0h-111v1082h111v-1082zM337 1524h145l-231 -281h-105z" />
    <glyph glyph-name="icircumflex" unicode="&#xee;" horiz-adv-x="431" 
d="M270 0h-111v1082h111v-1082zM456 1256v-10h-100l-138 182l-138 -182h-98v12l201 256h69z" />
    <glyph glyph-name="idieresis" unicode="&#xef;" horiz-adv-x="431" 
d="M270 0h-111v1082h111v-1082zM-81 1383c0 23.333 7.33301 42.833 22 58.5s34.667 23.5 60 23.5s45.5 -7.83301 60.5 -23.5s22.5 -35.167 22.5 -58.5c0 -22.667 -7.5 -41.667 -22.5 -57s-35.167 -23 -60.5 -23s-45.333 7.66699 -60 23s-22 34.333 -22 57zM357 1382
c0 23.333 7.33301 42.833 22 58.5s34.667 23.5 60 23.5s45.5 -7.83301 60.5 -23.5s22.5 -35.167 22.5 -58.5c0 -22.667 -7.5 -41.667 -22.5 -57s-35.167 -23 -60.5 -23s-45.333 7.66699 -60 23s-22 34.333 -22 57z" />
    <glyph glyph-name="eth" unicode="&#xf0;" horiz-adv-x="1042" 
d="M699 1303c134.667 -167.333 204.331 -384.332 208.998 -650.999v-117c0 -106 -15.833 -201.5 -47.5 -286.5s-76.167 -151 -133.5 -198s-121.666 -70.5 -192.999 -70.5c-74 0 -140.833 20.833 -200.5 62.5s-106.667 100.167 -141 175.5s-51.5 158 -51.5 248
c0 151.333 33.667 272.333 101 363s157 136 269 136c54 0 104.5 -12.333 151.5 -37s86.833 -58 119.5 -100c-25.333 165.333 -83 301.666 -173 408.999l-188 -138l-46 74l173 128c-79.333 72 -174.666 129 -285.999 171l36 106c134.667 -47.333 249 -117 343 -209l163 120
l46 -75zM796.997 626.001l-2 60.0029c-24 56 -59.333 98.833 -106 128.5s-98.667 44.5 -156 44.5c-88 0 -156.667 -34.833 -206 -104.5s-74 -165.834 -74 -288.501c0 -108.667 27 -199.334 81 -272.001s122 -109 204 -109c77.333 0 139.833 41.667 187.5 125
s71.5 193.666 71.5 330.999v85z" />
    <glyph glyph-name="ntilde" unicode="&#xf1;" horiz-adv-x="986" 
d="M254 1082l2.99805 -172.001c32 58.667 72.833 105.334 122.5 140.001s106.167 52 169.5 52c188.667 0 285.334 -125.667 290.001 -377v-725h-110v713c-0.666992 96.667 -17.667 168 -51 214s-85.666 69 -156.999 69c-58 0 -110.167 -21.833 -156.5 -65.5
s-81.5 -103.5 -105.5 -179.5v-751h-111v1082h106zM790.998 1494c0 -63.333 -16.001 -115 -48.001 -155s-71.333 -60 -118 -60c-29.333 0 -53.5 5.66699 -72.5 17s-36.333 24 -52 38s-31.667 26.667 -48 38s-36.5 17 -60.5 17c-25.333 0 -46.666 -10.5 -63.999 -31.5
s-26 -49.833 -26 -86.5l-81 3c0 63.333 15.833 114.833 47.5 154.5s71.167 59.5 118.5 59.5c20.667 0 39 -3.5 55 -10.5s39.167 -22.5 69.5 -46.5s52 -38.667 65 -44s27.5 -8 43.5 -8c25.333 0 46.833 11 64.5 33s26.5 51.333 26.5 88z" />
    <glyph glyph-name="ograve" unicode="&#xf2;" horiz-adv-x="1005" 
d="M106 596c0 156 35.335 279.334 106.002 370.001s167 136 289 136c122.667 0 219.167 -44.667 289.5 -134s105.833 -212.333 106.5 -369v-115c0 -158.667 -35.5 -282.334 -106.5 -371.001s-166.833 -133 -287.5 -133s-216.334 43.333 -287.001 130
s-107.334 206 -110.001 358v128zM218.002 484.001c0 -124.667 25.1699 -222.668 75.5029 -294.001s120.166 -107 209.499 -107c91.333 0 161.166 34.333 209.499 103s72.833 167 73.5 295v115c0 124.667 -25.333 222.834 -76 294.501s-120.334 107.5 -209.001 107.5
c-86 0 -154.333 -35 -205 -105s-76.667 -166.333 -78 -289v-120zM574.005 1255h-109l-226 281h144z" />
    <glyph glyph-name="oacute" unicode="&#xf3;" horiz-adv-x="1005" 
d="M106 596c0 156 35.335 279.334 106.002 370.001s167 136 289 136c122.667 0 219.167 -44.667 289.5 -134s105.833 -212.333 106.5 -369v-115c0 -158.667 -35.5 -282.334 -106.5 -371.001s-166.833 -133 -287.5 -133s-216.334 43.333 -287.001 130
s-107.334 206 -110.001 358v128zM218.002 484.001c0 -124.667 25.1699 -222.668 75.5029 -294.001s120.166 -107 209.499 -107c91.333 0 161.166 34.333 209.499 103s72.833 167 73.5 295v115c0 124.667 -25.333 222.834 -76 294.501s-120.334 107.5 -209.001 107.5
c-86 0 -154.333 -35 -205 -105s-76.667 -166.333 -78 -289v-120zM620.005 1536h145l-231 -281h-105z" />
    <glyph glyph-name="ocircumflex" unicode="&#xf4;" horiz-adv-x="1005" 
d="M106 596c0 156 35.335 279.334 106.002 370.001s167 136 289 136c122.667 0 219.167 -44.667 289.5 -134s105.833 -212.333 106.5 -369v-115c0 -158.667 -35.5 -282.334 -106.5 -371.001s-166.833 -133 -287.5 -133s-216.334 43.333 -287.001 130
s-107.334 206 -110.001 358v128zM218.002 484.001c0 -124.667 25.1699 -222.668 75.5029 -294.001s120.166 -107 209.499 -107c91.333 0 161.166 34.333 209.499 103s72.833 167 73.5 295v115c0 124.667 -25.333 222.834 -76 294.501s-120.334 107.5 -209.001 107.5
c-86 0 -154.333 -35 -205 -105s-76.667 -166.333 -78 -289v-120zM738.005 1268v-10h-100l-138 182l-138 -182h-98v12l201 256h69z" />
    <glyph glyph-name="otilde" unicode="&#xf5;" horiz-adv-x="1005" 
d="M106 596c0 156 35.335 279.334 106.002 370.001s167 136 289 136c122.667 0 219.167 -44.667 289.5 -134s105.833 -212.333 106.5 -369v-115c0 -158.667 -35.5 -282.334 -106.5 -371.001s-166.833 -133 -287.5 -133s-216.334 43.333 -287.001 130
s-107.334 206 -110.001 358v128zM218.002 484.001c0 -124.667 25.1699 -222.668 75.5029 -294.001s120.166 -107 209.499 -107c91.333 0 161.166 34.333 209.499 103s72.833 167 73.5 295v115c0 124.667 -25.333 222.834 -76 294.501s-120.334 107.5 -209.001 107.5
c-86 0 -154.333 -35 -205 -105s-76.667 -166.333 -78 -289v-120zM788.005 1494c0 -63.333 -16.001 -115 -48.001 -155s-71.333 -60 -118 -60c-29.333 0 -53.5 5.66699 -72.5 17s-36.333 24 -52 38s-31.667 26.667 -48 38s-36.5 17 -60.5 17
c-25.333 0 -46.666 -10.5 -63.999 -31.5s-26 -49.833 -26 -86.5l-81 3c0 63.333 15.833 114.833 47.5 154.5s71.167 59.5 118.5 59.5c20.667 0 39 -3.5 55 -10.5s39.167 -22.5 69.5 -46.5s52 -38.667 65 -44s27.5 -8 43.5 -8c25.333 0 46.833 11 64.5 33
s26.5 51.333 26.5 88z" />
    <glyph glyph-name="odieresis" unicode="&#xf6;" horiz-adv-x="1005" 
d="M106 596c0 156 35.335 279.334 106.002 370.001s167 136 289 136c122.667 0 219.167 -44.667 289.5 -134s105.833 -212.333 106.5 -369v-115c0 -158.667 -35.5 -282.334 -106.5 -371.001s-166.833 -133 -287.5 -133s-216.334 43.333 -287.001 130
s-107.334 206 -110.001 358v128zM218.002 484.001c0 -124.667 25.1699 -222.668 75.5029 -294.001s120.166 -107 209.499 -107c91.333 0 161.166 34.333 209.499 103s72.833 167 73.5 295v115c0 124.667 -25.333 222.834 -76 294.501s-120.334 107.5 -209.001 107.5
c-86 0 -154.333 -35 -205 -105s-76.667 -166.333 -78 -289v-120zM201.005 1395c0 23.333 7.33301 42.833 22 58.5s34.667 23.5 60 23.5s45.5 -7.83301 60.5 -23.5s22.5 -35.167 22.5 -58.5c0 -22.667 -7.5 -41.667 -22.5 -57s-35.167 -23 -60.5 -23s-45.333 7.66699 -60 23
s-22 34.333 -22 57zM639.005 1394c0 23.333 7.33301 42.833 22 58.5s34.667 23.5 60 23.5s45.5 -7.83301 60.5 -23.5s22.5 -35.167 22.5 -58.5c0 -22.667 -7.5 -41.667 -22.5 -57s-35.167 -23 -60.5 -23s-45.333 7.66699 -60 23s-22 34.333 -22 57z" />
    <glyph glyph-name="divide" unicode="&#xf7;" horiz-adv-x="1019" 
d="M919 642h-839v119h839v-119zM430 1088c0 24 6.66699 44.167 20 60.5s32 24.5 56 24.5s42.833 -8.16699 56.5 -24.5s20.5 -36.5 20.5 -60.5c0 -23.333 -6.83301 -42.833 -20.5 -58.5s-32.5 -23.5 -56.5 -23.5s-42.667 7.83301 -56 23.5s-20 35.167 -20 58.5zM430 291
c0 23.333 6.66699 43.166 20 59.499s32 24.5 56 24.5s42.833 -8.16699 56.5 -24.5s20.5 -36.166 20.5 -59.499s-6.83301 -43 -20.5 -59s-32.5 -24 -56.5 -24s-42.667 8 -56 24s-20 35.667 -20 59z" />
    <glyph glyph-name="oslash" unicode="&#xf8;" horiz-adv-x="1001" 
d="M95 556c0 159.333 37.501 290.167 112.501 392.5s172.833 153.5 293.5 153.5c65.333 0 124.666 -15.667 177.999 -47l65 158h84l-84 -205c52.667 -48 93.5 -111 122.5 -189s43.5 -165.667 43.5 -263v-32c0 -159.333 -37.333 -289.833 -112 -391.5
s-173 -152.5 -295 -152.5c-59.333 0 -115 13 -167 39l-65 -158h-84l83 203c-116.667 98.667 -175 257 -175 475v17zM205.001 524.001c0 -71.333 9.16699 -137.833 27.5 -199.5s45.5 -113.167 81.5 -154.5l324 785c-41.333 28.667 -87 43 -137 43
c-88 0 -159.333 -41.833 -214 -125.5s-82 -192.5 -82 -326.5v-22zM798.001 556.001c0 144 -33.333 258 -100 342l-321 -781c37.333 -22.667 79.333 -34 126 -34c88.667 0 160 41.167 214 123.5s81 190.833 81 325.5v24z" />
    <glyph glyph-name="ugrave" unicode="&#xf9;" horiz-adv-x="986" 
d="M728 129c-61.333 -99.333 -156.333 -149 -285 -149c-98 0 -172 34 -222 102s-75.333 168 -76 300v700h110v-697c0 -98 17.333 -172.333 52 -223s84.667 -76 150 -76c140 0 229.667 68 269 204v792h112v-1082h-108zM574 1255h-109l-226 281h144z" />
    <glyph glyph-name="uacute" unicode="&#xfa;" horiz-adv-x="986" 
d="M728 129c-61.333 -99.333 -156.333 -149 -285 -149c-98 0 -172 34 -222 102s-75.333 168 -76 300v700h110v-697c0 -98 17.333 -172.333 52 -223s84.667 -76 150 -76c140 0 229.667 68 269 204v792h112v-1082h-108zM620 1536h145l-231 -281h-105z" />
    <glyph glyph-name="ucircumflex" unicode="&#xfb;" horiz-adv-x="986" 
d="M728 129c-61.333 -99.333 -156.333 -149 -285 -149c-98 0 -172 34 -222 102s-75.333 168 -76 300v700h110v-697c0 -98 17.333 -172.333 52 -223s84.667 -76 150 -76c140 0 229.667 68 269 204v792h112v-1082h-108zM738 1268v-10h-100l-138 182l-138 -182h-98v12l201 256
h69z" />
    <glyph glyph-name="udieresis" unicode="&#xfc;" horiz-adv-x="986" 
d="M728 129c-61.333 -99.333 -156.333 -149 -285 -149c-98 0 -172 34 -222 102s-75.333 168 -76 300v700h110v-697c0 -98 17.333 -172.333 52 -223s84.667 -76 150 -76c140 0 229.667 68 269 204v792h112v-1082h-108zM201 1395c0 23.333 7.33301 42.833 22 58.5
s34.667 23.5 60 23.5s45.5 -7.83301 60.5 -23.5s22.5 -35.167 22.5 -58.5c0 -22.667 -7.5 -41.667 -22.5 -57s-35.167 -23 -60.5 -23s-45.333 7.66699 -60 23s-22 34.333 -22 57zM639 1394c0 23.333 7.33301 42.833 22 58.5s34.667 23.5 60 23.5s45.5 -7.83301 60.5 -23.5
s22.5 -35.167 22.5 -58.5c0 -22.667 -7.5 -41.667 -22.5 -57s-35.167 -23 -60.5 -23s-45.333 7.66699 -60 23s-22 34.333 -22 57z" />
    <glyph glyph-name="yacute" unicode="&#xfd;" horiz-adv-x="857" 
d="M436 183l258 899h119l-381 -1255l-21 -60c-51.333 -136 -130 -204 -236 -204c-25.333 0 -52 4.66699 -80 14l-1 102c15.333 -4.66699 32.333 -7 51 -7c48 0 87.333 14.333 118 43s56 75 76 139l46 153l-340 1075h122zM570 1536h145l-231 -281h-105z" />
    <glyph glyph-name="thorn" unicode="&#xfe;" horiz-adv-x="1011" 
d="M891 530c0 -166 -31.332 -299.167 -93.999 -399.5s-147.334 -150.5 -254.001 -150.5c-122 0 -215.333 48.667 -280 146v-542h-111v1952h111v-593c65.333 106 158 159 278 159c109.333 0 195 -49.333 257 -148s93 -234.667 93 -408v-16zM780.001 551
c0 137.333 -23.499 245.668 -70.499 325.001s-112.167 119 -195.5 119c-117.333 0 -201 -66.333 -251 -199v-531c50 -121.333 134.333 -182 253 -182c83.333 0 148.166 40.167 194.499 120.5s69.5 196.166 69.5 347.499z" />
    <glyph glyph-name="ydieresis" unicode="&#xff;" horiz-adv-x="857" 
d="M436 183l258 899h119l-381 -1255l-21 -60c-51.333 -136 -130 -204 -236 -204c-25.333 0 -52 4.66699 -80 14l-1 102c15.333 -4.66699 32.333 -7 51 -7c48 0 87.333 14.333 118 43s56 75 76 139l46 153l-340 1075h122zM151 1395c0 23.333 7.33301 42.833 22 58.5
s34.667 23.5 60 23.5s45.5 -7.83301 60.5 -23.5s22.5 -35.167 22.5 -58.5c0 -22.667 -7.5 -41.667 -22.5 -57s-35.167 -23 -60.5 -23s-45.333 7.66699 -60 23s-22 34.333 -22 57zM589 1394c0 23.333 7.33301 42.833 22 58.5s34.667 23.5 60 23.5s45.5 -7.83301 60.5 -23.5
s22.5 -35.167 22.5 -58.5c0 -22.667 -7.5 -41.667 -22.5 -57s-35.167 -23 -60.5 -23s-45.333 7.66699 -60 23s-22 34.333 -22 57z" />
    <glyph glyph-name="Amacron" unicode="&#x100;" 
d="M834 407h-546l-124 -407h-119l464 1456h106l464 -1456h-119zM321 514h480l-240 781zM831 1666h-528v98h528v-98z" />
    <glyph glyph-name="amacron" unicode="&#x101;" horiz-adv-x="964" 
d="M720 0c-10 34.667 -16.6689 84.667 -20.002 150c-33.333 -54 -76.166 -95.833 -128.499 -125.5s-109.166 -44.5 -170.499 -44.5c-93.333 0 -166 26.333 -218 79s-78 127.667 -78 225c0 106 36.167 190 108.5 252s172.166 93.333 299.499 94h186v151
c0 77.333 -19.167 132.833 -57.5 166.5s-94.5 50.5 -168.5 50.5c-68.667 0 -125 -20 -169 -60s-66 -91.667 -66 -155l-111 1c0 88.667 33.333 163.834 100 225.501s150.334 92.5 251.001 92.5c108.667 0 191 -27.333 247 -82s84 -134.334 84 -239.001v-531
c0 -106 9.66699 -185.333 29 -238v-12h-118zM414.998 87c65.333 0 123.167 17 173.5 51s87.166 79.333 110.499 136v263h-176c-101.333 -1.33301 -177.666 -23.833 -228.999 -67.5s-77 -102.5 -77 -176.5c0 -137.333 66 -206 198 -206zM773.999 1351h-528v98h528v-98z" />
    <glyph glyph-name="Abreve" unicode="&#x102;" 
d="M834 407h-546l-124 -407h-119l464 1456h106l464 -1456h-119zM321 514h480l-240 781zM853 1808c0 -76 -26 -138.001 -78 -186.001s-122.333 -72 -211 -72c-87.333 0 -157.333 23.833 -210 71.5s-79 109.834 -79 186.501h102c0 -53.333 15.833 -95 47.5 -125
s78.167 -45 139.5 -45c58 0 103.667 15 137 45s50 71.667 50 125h102z" />
    <glyph glyph-name="abreve" unicode="&#x103;" horiz-adv-x="964" 
d="M720 0c-10 34.667 -16.6689 84.667 -20.002 150c-33.333 -54 -76.166 -95.833 -128.499 -125.5s-109.166 -44.5 -170.499 -44.5c-93.333 0 -166 26.333 -218 79s-78 127.667 -78 225c0 106 36.167 190 108.5 252s172.166 93.333 299.499 94h186v151
c0 77.333 -19.167 132.833 -57.5 166.5s-94.5 50.5 -168.5 50.5c-68.667 0 -125 -20 -169 -60s-66 -91.667 -66 -155l-111 1c0 88.667 33.333 163.834 100 225.501s150.334 92.5 251.001 92.5c108.667 0 191 -27.333 247 -82s84 -134.334 84 -239.001v-531
c0 -106 9.66699 -185.333 29 -238v-12h-118zM414.998 87c65.333 0 123.167 17 173.5 51s87.166 79.333 110.499 136v263h-176c-101.333 -1.33301 -177.666 -23.833 -228.999 -67.5s-77 -102.5 -77 -176.5c0 -137.333 66 -206 198 -206zM795.999 1493
c0 -76 -26 -138.001 -78 -186.001s-122.333 -72 -211 -72c-87.333 0 -157.333 23.833 -210 71.5s-79 109.834 -79 186.501h102c0 -53.333 15.833 -95 47.5 -125s78.167 -45 139.5 -45c58 0 103.667 15 137 45s50 71.667 50 125h102z" />
    <glyph glyph-name="Aogonek" unicode="&#x104;" 
d="M615 1456l464.001 -1456h-19l-56 -54c-62 -62 -93 -121.667 -93 -179c0 -56 23.333 -84 70 -84c28.667 0 58 10.667 88 32l12 -85c-37.333 -29.333 -78.333 -44 -123 -44c-42.667 0 -77.667 14.167 -105 42.5s-41 70.833 -41 127.5c0 43.333 12.667 86.5 38 129.5
s61.666 82.5 108.999 118.5l-125 403h-546l-124 -407h-119l464 1456h106zM321.001 514h480l-240 781z" />
    <glyph glyph-name="aogonek" unicode="&#x105;" horiz-adv-x="964" 
d="M719 2c-9.33301 33.333 -15.6689 82.668 -19.002 148.001c-33.333 -54 -76.166 -95.833 -128.499 -125.5s-109.166 -44.5 -170.499 -44.5c-93.333 0 -166 26.333 -218 79s-78 127.667 -78 225c0 106 36.167 190 108.5 252s172.166 93.333 299.499 94h186v151
c0 77.333 -19.167 132.833 -57.5 166.5s-94.5 50.5 -168.5 50.5c-68.667 0 -125 -20 -169 -60s-66 -91.667 -66 -155l-111 1c0 88.667 33.333 163.834 100 225.501s150.334 92.5 251.001 92.5c108.667 0 191 -27.333 247 -82s84 -134.334 84 -239.001v-531
c0 -106 9.66699 -185.333 29 -238v-12h-16l-56 -54c-62 -62 -93 -121.667 -93 -179c0 -56 23.333 -84 70 -84c28.667 0 58 10.667 88 32l12 -85c-37.333 -29.333 -78.333 -44 -123 -44c-42.667 0 -77.667 14.167 -105 42.5s-41 70.833 -41 127.5
c0 43.333 12.667 86.166 38 128.499s61 81.5 107 117.5zM414.997 87.002c65.333 0 123.167 17 173.5 51s87.166 79.333 110.499 136v263h-176c-101.333 -1.33301 -177.666 -23.833 -228.999 -67.5s-77 -102.5 -77 -176.5c0 -137.333 66 -206 198 -206z" />
    <glyph glyph-name="Cacute" unicode="&#x106;" horiz-adv-x="1158" 
d="M1045 454c-10.667 -163.333 -54.666 -283.167 -131.999 -359.5s-184.333 -114.5 -321 -114.5c-140.667 0 -251.667 53.167 -333 159.5s-122.333 250.833 -123 433.5v316c0 183.333 41.5 327 124.5 431s196.5 156 340.5 156c136 0 241.333 -39 316 -117
s117.334 -197.667 128.001 -359h-116c-10.667 132 -41.834 226.333 -93.501 283s-129.834 85 -234.501 85c-110 0 -195.667 -41 -257 -123s-92 -201 -92 -357v-312c0 -154.667 29.667 -275 89 -361s143 -129 251 -129c113.333 0 195.333 28.333 246 85s81 151 91 283h116z
M710.001 1878h145l-231 -281h-105z" />
    <glyph glyph-name="cacute" unicode="&#x107;" horiz-adv-x="929" 
d="M490 83c77.333 0 136.668 21.668 178.001 65.001s63.666 105.666 66.999 186.999h107c-5.33301 -110.667 -40.666 -197.5 -105.999 -260.5s-147.333 -94.5 -246 -94.5c-128.667 0 -225.834 41.167 -291.501 123.5s-99.167 204.5 -100.5 366.5v132
c0 165.333 32.833 290 98.5 374s163.167 126 292.5 126c107.333 0 192 -33.833 254 -101.5s95 -162.167 99 -283.5h-107c-3.33301 89.333 -26 158.5 -68 207.5s-101.333 73.5 -178 73.5c-96 0 -166.5 -32.333 -211.5 -97s-67.5 -164 -67.5 -298v-123
c0 -138.667 22.667 -239.5 68 -302.5s116 -94.5 212 -94.5zM591.002 1536h145l-231 -281h-105z" />
    <glyph glyph-name="Ccircumflex" unicode="&#x108;" horiz-adv-x="1158" 
d="M1045 454c-10.667 -163.333 -54.666 -283.167 -131.999 -359.5s-184.333 -114.5 -321 -114.5c-140.667 0 -251.667 53.167 -333 159.5s-122.333 250.833 -123 433.5v316c0 183.333 41.5 327 124.5 431s196.5 156 340.5 156c136 0 241.333 -39 316 -117
s117.334 -197.667 128.001 -359h-116c-10.667 132 -41.834 226.333 -93.501 283s-129.834 85 -234.501 85c-110 0 -195.667 -41 -257 -123s-92 -201 -92 -357v-312c0 -154.667 29.667 -275 89 -361s143 -129 251 -129c113.333 0 195.333 28.333 246 85s81 151 91 283h116z
M828.001 1610v-10h-100l-138 182l-138 -182h-98v12l201 256h69z" />
    <glyph glyph-name="ccircumflex" unicode="&#x109;" horiz-adv-x="929" 
d="M490 83c77.333 0 136.668 21.668 178.001 65.001s63.666 105.666 66.999 186.999h107c-5.33301 -110.667 -40.666 -197.5 -105.999 -260.5s-147.333 -94.5 -246 -94.5c-128.667 0 -225.834 41.167 -291.501 123.5s-99.167 204.5 -100.5 366.5v132
c0 165.333 32.833 290 98.5 374s163.167 126 292.5 126c107.333 0 192 -33.833 254 -101.5s95 -162.167 99 -283.5h-107c-3.33301 89.333 -26 158.5 -68 207.5s-101.333 73.5 -178 73.5c-96 0 -166.5 -32.333 -211.5 -97s-67.5 -164 -67.5 -298v-123
c0 -138.667 22.667 -239.5 68 -302.5s116 -94.5 212 -94.5zM709.002 1268v-10h-100l-138 182l-138 -182h-98v12l201 256h69z" />
    <glyph glyph-name="Cdotaccent" unicode="&#x10a;" horiz-adv-x="1158" 
d="M1045 454c-10.667 -163.333 -54.666 -283.167 -131.999 -359.5s-184.333 -114.5 -321 -114.5c-140.667 0 -251.667 53.167 -333 159.5s-122.333 250.833 -123 433.5v316c0 183.333 41.5 327 124.5 431s196.5 156 340.5 156c136 0 241.333 -39 316 -117
s117.334 -197.667 128.001 -359h-116c-10.667 132 -41.834 226.333 -93.501 283s-129.834 85 -234.501 85c-110 0 -195.667 -41 -257 -123s-92 -201 -92 -357v-312c0 -154.667 29.667 -275 89 -361s143 -129 251 -129c113.333 0 195.333 28.333 246 85s81 151 91 283h116z
M508.001 1723c0 23.333 7.33301 42.833 22 58.5s34.667 23.5 60 23.5c26 0 46.333 -7.83301 61 -23.5s22 -35.167 22 -58.5c0 -22.667 -7.33301 -41.667 -22 -57s-35 -23 -61 -23c-25.333 0 -45.333 7.66699 -60 23s-22 34.333 -22 57z" />
    <glyph glyph-name="cdotaccent" unicode="&#x10b;" horiz-adv-x="929" 
d="M490 83c77.333 0 136.668 21.668 178.001 65.001s63.666 105.666 66.999 186.999h107c-5.33301 -110.667 -40.666 -197.5 -105.999 -260.5s-147.333 -94.5 -246 -94.5c-128.667 0 -225.834 41.167 -291.501 123.5s-99.167 204.5 -100.5 366.5v132
c0 165.333 32.833 290 98.5 374s163.167 126 292.5 126c107.333 0 192 -33.833 254 -101.5s95 -162.167 99 -283.5h-107c-3.33301 89.333 -26 158.5 -68 207.5s-101.333 73.5 -178 73.5c-96 0 -166.5 -32.333 -211.5 -97s-67.5 -164 -67.5 -298v-123
c0 -138.667 22.667 -239.5 68 -302.5s116 -94.5 212 -94.5zM389.002 1381c0 23.333 7.33301 42.833 22 58.5s34.667 23.5 60 23.5c26 0 46.333 -7.83301 61 -23.5s22 -35.167 22 -58.5c0 -22.667 -7.33301 -41.667 -22 -57s-35 -23 -61 -23
c-25.333 0 -45.333 7.66699 -60 23s-22 34.333 -22 57z" />
    <glyph glyph-name="Ccaron" unicode="&#x10c;" horiz-adv-x="1158" 
d="M1045 454c-10.667 -163.333 -54.666 -283.167 -131.999 -359.5s-184.333 -114.5 -321 -114.5c-140.667 0 -251.667 53.167 -333 159.5s-122.333 250.833 -123 433.5v316c0 183.333 41.5 327 124.5 431s196.5 156 340.5 156c136 0 241.333 -39 316 -117
s117.334 -197.667 128.001 -359h-116c-10.667 132 -41.834 226.333 -93.501 283s-129.834 85 -234.501 85c-110 0 -195.667 -41 -257 -123s-92 -201 -92 -357v-312c0 -154.667 29.667 -275 89 -361s143 -129 251 -129c113.333 0 195.333 28.333 246 85s81 151 91 283h116z
M590.001 1673l141 193h98v-12l-201 -262h-77l-200 263v11h98z" />
    <glyph glyph-name="ccaron" unicode="&#x10d;" horiz-adv-x="929" 
d="M490 83c77.333 0 136.668 21.668 178.001 65.001s63.666 105.666 66.999 186.999h107c-5.33301 -110.667 -40.666 -197.5 -105.999 -260.5s-147.333 -94.5 -246 -94.5c-128.667 0 -225.834 41.167 -291.501 123.5s-99.167 204.5 -100.5 366.5v132
c0 165.333 32.833 290 98.5 374s163.167 126 292.5 126c107.333 0 192 -33.833 254 -101.5s95 -162.167 99 -283.5h-107c-3.33301 89.333 -26 158.5 -68 207.5s-101.333 73.5 -178 73.5c-96 0 -166.5 -32.333 -211.5 -97s-67.5 -164 -67.5 -298v-123
c0 -138.667 22.667 -239.5 68 -302.5s116 -94.5 212 -94.5zM471.002 1330l141 193h98v-12l-201 -262h-77l-200 263v11h98z" />
    <glyph glyph-name="Dcaron" unicode="&#x10e;" horiz-adv-x="1167" 
d="M172 0v1456h343c158 0 283 -50.5 375 -151.5s139.333 -240.167 142 -417.5v-305c0 -182.667 -46.5 -325.334 -139.5 -428.001s-223.5 -154 -391.5 -154h-329zM286 1348v-1242h221c130 0 230.667 40.167 302 120.5s108 195.166 110 344.499v305
c0 149.333 -34.833 265.333 -104.5 348s-170.5 124 -302.5 124h-226zM525 1652l141 193h98v-12l-201 -262h-77l-200 263v11h98z" />
    <glyph glyph-name="dcaron" unicode="&#x10f;" horiz-adv-x="1149" 
d="M108 591c0 169.333 29.667 296.833 89 382.5s147.333 128.5 264 128.5c122.667 0 214.334 -55 275.001 -165v599h111v-1536h-104l-5 139c-60.667 -106 -153.334 -159 -278.001 -159c-114 0 -200.833 43.333 -260.5 130s-90.167 209.667 -91.5 369v112zM221 490
c0 -138.667 20.833 -240.667 62.5 -306s107.834 -98 198.501 -98c116.667 0 201.334 55.667 254.001 167v561c-50 120.667 -134.333 181 -253 181c-90.667 0 -156.834 -32.333 -198.501 -97s-62.834 -164.667 -63.501 -300v-108zM987 1177l-64.999 52
c39.333 68 59.666 139.333 60.999 214v93h106v-62c0 -128.667 -34 -227.667 -102 -297z" />
    <glyph glyph-name="Dcroat" unicode="&#x110;" horiz-adv-x="1197" 
d="M202 0v689.001h-158v104h158v663h343c158 0 283 -50.5 375 -151.5s139.333 -240.167 142 -417.5v-305c0 -182.667 -46.5 -325.334 -139.5 -428.001s-223.5 -154 -391.5 -154h-329zM562 689.001l-245.999 0.000976562v-583h219c131.333 0 232.666 40.167 303.999 120.5
s108 195.166 110 344.499v305c0 149.333 -34.833 265.333 -104.5 348s-170.5 124 -302.5 124h-226v-555h246v-104z" />
    <glyph glyph-name="dcroat" unicode="&#x111;" horiz-adv-x="1033" 
d="M995 1256h-148v-1256h-104l-5 134c-64 -102.667 -156.667 -154 -278 -154c-106.667 0 -192 51.167 -256 153.5s-96 241.5 -96 417.5c0 168.667 32 302.667 96 402s149.667 149 257 149c119.333 0 211 -53.333 275 -160v314h-259v104h259v176h111v-176h148v-104zM221 530
c0 -138 22.832 -246.499 68.499 -325.499s109.834 -118.5 192.501 -118.5c117.333 0 202 62.333 254 187v521c-50 134 -134.333 201 -253 201c-83.333 0 -147.833 -39.333 -193.5 -118s-68.5 -194.334 -68.5 -347.001z" />
    <glyph glyph-name="Emacron" unicode="&#x112;" horiz-adv-x="1018" 
d="M851 697h-565v-591h650v-106h-764v1456h759v-108h-645v-545h565v-106zM807 1672h-528v98h528v-98z" />
    <glyph glyph-name="emacron" unicode="&#x113;" horiz-adv-x="937" 
d="M505 -20c-127.333 0 -226.999 41.667 -298.999 125s-108.667 202 -110 356v132c0 158.667 34.667 283.167 104 373.5s164.666 135.5 285.999 135.5c117.333 0 206.833 -38.333 268.5 -115s93.167 -194 94.5 -352v-104h-643v-61c0 -124 26.5 -219.667 79.5 -287
s127.833 -101 224.5 -101c106.667 0 193 39 259 117l58 -74c-70.667 -96.667 -178 -145 -322 -145zM486.001 998c-87.333 0 -154.5 -30.832 -201.5 -92.499s-72.833 -151.834 -77.5 -270.501h531v29c-5.33301 222.667 -89.333 334 -252 334zM762.001 1350h-528v98h528v-98z
" />
    <glyph glyph-name="Ebreve" unicode="&#x114;" horiz-adv-x="1018" 
d="M851 697h-565v-591h650v-106h-764v1456h759v-108h-645v-545h565v-106zM829 1814c0 -76 -26 -138.001 -78 -186.001s-122.333 -72 -211 -72c-87.333 0 -157.333 23.833 -210 71.5s-79 109.834 -79 186.501h102c0 -53.333 15.833 -95 47.5 -125s78.167 -45 139.5 -45
c58 0 103.667 15 137 45s50 71.667 50 125h102z" />
    <glyph glyph-name="ebreve" unicode="&#x115;" horiz-adv-x="937" 
d="M505 -20c-127.333 0 -226.999 41.667 -298.999 125s-108.667 202 -110 356v132c0 158.667 34.667 283.167 104 373.5s164.666 135.5 285.999 135.5c117.333 0 206.833 -38.333 268.5 -115s93.167 -194 94.5 -352v-104h-643v-61c0 -124 26.5 -219.667 79.5 -287
s127.833 -101 224.5 -101c106.667 0 193 39 259 117l58 -74c-70.667 -96.667 -178 -145 -322 -145zM486.001 998c-87.333 0 -154.5 -30.832 -201.5 -92.499s-72.833 -151.834 -77.5 -270.501h531v29c-5.33301 222.667 -89.333 334 -252 334zM784.001 1492
c0 -76 -26 -138.001 -78 -186.001s-122.333 -72 -211 -72c-87.333 0 -157.333 23.833 -210 71.5s-79 109.834 -79 186.501h102c0 -53.333 15.833 -95 47.5 -125s78.167 -45 139.5 -45c58 0 103.667 15 137 45s50 71.667 50 125h102z" />
    <glyph glyph-name="Edotaccent" unicode="&#x116;" horiz-adv-x="1018" 
d="M851 697h-565v-591h650v-106h-764v1456h759v-108h-645v-545h565v-106zM458 1702c0 23.333 7.33301 42.833 22 58.5s34.667 23.5 60 23.5c26 0 46.333 -7.83301 61 -23.5s22 -35.167 22 -58.5c0 -22.667 -7.33301 -41.667 -22 -57s-35 -23 -61 -23
c-25.333 0 -45.333 7.66699 -60 23s-22 34.333 -22 57z" />
    <glyph glyph-name="edotaccent" unicode="&#x117;" horiz-adv-x="937" 
d="M505 -20c-127.333 0 -226.999 41.667 -298.999 125s-108.667 202 -110 356v132c0 158.667 34.667 283.167 104 373.5s164.666 135.5 285.999 135.5c117.333 0 206.833 -38.333 268.5 -115s93.167 -194 94.5 -352v-104h-643v-61c0 -124 26.5 -219.667 79.5 -287
s127.833 -101 224.5 -101c106.667 0 193 39 259 117l58 -74c-70.667 -96.667 -178 -145 -322 -145zM486.001 998c-87.333 0 -154.5 -30.832 -201.5 -92.499s-72.833 -151.834 -77.5 -270.501h531v29c-5.33301 222.667 -89.333 334 -252 334zM413.001 1381
c0 23.333 7.33301 42.833 22 58.5s34.667 23.5 60 23.5c26 0 46.333 -7.83301 61 -23.5s22 -35.167 22 -58.5c0 -22.667 -7.33301 -41.667 -22 -57s-35 -23 -61 -23c-25.333 0 -45.333 7.66699 -60 23s-22 34.333 -22 57z" />
    <glyph glyph-name="Eogonek" unicode="&#x118;" horiz-adv-x="1018" 
d="M851 697h-565v-591h650v-106h-56l-56 -54c-62 -62 -93 -121.667 -93 -179c0 -56 23.333 -84 70 -84c28.667 0 58 10.667 88 32l12 -85c-37.333 -29.333 -78.333 -44 -123 -44c-42.667 0 -77.667 14.167 -105 42.5s-41 70.833 -41 127.5c0 88.667 47.333 170 142 244h-602
v1456h759v-108h-645v-545h565v-106z" />
    <glyph glyph-name="eogonek" unicode="&#x119;" horiz-adv-x="937" 
d="M505 -20c-127.333 0 -226.999 41.668 -298.999 125.001s-108.667 202 -110 356v132c0 158.667 34.667 283.167 104 373.5s164.666 135.5 285.999 135.5c117.333 0 206.833 -38.333 268.5 -115s93.167 -194 94.5 -352v-104h-643v-61c0 -124 26.5 -219.667 79.5 -287
s127.833 -101 224.5 -101c106.667 0 193 39 259 117l58 -74c-39.333 -53.333 -90.333 -92 -153 -116c-76 -72.667 -114 -139.667 -114 -201c0 -56 23.333 -84 70 -84c28.667 0 58 10.667 88 32l12 -85c-37.333 -29.333 -78.333 -44 -123 -44
c-42.667 0 -77.667 14.167 -105 42.5s-41 70.833 -41 127.5c0 63.333 26 124.666 78 183.999zM486.001 998.001c-87.333 0 -154.5 -30.832 -201.5 -92.499s-72.833 -151.834 -77.5 -270.501h531v29c-5.33301 222.667 -89.333 334 -252 334z" />
    <glyph glyph-name="Ecaron" unicode="&#x11a;" horiz-adv-x="1018" 
d="M851 697h-565v-591h650v-106h-764v1456h759v-108h-645v-545h565v-106zM540 1652l141 193h98v-12l-201 -262h-77l-200 263v11h98z" />
    <glyph glyph-name="ecaron" unicode="&#x11b;" horiz-adv-x="937" 
d="M505 -20c-127.333 0 -226.999 41.667 -298.999 125s-108.667 202 -110 356v132c0 158.667 34.667 283.167 104 373.5s164.666 135.5 285.999 135.5c117.333 0 206.833 -38.333 268.5 -115s93.167 -194 94.5 -352v-104h-643v-61c0 -124 26.5 -219.667 79.5 -287
s127.833 -101 224.5 -101c106.667 0 193 39 259 117l58 -74c-70.667 -96.667 -178 -145 -322 -145zM486.001 998c-87.333 0 -154.5 -30.832 -201.5 -92.499s-72.833 -151.834 -77.5 -270.501h531v29c-5.33301 222.667 -89.333 334 -252 334zM495.001 1330l141 193h98v-12
l-201 -262h-77l-200 263v11h98z" />
    <glyph glyph-name="Gcircumflex" unicode="&#x11c;" horiz-adv-x="1215" 
d="M1059 169c-48.667 -62.667 -110.002 -109.833 -184.002 -141.5s-155 -47.5 -243 -47.5c-149.333 0 -266.666 50 -351.999 150s-129.666 238.667 -132.999 416v354c0 186 40.5 328.5 121.5 427.5s196.5 148.5 346.5 148.5c134 0 239 -37 315 -111
s118.667 -180.667 128 -320h-114c-12 112 -44.833 193.833 -98.5 245.5s-130.167 77.5 -229.5 77.5c-118.667 0 -207.5 -39.5 -266.5 -118.5s-88.5 -194.833 -88.5 -347.5v-336c0 -152 32.5 -270 97.5 -354s156.167 -126 273.5 -126c127.333 0 231.333 40.333 312 121v379
h-319v107h434v-524zM832.998 1610v-10h-100l-138 182l-138 -182h-98v12l201 256h69z" />
    <glyph glyph-name="gcircumflex" unicode="&#x11d;" horiz-adv-x="996" 
d="M109 591c0 170.667 29.332 298.5 87.999 383.5s146.667 127.5 264 127.5c124.667 0 217.334 -57 278.001 -171l6 151h103v-1113c-0.666992 -130.667 -31.834 -230 -93.501 -298s-151.5 -102 -269.5 -102c-59.333 0 -119.166 14.5 -179.499 43.5
s-106.166 64.5 -137.499 106.5l52 80c74 -84.667 159.667 -127 257 -127c90 0 155.5 24 196.5 72s61.833 121 62.5 219v172c-60.667 -103.333 -152.667 -155 -276 -155c-112.667 0 -198.834 42.333 -258.501 127s-90.5 207 -92.5 367v117zM220.999 490
c0 -138.667 21 -240.667 63 -306s108 -98 198 -98c120 0 204.667 57 254 171v553c-50 123.333 -134 185 -252 185c-90.667 0 -157 -32.333 -199 -97s-63.333 -164.667 -64 -300v-108zM727.999 1268v-10h-100l-138 182l-138 -182h-98v12l201 256h69z" />
    <glyph glyph-name="Gbreve" unicode="&#x11e;" horiz-adv-x="1215" 
d="M1059 169c-48.667 -62.667 -110.002 -109.833 -184.002 -141.5s-155 -47.5 -243 -47.5c-149.333 0 -266.666 50 -351.999 150s-129.666 238.667 -132.999 416v354c0 186 40.5 328.5 121.5 427.5s196.5 148.5 346.5 148.5c134 0 239 -37 315 -111
s118.667 -180.667 128 -320h-114c-12 112 -44.833 193.833 -98.5 245.5s-130.167 77.5 -229.5 77.5c-118.667 0 -207.5 -39.5 -266.5 -118.5s-88.5 -194.833 -88.5 -347.5v-336c0 -152 32.5 -270 97.5 -354s156.167 -126 273.5 -126c127.333 0 231.333 40.333 312 121v379
h-319v107h434v-524zM883.998 1835c0 -76 -26 -138.001 -78 -186.001s-122.333 -72 -211 -72c-87.333 0 -157.333 23.833 -210 71.5s-79 109.834 -79 186.501h102c0 -53.333 15.833 -95 47.5 -125s78.167 -45 139.5 -45c58 0 103.667 15 137 45s50 71.667 50 125h102z" />
    <glyph glyph-name="gbreve" unicode="&#x11f;" horiz-adv-x="996" 
d="M109 591c0 170.667 29.332 298.5 87.999 383.5s146.667 127.5 264 127.5c124.667 0 217.334 -57 278.001 -171l6 151h103v-1113c-0.666992 -130.667 -31.834 -230 -93.501 -298s-151.5 -102 -269.5 -102c-59.333 0 -119.166 14.5 -179.499 43.5
s-106.166 64.5 -137.499 106.5l52 80c74 -84.667 159.667 -127 257 -127c90 0 155.5 24 196.5 72s61.833 121 62.5 219v172c-60.667 -103.333 -152.667 -155 -276 -155c-112.667 0 -198.834 42.333 -258.501 127s-90.5 207 -92.5 367v117zM220.999 490
c0 -138.667 21 -240.667 63 -306s108 -98 198 -98c120 0 204.667 57 254 171v553c-50 123.333 -134 185 -252 185c-90.667 0 -157 -32.333 -199 -97s-63.333 -164.667 -64 -300v-108zM778.999 1492c0 -76 -26 -138.001 -78 -186.001s-122.333 -72 -211 -72
c-87.333 0 -157.333 23.833 -210 71.5s-79 109.834 -79 186.501h102c0 -53.333 15.833 -95 47.5 -125s78.167 -45 139.5 -45c58 0 103.667 15 137 45s50 71.667 50 125h102z" />
    <glyph glyph-name="Gdotaccent" unicode="&#x120;" horiz-adv-x="1215" 
d="M1059 169c-48.667 -62.667 -110.002 -109.833 -184.002 -141.5s-155 -47.5 -243 -47.5c-149.333 0 -266.666 50 -351.999 150s-129.666 238.667 -132.999 416v354c0 186 40.5 328.5 121.5 427.5s196.5 148.5 346.5 148.5c134 0 239 -37 315 -111
s118.667 -180.667 128 -320h-114c-12 112 -44.833 193.833 -98.5 245.5s-130.167 77.5 -229.5 77.5c-118.667 0 -207.5 -39.5 -266.5 -118.5s-88.5 -194.833 -88.5 -347.5v-336c0 -152 32.5 -270 97.5 -354s156.167 -126 273.5 -126c127.333 0 231.333 40.333 312 121v379
h-319v107h434v-524zM512.998 1723c0 23.333 7.33301 42.833 22 58.5s34.667 23.5 60 23.5c26 0 46.333 -7.83301 61 -23.5s22 -35.167 22 -58.5c0 -22.667 -7.33301 -41.667 -22 -57s-35 -23 -61 -23c-25.333 0 -45.333 7.66699 -60 23s-22 34.333 -22 57z" />
    <glyph glyph-name="gdotaccent" unicode="&#x121;" horiz-adv-x="996" 
d="M109 591c0 170.667 29.332 298.5 87.999 383.5s146.667 127.5 264 127.5c124.667 0 217.334 -57 278.001 -171l6 151h103v-1113c-0.666992 -130.667 -31.834 -230 -93.501 -298s-151.5 -102 -269.5 -102c-59.333 0 -119.166 14.5 -179.499 43.5
s-106.166 64.5 -137.499 106.5l52 80c74 -84.667 159.667 -127 257 -127c90 0 155.5 24 196.5 72s61.833 121 62.5 219v172c-60.667 -103.333 -152.667 -155 -276 -155c-112.667 0 -198.834 42.333 -258.501 127s-90.5 207 -92.5 367v117zM220.999 490
c0 -138.667 21 -240.667 63 -306s108 -98 198 -98c120 0 204.667 57 254 171v553c-50 123.333 -134 185 -252 185c-90.667 0 -157 -32.333 -199 -97s-63.333 -164.667 -64 -300v-108zM407.999 1381c0 23.333 7.33301 42.833 22 58.5s34.667 23.5 60 23.5
c26 0 46.333 -7.83301 61 -23.5s22 -35.167 22 -58.5c0 -22.667 -7.33301 -41.667 -22 -57s-35 -23 -61 -23c-25.333 0 -45.333 7.66699 -60 23s-22 34.333 -22 57z" />
    <glyph glyph-name="Gcommaaccent" unicode="&#x122;" horiz-adv-x="1215" 
d="M1059 169c-48.667 -62.667 -110.002 -109.833 -184.002 -141.5s-155 -47.5 -243 -47.5c-149.333 0 -266.666 50 -351.999 150s-129.666 238.667 -132.999 416v354c0 186 40.5 328.5 121.5 427.5s196.5 148.5 346.5 148.5c134 0 239 -37 315 -111
s118.667 -180.667 128 -320h-114c-12 112 -44.833 193.833 -98.5 245.5s-130.167 77.5 -229.5 77.5c-118.667 0 -207.5 -39.5 -266.5 -118.5s-88.5 -194.833 -88.5 -347.5v-336c0 -152 32.5 -270 97.5 -354s156.167 -126 273.5 -126c127.333 0 231.333 40.333 312 121v379
h-319v107h434v-524zM582.998 -468.999l-64.999 52c39.333 68 59.666 139.333 60.999 214v93h106v-62c0 -128.667 -34 -227.667 -102 -297z" />
    <glyph glyph-name="gcommaaccent" unicode="&#x123;" horiz-adv-x="996" 
d="M109 591c0 170.667 29.332 298.5 87.999 383.5s146.667 127.5 264 127.5c124.667 0 217.334 -57 278.001 -171l6 151h103v-1113c-0.666992 -130.667 -31.834 -230 -93.501 -298s-151.5 -102 -269.5 -102c-59.333 0 -119.166 14.5 -179.499 43.5
s-106.166 64.5 -137.499 106.5l52 80c74 -84.667 159.667 -127 257 -127c90 0 155.5 24 196.5 72s61.833 121 62.5 219v172c-60.667 -103.333 -152.667 -155 -276 -155c-112.667 0 -198.834 42.333 -258.501 127s-90.5 207 -92.5 367v117zM220.999 490
c0 -138.667 21 -240.667 63 -306s108 -98 198 -98c120 0 204.667 57 254 171v553c-50 123.333 -134 185 -252 185c-90.667 0 -157 -32.333 -199 -97s-63.333 -164.667 -64 -300v-108zM520.999 1638l68.999 -50c-31.333 -64.667 -47.666 -126 -48.999 -184v-140h-110v115
c0 98 30 184.333 90 259z" />
    <glyph glyph-name="Hcircumflex" unicode="&#x124;" horiz-adv-x="1259" 
d="M1085 0h-115v697h-684v-697h-114v1456h114v-653h684v653h115v-1456zM857 1589v-10h-100l-138 182l-138 -182h-98v12l201 256h69z" />
    <glyph glyph-name="hcircumflex" unicode="&#x125;" horiz-adv-x="985" 
d="M259 912c32 58 72.498 104.167 121.498 138.5s105.167 51.5 168.5 51.5c188.667 0 285.334 -125.667 290.001 -377v-725h-110v713c-0.666992 96.667 -17.667 168 -51 214s-85.666 69 -156.999 69c-58 0 -110.167 -21.833 -156.5 -65.5s-81.5 -103.5 -105.5 -179.5v-751
h-111v1536h111v-624zM667.998 1588v-10h-100l-138 182l-138 -182h-98v12l201 256h69z" />
    <glyph glyph-name="Hbar" unicode="&#x126;" horiz-adv-x="1229" 
d="M1067 1124h121v-98h-121v-1026h-114v697h-683v-697h-114v1026h-115v98h115v332h114v-332h683v332h114v-332zM270 803h683v223h-683v-223z" />
    <glyph glyph-name="hbar" unicode="&#x127;" horiz-adv-x="1015" 
d="M533 1257h-244.002v-345c32 58 72.5 104.167 121.5 138.5s105.167 51.5 168.5 51.5c188.667 0 285.334 -125.667 290.001 -377v-725h-110v713c-0.666992 96.667 -17.667 168 -51 214s-85.666 69 -156.999 69c-58 0 -110.167 -21.833 -156.5 -65.5
s-81.5 -103.5 -105.5 -179.5v-751h-111v1257h-163v104h163v175h111v-175h244v-104z" />
    <glyph glyph-name="Itilde" unicode="&#x128;" horiz-adv-x="500" 
d="M307 0h-114v1456h114v-1456zM539 1816c0 -63.333 -16.001 -115 -48.001 -155s-71.333 -60 -118 -60c-29.333 0 -53.5 5.66699 -72.5 17s-36.333 24 -52 38s-31.667 26.667 -48 38s-36.5 17 -60.5 17c-25.333 0 -46.666 -10.5 -63.999 -31.5s-26 -49.833 -26 -86.5l-81 3
c0 63.333 15.833 114.833 47.5 154.5s71.167 59.5 118.5 59.5c20.667 0 39 -3.5 55 -10.5s39.167 -22.5 69.5 -46.5s52 -38.667 65 -44s27.5 -8 43.5 -8c25.333 0 46.833 11 64.5 33s26.5 51.333 26.5 88z" />
    <glyph glyph-name="itilde" unicode="&#x129;" horiz-adv-x="431" 
d="M270 0h-111v1082h111v-1082zM506 1483c0 -63.333 -16.001 -115 -48.001 -155s-71.333 -60 -118 -60c-29.333 0 -53.5 5.66699 -72.5 17s-36.333 24 -52 38s-31.667 26.667 -48 38s-36.5 17 -60.5 17c-25.333 0 -46.666 -10.5 -63.999 -31.5s-26 -49.833 -26 -86.5l-81 3
c0 63.333 15.833 114.833 47.5 154.5s71.167 59.5 118.5 59.5c20.667 0 39 -3.5 55 -10.5s39.167 -22.5 69.5 -46.5s52 -38.667 65 -44s27.5 -8 43.5 -8c25.333 0 46.833 11 64.5 33s26.5 51.333 26.5 88z" />
    <glyph glyph-name="Imacron" unicode="&#x12a;" horiz-adv-x="500" 
d="M307 0h-114v1456h114v-1456zM518 1672h-528v98h528v-98z" />
    <glyph glyph-name="imacron" unicode="&#x12b;" horiz-adv-x="431" 
d="M270 0h-111v1082h111v-1082zM485 1339h-528v98h528v-98z" />
    <glyph glyph-name="Ibreve" unicode="&#x12c;" horiz-adv-x="500" 
d="M307 0h-114v1456h114v-1456zM540 1814c0 -76 -26 -138.001 -78 -186.001s-122.333 -72 -211 -72c-87.333 0 -157.333 23.833 -210 71.5s-79 109.834 -79 186.501h102c0 -53.333 15.833 -95 47.5 -125s78.167 -45 139.5 -45c58 0 103.667 15 137 45s50 71.667 50 125h102z
" />
    <glyph glyph-name="ibreve" unicode="&#x12d;" horiz-adv-x="431" 
d="M270 0h-111v1082h111v-1082zM507 1481c0 -76 -26 -138.001 -78 -186.001s-122.333 -72 -211 -72c-87.333 0 -157.333 23.833 -210 71.5s-79 109.834 -79 186.501h102c0 -53.333 15.833 -95 47.5 -125s78.167 -45 139.5 -45c58 0 103.667 15 137 45s50 71.667 50 125h102z
" />
    <glyph glyph-name="Iogonek" unicode="&#x12e;" horiz-adv-x="500" 
d="M307 0h-114v1456h114v-1456zM299 4l-56 -54.001c-62 -62 -93 -121.667 -93 -179c0 -56 23.333 -84 70 -84c28.667 0 58 10.667 88 32l12 -85c-37.333 -29.333 -78.333 -44 -123 -44c-42.667 0 -77.667 14.167 -105 42.5s-41 70.833 -41 127.5c0 50 17 99.833 51 149.5
s82.333 93.834 145 132.501z" />
    <glyph glyph-name="iogonek" unicode="&#x12f;" horiz-adv-x="431" 
d="M272 0h-112v1082h112v-1082zM144 1394c0 22.667 6.33301 42 19 58s30.667 24 54 24s41.5 -8 54.5 -24s19.5 -35.333 19.5 -58s-6.5 -41.834 -19.5 -57.501s-31.167 -23.5 -54.5 -23.5s-41.333 7.83301 -54 23.5s-19 34.834 -19 57.501zM265 0l-56 -54.001
c-62 -62 -93 -121.667 -93 -179c0 -56 23.333 -84 70 -84c28.667 0 58 10.667 88 32l12 -85c-37.333 -29.333 -78.333 -44 -123 -44c-42.667 0 -77.667 14.167 -105 42.5s-41 70.833 -41 127.5c0 50 17 99.833 51 149.5s82.333 93.834 145 132.501z" />
    <glyph glyph-name="Idotaccent" unicode="&#x130;" horiz-adv-x="500" 
d="M307 0h-114v1456h114v-1456zM168 1702c0 23.333 7.33301 42.833 22 58.5s34.667 23.5 60 23.5c26 0 46.333 -7.83301 61 -23.5s22 -35.167 22 -58.5c0 -22.667 -7.33301 -41.667 -22 -57s-35 -23 -61 -23c-25.333 0 -45.333 7.66699 -60 23s-22 34.333 -22 57z" />
    <glyph glyph-name="dotlessi" unicode="&#x131;" horiz-adv-x="431" 
d="M270 0h-111v1082h111v-1082z" />
    <glyph glyph-name="IJ" unicode="&#x132;" horiz-adv-x="1487" 
d="M307 0h-114v1456h114v-1456zM1207 1456l115 -0.000976562v-1023c0 -140 -34 -250.5 -102 -331.5s-158.333 -121.5 -271 -121.5c-118.667 0 -210.334 36.833 -275.001 110.5s-97 177.167 -97 310.5h114c0 -105.333 22.833 -184.166 68.5 -236.499
s108.834 -78.5 189.501 -78.5c77.333 0 139.5 31 186.5 93s70.833 145 71.5 249v1028z" />
    <glyph glyph-name="ij" unicode="&#x133;" horiz-adv-x="867" 
d="M272 0h-112v1082h112v-1082zM144 1394c0 22.667 6.33301 42 19 58s30.667 24 54 24s41.5 -8 54.5 -24s19.5 -35.333 19.5 -58s-6.5 -41.834 -19.5 -57.501s-31.167 -23.5 -54.5 -23.5s-41.333 7.83301 -54 23.5s-19 34.834 -19 57.501zM698 1082v-1202
c0 -211.333 -79.667 -317 -239 -317c-31.333 0 -61 6.33301 -89 19l1 101c26 -8.66699 50.667 -13 74 -13c94.667 0 142 67.667 142 203v1209h111zM570 1394c0 22.667 6.16699 42 18.5 58s30.166 24 53.499 24s41.5 -8 54.5 -24s19.5 -35.333 19.5 -58
s-6.5 -41.834 -19.5 -57.501s-31.167 -23.5 -54.5 -23.5s-41.166 7.83301 -53.499 23.5s-18.5 34.834 -18.5 57.501z" />
    <glyph glyph-name="Jcircumflex" unicode="&#x134;" horiz-adv-x="987" 
d="M707 1456l115 -0.000976562v-1023c0 -140 -34 -250.5 -102 -331.5s-158.333 -121.5 -271 -121.5c-118.667 0 -210.334 36.833 -275.001 110.5s-97 177.167 -97 310.5h114c0 -105.333 22.833 -184.166 68.5 -236.499s108.834 -78.5 189.501 -78.5
c77.333 0 139.5 31 186.5 93s70.833 145 71.5 249v1028zM990 1567v-10h-100l-138 182l-138 -182h-98v12l201 256h69z" />
    <glyph glyph-name="jcircumflex" unicode="&#x135;" horiz-adv-x="440" 
d="M280 1082v-1171c0 -113.333 -22.667 -199.666 -68 -258.999s-108.666 -89 -189.999 -89c-30 0 -61 6.33301 -93 19l11 101c24.667 -10.667 52 -16 82 -16c47.333 0 83.666 21.333 108.999 64s38 102.667 38 180v1171h111zM463 1227v-10h-100l-138 182l-138 -182h-98v12
l201 256h69z" />
    <glyph glyph-name="Kcommaaccent" unicode="&#x136;" horiz-adv-x="1124" 
d="M455 718l-169 -196v-522h-114v1456h114v-776l160 200l451 576h143l-508 -648l547 -808h-139zM512 -366l-64.999 52c39.333 68 59.666 139.333 60.999 214v93h106v-62c0 -128.667 -34 -227.667 -102 -297z" />
    <glyph glyph-name="kcommaaccent" unicode="&#x137;" horiz-adv-x="888" 
d="M373 541l-113 -126v-415h-112v1536h112v-977l93 118l335 405h138l-380 -457l416 -625h-132zM411 -374l-64.999 52c39.333 68 59.666 139.333 60.999 214v93h106v-62c0 -128.667 -34 -227.667 -102 -297z" />
    <glyph glyph-name="kgreenlandic" unicode="&#x138;" horiz-adv-x="978" 
d="M377 494h-110v-494h-112v1082h112v-479h105l365 479h135l-401 -526l441 -556h-141z" />
    <glyph glyph-name="Lacute" unicode="&#x139;" horiz-adv-x="950" 
d="M287 106h600v-106h-715v1456h115v-1350zM350 1817h145l-231 -281h-105z" />
    <glyph glyph-name="lacute" unicode="&#x13a;" horiz-adv-x="431" 
d="M272 0h-112v1536h112v-1536zM337 1930h145l-231 -281h-105z" />
    <glyph glyph-name="Lcommaaccent" unicode="&#x13b;" horiz-adv-x="950" 
d="M287 106h600v-106h-715v1456h115v-1350zM493 -455l-64.999 52c39.333 68 59.666 139.333 60.999 214v93h106v-62c0 -128.667 -34 -227.667 -102 -297z" />
    <glyph glyph-name="lcommaaccent" unicode="&#x13c;" horiz-adv-x="431" 
d="M272 0h-112v1536h112v-1536zM169 -455l-64.999 52c39.333 68 59.666 139.333 60.999 214v93h106v-62c0 -128.667 -34 -227.667 -102 -297z" />
    <glyph glyph-name="Lcaron" unicode="&#x13d;" horiz-adv-x="950" 
d="M287 106h600v-106h-715v1456h115v-1350zM549 1096l-64.999 52c39.333 68 59.666 139.333 60.999 214v93h106v-62c0 -128.667 -34 -227.667 -102 -297z" />
    <glyph glyph-name="lcaron" unicode="&#x13e;" horiz-adv-x="581" 
d="M272 0h-112v1536h112v-1536zM434 1177l-64.999 52c39.333 68 59.666 139.333 60.999 214v93h106v-62c0 -128.667 -34 -227.667 -102 -297z" />
    <glyph glyph-name="Ldot" unicode="&#x13f;" horiz-adv-x="950" 
d="M287 106h600v-106h-715v1456h115v-1350zM519 776c0 23.333 7.33301 42.833 22 58.5s34.667 23.5 60 23.5c26 0 46.333 -7.83301 61 -23.5s22 -35.167 22 -58.5c0 -22.667 -7.33301 -41.667 -22 -57s-35 -23 -61 -23c-25.333 0 -45.333 7.66699 -60 23s-22 34.333 -22 57z
" />
    <glyph glyph-name="ldot" unicode="&#x140;" horiz-adv-x="651" 
d="M272 0h-112v1536h112v-1536zM383 787c0 23.333 7.33301 42.833 22 58.5s34.667 23.5 60 23.5c26 0 46.333 -7.83301 61 -23.5s22 -35.167 22 -58.5c0 -22.667 -7.33301 -41.667 -22 -57s-35 -23 -61 -23c-25.333 0 -45.333 7.66699 -60 23s-22 34.333 -22 57z" />
    <glyph glyph-name="Lslash" unicode="&#x141;" horiz-adv-x="952" 
d="M284 820l251 95v-92l-251 -95v-622h599v-106h-714v684l-129 -48v92l129 48v680h115v-636z" />
    <glyph glyph-name="lslash" unicode="&#x142;" horiz-adv-x="488" 
d="M299 862l147 68v-92l-147 -68v-770h-111v718l-146 -67v92l146 67v726h111v-674z" />
    <glyph glyph-name="Nacute" unicode="&#x143;" horiz-adv-x="1262" 
d="M1088 0h-114l-687 1240v-1240h-115v1456h115l688 -1242v1242h113v-1456zM750 1851h145l-231 -281h-105z" />
    <glyph glyph-name="nacute" unicode="&#x144;" horiz-adv-x="986" 
d="M254 1082l2.99805 -172.001c32 58.667 72.833 105.334 122.5 140.001s106.167 52 169.5 52c188.667 0 285.334 -125.667 290.001 -377v-725h-110v713c-0.666992 96.667 -17.667 168 -51 214s-85.666 69 -156.999 69c-58 0 -110.167 -21.833 -156.5 -65.5
s-81.5 -103.5 -105.5 -179.5v-751h-111v1082h106zM622.998 1536h145l-231 -281h-105z" />
    <glyph glyph-name="Ncommaaccent" unicode="&#x145;" horiz-adv-x="1262" 
d="M1088 0h-114l-687 1240v-1240h-115v1456h115l688 -1242v1242h113v-1456zM577 -455l-64.999 52c39.333 68 59.666 139.333 60.999 214v93h106v-62c0 -128.667 -34 -227.667 -102 -297z" />
    <glyph glyph-name="ncommaaccent" unicode="&#x146;" horiz-adv-x="986" 
d="M254 1082l2.99805 -172.001c32 58.667 72.833 105.334 122.5 140.001s106.167 52 169.5 52c188.667 0 285.334 -125.667 290.001 -377v-725h-110v713c-0.666992 96.667 -17.667 168 -51 214s-85.666 69 -156.999 69c-58 0 -110.167 -21.833 -156.5 -65.5
s-81.5 -103.5 -105.5 -179.5v-751h-111v1082h106zM448.998 -455.001l-64.999 52c39.333 68 59.666 139.333 60.999 214v93h106v-62c0 -128.667 -34 -227.667 -102 -297z" />
    <glyph glyph-name="Ncaron" unicode="&#x147;" horiz-adv-x="1262" 
d="M1088 0h-114l-687 1240v-1240h-115v1456h115l688 -1242v1242h113v-1456zM630 1646l141 193h98v-12l-201 -262h-77l-200 263v11h98z" />
    <glyph glyph-name="ncaron" unicode="&#x148;" horiz-adv-x="986" 
d="M254 1082l2.99805 -172.001c32 58.667 72.833 105.334 122.5 140.001s106.167 52 169.5 52c188.667 0 285.334 -125.667 290.001 -377v-725h-110v713c-0.666992 96.667 -17.667 168 -51 214s-85.666 69 -156.999 69c-58 0 -110.167 -21.833 -156.5 -65.5
s-81.5 -103.5 -105.5 -179.5v-751h-111v1082h106zM502.998 1330l141 193h98v-12l-201 -262h-77l-200 263v11h98z" />
    <glyph glyph-name="napostrophe" unicode="&#x149;" horiz-adv-x="986" 
d="M254 1082l2.99805 -172.001c32 58.667 72.833 105.334 122.5 140.001s106.167 52 169.5 52c188.667 0 285.334 -125.667 290.001 -377v-725h-110v713c-0.666992 96.667 -17.667 168 -51 214s-85.666 69 -156.999 69c-58 0 -110.167 -21.833 -156.5 -65.5
s-81.5 -103.5 -105.5 -179.5v-751h-111v1082h106zM41.998 1178l-64.999 52c39.333 68 59.666 139.333 60.999 214v93h106v-62c0 -128.667 -34 -227.667 -102 -297z" />
    <glyph glyph-name="Eng" unicode="&#x14a;" horiz-adv-x="1242" 
d="M1077 1456l0.000976562 -1542c0 -114 -23 -201 -69 -261s-109.667 -90 -191 -90c-32.667 0 -64.334 6.33301 -95.001 19l10 104c23.333 -10 51.333 -15 84 -15c46.667 0 82.667 21.167 108 63.5s38 102.166 38 179.499v86l-679 1235v-1235h-114v1456h114l679 -1233v1233
h115z" />
    <glyph glyph-name="eng" unicode="&#x14b;" horiz-adv-x="1001" 
d="M249 1082l9 -178.001c62.667 132 158.334 198 287.001 198c101.333 0 177 -36.5 227 -109.5s75.333 -181.5 76 -325.5v-756c0 -113.333 -22.833 -199.666 -68.5 -258.999s-108.834 -89 -189.501 -89c-34.667 0 -69 6.33301 -103 19l12 106c24.667 -10.667 55 -16 91 -16
c46.667 0 82.834 20.5 108.501 61.5s38.5 100.167 38.5 177.5v748c0 116 -17.5 201 -52.5 255s-90.5 81 -166.5 81c-124.667 0 -210.334 -70 -257.001 -210v-785h-111v1082h99z" />
    <glyph glyph-name="Omacron" unicode="&#x14c;" horiz-adv-x="1208" 
d="M1075 570c0 -188 -41.165 -333.333 -123.498 -436s-197.833 -154 -346.5 -154c-147.333 0 -262.833 51.333 -346.5 154s-125.834 247 -126.501 433v317c0 187.333 41.667 332.833 125 436.5s198.666 155.5 345.999 155.5c149.333 0 265.333 -52 348 -156
s124 -250.333 124 -439v-311zM960.002 886c0 159.333 -30.668 279 -92.001 359s-149.666 120 -264.999 120c-111.333 0 -198.333 -39.167 -261 -117.5s-94.667 -195.5 -96 -351.5v-326c0 -160 31.667 -280.167 95 -360.5s151.333 -120.5 264 -120.5
c116 0 204.167 40 264.5 120s90.5 200.333 90.5 361v316zM870.001 1677h-528v98h528v-98z" />
    <glyph glyph-name="omacron" unicode="&#x14d;" horiz-adv-x="1005" 
d="M106 596c0 156 35.335 279.334 106.002 370.001s167 136 289 136c122.667 0 219.167 -44.667 289.5 -134s105.833 -212.333 106.5 -369v-115c0 -158.667 -35.5 -282.334 -106.5 -371.001s-166.833 -133 -287.5 -133s-216.334 43.333 -287.001 130
s-107.334 206 -110.001 358v128zM218.002 484.001c0 -124.667 25.1699 -222.668 75.5029 -294.001s120.166 -107 209.499 -107c91.333 0 161.166 34.333 209.499 103s72.833 167 73.5 295v115c0 124.667 -25.333 222.834 -76 294.501s-120.334 107.5 -209.001 107.5
c-86 0 -154.333 -35 -205 -105s-76.667 -166.333 -78 -289v-120zM767.005 1350h-528v98h528v-98z" />
    <glyph glyph-name="Obreve" unicode="&#x14e;" horiz-adv-x="1208" 
d="M1075 570c0 -188 -41.165 -333.333 -123.498 -436s-197.833 -154 -346.5 -154c-147.333 0 -262.833 51.333 -346.5 154s-125.834 247 -126.501 433v317c0 187.333 41.667 332.833 125 436.5s198.666 155.5 345.999 155.5c149.333 0 265.333 -52 348 -156
s124 -250.333 124 -439v-311zM960.002 886c0 159.333 -30.668 279 -92.001 359s-149.666 120 -264.999 120c-111.333 0 -198.333 -39.167 -261 -117.5s-94.667 -195.5 -96 -351.5v-326c0 -160 31.667 -280.167 95 -360.5s151.333 -120.5 264 -120.5
c116 0 204.167 40 264.5 120s90.5 200.333 90.5 361v316zM892.001 1819c0 -76 -26 -138.001 -78 -186.001s-122.333 -72 -211 -72c-87.333 0 -157.333 23.833 -210 71.5s-79 109.834 -79 186.501h102c0 -53.333 15.833 -95 47.5 -125s78.167 -45 139.5 -45
c58 0 103.667 15 137 45s50 71.667 50 125h102z" />
    <glyph glyph-name="obreve" unicode="&#x14f;" horiz-adv-x="1005" 
d="M106 596c0 156 35.335 279.334 106.002 370.001s167 136 289 136c122.667 0 219.167 -44.667 289.5 -134s105.833 -212.333 106.5 -369v-115c0 -158.667 -35.5 -282.334 -106.5 -371.001s-166.833 -133 -287.5 -133s-216.334 43.333 -287.001 130
s-107.334 206 -110.001 358v128zM218.002 484.001c0 -124.667 25.1699 -222.668 75.5029 -294.001s120.166 -107 209.499 -107c91.333 0 161.166 34.333 209.499 103s72.833 167 73.5 295v115c0 124.667 -25.333 222.834 -76 294.501s-120.334 107.5 -209.001 107.5
c-86 0 -154.333 -35 -205 -105s-76.667 -166.333 -78 -289v-120zM789.005 1492c0 -76 -26 -138.001 -78 -186.001s-122.333 -72 -211 -72c-87.333 0 -157.333 23.833 -210 71.5s-79 109.834 -79 186.501h102c0 -53.333 15.833 -95 47.5 -125s78.167 -45 139.5 -45
c58 0 103.667 15 137 45s50 71.667 50 125h102z" />
    <glyph glyph-name="Ohungarumlaut" unicode="&#x150;" horiz-adv-x="1208" 
d="M1075 570c0 -188 -41.165 -333.333 -123.498 -436s-197.833 -154 -346.5 -154c-147.333 0 -262.833 51.333 -346.5 154s-125.834 247 -126.501 433v317c0 187.333 41.667 332.833 125 436.5s198.666 155.5 345.999 155.5c149.333 0 265.333 -52 348 -156
s124 -250.333 124 -439v-311zM960.002 886c0 159.333 -30.668 279 -92.001 359s-149.666 120 -264.999 120c-111.333 0 -198.333 -39.167 -261 -117.5s-94.667 -195.5 -96 -351.5v-326c0 -160 31.667 -280.167 95 -360.5s151.333 -120.5 264 -120.5
c116 0 204.167 40 264.5 120s90.5 200.333 90.5 361v316zM847.001 1861h131l-233 -303h-109zM582.001 1861h125l-192 -303h-98z" />
    <glyph glyph-name="ohungarumlaut" unicode="&#x151;" horiz-adv-x="1005" 
d="M106 596c0 156 35.335 279.334 106.002 370.001s167 136 289 136c122.667 0 219.167 -44.667 289.5 -134s105.833 -212.333 106.5 -369v-115c0 -158.667 -35.5 -282.334 -106.5 -371.001s-166.833 -133 -287.5 -133s-216.334 43.333 -287.001 130
s-107.334 206 -110.001 358v128zM218.002 484.001c0 -124.667 25.1699 -222.668 75.5029 -294.001s120.166 -107 209.499 -107c91.333 0 161.166 34.333 209.499 103s72.833 167 73.5 295v115c0 124.667 -25.333 222.834 -76 294.501s-120.334 107.5 -209.001 107.5
c-86 0 -154.333 -35 -205 -105s-76.667 -166.333 -78 -289v-120zM744.005 1535h131l-233 -303h-109zM479.005 1535h125l-192 -303h-98z" />
    <glyph glyph-name="OE" unicode="&#x152;" horiz-adv-x="1653" 
d="M1533 0l-710 -0.000976562c-104.667 -14 -190.667 -21 -258 -21c-86.667 0 -164.5 24.333 -233.5 73s-122.833 117.834 -161.5 207.501s-58.667 191.167 -60 304.5v316c0 114.667 18.833 217.5 56.5 308.5s91.167 161.667 160.5 212s148 75.5 236 75.5
c73.333 0 160 -6.66699 260 -20h705v-108h-645v-545h564v-106h-564v-591h650v-106zM565 81.999c72 0 139.999 4.66699 203.999 14v1262c-56 9.33301 -124.667 14 -206 14c-105.333 0 -188.666 -43.667 -249.999 -131s-92 -208.333 -92 -363v-302
c0 -151.333 31.333 -271.5 94 -360.5s146 -133.5 250 -133.5z" />
    <glyph glyph-name="oe" unicode="&#x153;" horiz-adv-x="1624" 
d="M99 556c0 162.667 37.166 294.334 111.499 395.001s171.5 151 291.5 151c76.667 0 146 -22.5 208 -67.5s109.667 -109.167 143 -192.5c32 76.667 77.5 139.167 136.5 187.5s124.167 72.5 195.5 72.5c111.333 0 198.833 -40.5 262.5 -121.5s96.5 -191.167 98.5 -330.5
v-114h-634v-26c0 -125.333 27 -227.833 81 -307.5s123 -119.5 207 -119.5c116.667 0 206.667 39.667 270 119l48 -85c-72.667 -91.333 -178.667 -137 -318 -137c-76 0 -144.5 22.667 -205.5 68s-108.5 108 -142.5 188c-32.667 -78.667 -78.667 -141 -138 -187
s-129.666 -69 -210.999 -69c-121.333 0 -219 50.167 -293 150.5s-111 234.166 -111 401.499v24zM210.999 524c0 -129.333 26.3311 -235.167 78.998 -317.5s123.667 -123.5 213 -123.5c88 0 158.333 41.167 211 123.5s79 190.833 79 325.5v24
c0 129.333 -26.667 235.333 -80 318s-123.666 124 -210.999 124s-157.666 -41.333 -210.999 -124s-80 -191.667 -80 -327v-23zM1185 997.999c-68.667 0 -127.833 -32.833 -177.5 -98.5s-80.167 -152.167 -91.5 -259.5h519v29c0 96 -22.667 174.833 -68 236.5
s-106 92.5 -182 92.5z" />
    <glyph glyph-name="Racute" unicode="&#x154;" horiz-adv-x="1126" 
d="M625 606l-340 0.000976562v-606h-115v1456h399c132.667 0 235.5 -37.833 308.5 -113.5s109.5 -180.834 109.5 -315.501c0 -94 -22.667 -176.5 -68 -247.5s-106.333 -120.167 -183 -147.5l303 -619v-13h-122zM285 712.001h304c86 0 154.667 29.5 206 88.5
s77 134.5 77 226.5c0 102 -26.667 181 -80 237s-128 84 -224 84h-283v-636zM650 1851h145l-231 -281h-105z" />
    <glyph glyph-name="racute" unicode="&#x155;" horiz-adv-x="619" 
d="M572 978c-26.667 4.66699 -50 7 -70 7c-61.333 0 -112.833 -21 -154.5 -63s-71.167 -100.333 -88.5 -175v-747h-111v1082h109l2 -162c52.667 121.333 135.334 182 248.001 182c29.333 0 51.666 -4.33301 66.999 -13zM484 1536h145l-231 -281h-105z" />
    <glyph glyph-name="Rcommaaccent" unicode="&#x156;" horiz-adv-x="1126" 
d="M625 606l-340 0.000976562v-606h-115v1456h399c132.667 0 235.5 -37.833 308.5 -113.5s109.5 -180.834 109.5 -315.501c0 -94 -22.667 -176.5 -68 -247.5s-106.333 -120.167 -183 -147.5l303 -619v-13h-122zM285 712.001h304c86 0 154.667 29.5 206 88.5
s77 134.5 77 226.5c0 102 -26.667 181 -80 237s-128 84 -224 84h-283v-636zM482 -454.999l-64.999 52c39.333 68 59.666 139.333 60.999 214v93h106v-62c0 -128.667 -34 -227.667 -102 -297z" />
    <glyph glyph-name="rcommaaccent" unicode="&#x157;" horiz-adv-x="619" 
d="M572 978c-26.667 4.66699 -50 7 -70 7c-61.333 0 -112.833 -21 -154.5 -63s-71.167 -100.333 -88.5 -175v-747h-111v1082h109l2 -162c52.667 121.333 135.334 182 248.001 182c29.333 0 51.666 -4.33301 66.999 -13zM162 -451l-64.999 52
c39.333 68 59.666 139.333 60.999 214v93h106v-62c0 -128.667 -34 -227.667 -102 -297z" />
    <glyph glyph-name="Rcaron" unicode="&#x158;" horiz-adv-x="1126" 
d="M625 606l-340 0.000976562v-606h-115v1456h399c132.667 0 235.5 -37.833 308.5 -113.5s109.5 -180.834 109.5 -315.501c0 -94 -22.667 -176.5 -68 -247.5s-106.333 -120.167 -183 -147.5l303 -619v-13h-122zM285 712.001h304c86 0 154.667 29.5 206 88.5
s77 134.5 77 226.5c0 102 -26.667 181 -80 237s-128 84 -224 84h-283v-636zM530 1646l141 193h98v-12l-201 -262h-77l-200 263v11h98z" />
    <glyph glyph-name="rcaron" unicode="&#x159;" horiz-adv-x="619" 
d="M572 978c-26.667 4.66699 -50 7 -70 7c-61.333 0 -112.833 -21 -154.5 -63s-71.167 -100.333 -88.5 -175v-747h-111v1082h109l2 -162c52.667 121.333 135.334 182 248.001 182c29.333 0 51.666 -4.33301 66.999 -13zM365 1330l141 193h98v-12l-201 -262h-77l-200 263v11
h98z" />
    <glyph glyph-name="Sacute" unicode="&#x15a;" horiz-adv-x="1059" 
d="M856 358c0 81.333 -23.168 145.332 -69.501 191.999s-132.833 91.334 -259.5 134.001s-219.667 90.334 -279 143.001c-78 68.667 -117 159.334 -117 272.001c0 111.333 38.333 202 115 272s175.667 105 297 105c124 0 225.333 -40.667 304 -122s118 -186 118 -314h-115
c0 98 -27.5 177.167 -82.5 237.5s-129.833 90.5 -224.5 90.5c-92 0 -164.5 -24.833 -217.5 -74.5s-79.5 -113.834 -79.5 -192.501c0 -73.333 25 -133.333 75 -180s129.667 -88.167 239 -124.5s192 -74 248 -113s97.333 -84.833 124 -137.5s40 -114.667 40 -186
c0 -114 -38.5 -205.833 -115.5 -275.5s-178.833 -104.5 -305.5 -104.5c-85.333 0 -163.166 17.5 -233.499 52.5s-125.333 85.333 -165 151s-59.5 143.167 -59.5 232.5h114c0 -102.667 31 -183.334 93 -242.001s145.667 -88 251 -88c92 0 165.833 24.667 221.5 74
s83.5 115.333 83.5 198zM665.999 1862h145l-231 -281h-105z" />
    <glyph glyph-name="sacute" unicode="&#x15b;" horiz-adv-x="914" 
d="M689 266c0 46.667 -19.335 87.4971 -58.002 122.497s-104.167 73.333 -196.5 115s-156.833 76.334 -193.5 104.001s-63.667 57.834 -81 90.501s-26 71.334 -26 116.001c0 83.333 30 152.166 90 206.499s137.667 81.5 233 81.5c102.667 0 184.667 -29 246 -87
s92 -134.667 92 -230h-111c0 61.333 -21 112.166 -63 152.499s-96.667 60.5 -164 60.5c-65.333 0 -117.166 -16.667 -155.499 -50s-57.5 -76.666 -57.5 -129.999c0 -43.333 14.667 -78.666 44 -105.999s92.666 -64.333 189.999 -111c100.667 -44 170 -80.333 208 -109
s66.667 -60.5 86 -95.5s29 -76.5 29 -124.5c0 -89.333 -31 -160.333 -93 -213s-143.667 -79 -245 -79c-107.333 0 -194.166 29.333 -260.499 88s-99.5 134.334 -99.5 227.001h112c3.33301 -67.333 25.833 -119.5 67.5 -156.5s101.834 -55.5 180.501 -55.5
c68 0 122.667 16.667 164 50s62 77.666 62 132.999zM594.998 1536h145l-231 -281h-105z" />
    <glyph glyph-name="Scircumflex" unicode="&#x15c;" horiz-adv-x="1059" 
d="M856 358c0 81.333 -23.168 145.332 -69.501 191.999s-132.833 91.334 -259.5 134.001s-219.667 90.334 -279 143.001c-78 68.667 -117 159.334 -117 272.001c0 111.333 38.333 202 115 272s175.667 105 297 105c124 0 225.333 -40.667 304 -122s118 -186 118 -314h-115
c0 98 -27.5 177.167 -82.5 237.5s-129.833 90.5 -224.5 90.5c-92 0 -164.5 -24.833 -217.5 -74.5s-79.5 -113.834 -79.5 -192.501c0 -73.333 25 -133.333 75 -180s129.667 -88.167 239 -124.5s192 -74 248 -113s97.333 -84.833 124 -137.5s40 -114.667 40 -186
c0 -114 -38.5 -205.833 -115.5 -275.5s-178.833 -104.5 -305.5 -104.5c-85.333 0 -163.166 17.5 -233.499 52.5s-125.333 85.333 -165 151s-59.5 143.167 -59.5 232.5h114c0 -102.667 31 -183.334 93 -242.001s145.667 -88 251 -88c92 0 165.833 24.667 221.5 74
s83.5 115.333 83.5 198zM783.999 1594v-10h-100l-138 182l-138 -182h-98v12l201 256h69z" />
    <glyph glyph-name="scircumflex" unicode="&#x15d;" horiz-adv-x="914" 
d="M689 266c0 46.667 -19.335 87.4971 -58.002 122.497s-104.167 73.333 -196.5 115s-156.833 76.334 -193.5 104.001s-63.667 57.834 -81 90.501s-26 71.334 -26 116.001c0 83.333 30 152.166 90 206.499s137.667 81.5 233 81.5c102.667 0 184.667 -29 246 -87
s92 -134.667 92 -230h-111c0 61.333 -21 112.166 -63 152.499s-96.667 60.5 -164 60.5c-65.333 0 -117.166 -16.667 -155.499 -50s-57.5 -76.666 -57.5 -129.999c0 -43.333 14.667 -78.666 44 -105.999s92.666 -64.333 189.999 -111c100.667 -44 170 -80.333 208 -109
s66.667 -60.5 86 -95.5s29 -76.5 29 -124.5c0 -89.333 -31 -160.333 -93 -213s-143.667 -79 -245 -79c-107.333 0 -194.166 29.333 -260.499 88s-99.5 134.334 -99.5 227.001h112c3.33301 -67.333 25.833 -119.5 67.5 -156.5s101.834 -55.5 180.501 -55.5
c68 0 122.667 16.667 164 50s62 77.666 62 132.999zM712.998 1268v-10h-100l-138 182l-138 -182h-98v12l201 256h69z" />
    <glyph glyph-name="Scedilla" unicode="&#x15e;" horiz-adv-x="1059" 
d="M856 358c0 81.333 -23.168 145.332 -69.501 191.999s-132.833 91.334 -259.5 134.001s-219.667 90.334 -279 143.001c-78 68.667 -117 159.334 -117 272.001c0 111.333 38.333 202 115 272s175.667 105 297 105c124 0 225.333 -40.667 304 -122s118 -186 118 -314h-115
c0 98 -27.5 177.167 -82.5 237.5s-129.833 90.5 -224.5 90.5c-92 0 -164.5 -24.833 -217.5 -74.5s-79.5 -113.834 -79.5 -192.501c0 -73.333 25 -133.333 75 -180s129.667 -88.167 239 -124.5s192 -74 248 -113s97.333 -84.833 124 -137.5s40 -114.667 40 -186
c0 -114 -38.5 -205.833 -115.5 -275.5s-178.833 -104.5 -305.5 -104.5c-85.333 0 -163.166 17.5 -233.499 52.5s-125.333 85.333 -165 151s-59.5 143.167 -59.5 232.5h114c0 -102.667 31 -183.334 93 -242.001s145.667 -88 251 -88c92 0 165.833 24.667 221.5 74
s83.5 115.333 83.5 198zM594.999 -4.00098l-10 -64c90.667 -14.667 136 -71.667 136 -171c0 -60.667 -22 -109.167 -66 -145.5s-104.667 -54.5 -182 -54.5l-6 79c47.333 0 86.5 10.333 117.5 31s46.5 50 46.5 88c0 34 -9.83301 59.167 -29.5 75.5s-58.5 27.5 -116.5 33.5
l25 128h85z" />
    <glyph glyph-name="scedilla" unicode="&#x15f;" horiz-adv-x="914" 
d="M689 266c0 46.667 -19.335 87.4971 -58.002 122.497s-104.167 73.333 -196.5 115s-156.833 76.334 -193.5 104.001s-63.667 57.834 -81 90.501s-26 71.334 -26 116.001c0 83.333 30 152.166 90 206.499s137.667 81.5 233 81.5c102.667 0 184.667 -29 246 -87
s92 -134.667 92 -230h-111c0 61.333 -21 112.166 -63 152.499s-96.667 60.5 -164 60.5c-65.333 0 -117.166 -16.667 -155.499 -50s-57.5 -76.666 -57.5 -129.999c0 -43.333 14.667 -78.666 44 -105.999s92.666 -64.333 189.999 -111c100.667 -44 170 -80.333 208 -109
s66.667 -60.5 86 -95.5s29 -76.5 29 -124.5c0 -89.333 -31 -160.333 -93 -213s-143.667 -79 -245 -79c-107.333 0 -194.166 29.333 -260.499 88s-99.5 134.334 -99.5 227.001h112c3.33301 -67.333 25.833 -119.5 67.5 -156.5s101.834 -55.5 180.501 -55.5
c68 0 122.667 16.667 164 50s62 77.666 62 132.999zM520.998 -6.00293l-10 -64c90.667 -14.667 136 -71.667 136 -171c0 -60.667 -22 -109.167 -66 -145.5s-104.667 -54.5 -182 -54.5l-6 79c47.333 0 86.5 10.333 117.5 31s46.5 50 46.5 88c0 34 -9.83301 59.167 -29.5 75.5
s-58.5 27.5 -116.5 33.5l25 128h85z" />
    <glyph glyph-name="Scaron" unicode="&#x160;" horiz-adv-x="1059" 
d="M856 358c0 81.333 -23.168 145.332 -69.501 191.999s-132.833 91.334 -259.5 134.001s-219.667 90.334 -279 143.001c-78 68.667 -117 159.334 -117 272.001c0 111.333 38.333 202 115 272s175.667 105 297 105c124 0 225.333 -40.667 304 -122s118 -186 118 -314h-115
c0 98 -27.5 177.167 -82.5 237.5s-129.833 90.5 -224.5 90.5c-92 0 -164.5 -24.833 -217.5 -74.5s-79.5 -113.834 -79.5 -192.501c0 -73.333 25 -133.333 75 -180s129.667 -88.167 239 -124.5s192 -74 248 -113s97.333 -84.833 124 -137.5s40 -114.667 40 -186
c0 -114 -38.5 -205.833 -115.5 -275.5s-178.833 -104.5 -305.5 -104.5c-85.333 0 -163.166 17.5 -233.499 52.5s-125.333 85.333 -165 151s-59.5 143.167 -59.5 232.5h114c0 -102.667 31 -183.334 93 -242.001s145.667 -88 251 -88c92 0 165.833 24.667 221.5 74
s83.5 115.333 83.5 198zM545.999 1657l141 193h98v-12l-201 -262h-77l-200 263v11h98z" />
    <glyph glyph-name="scaron" unicode="&#x161;" horiz-adv-x="914" 
d="M689 266c0 46.667 -19.335 87.4971 -58.002 122.497s-104.167 73.333 -196.5 115s-156.833 76.334 -193.5 104.001s-63.667 57.834 -81 90.501s-26 71.334 -26 116.001c0 83.333 30 152.166 90 206.499s137.667 81.5 233 81.5c102.667 0 184.667 -29 246 -87
s92 -134.667 92 -230h-111c0 61.333 -21 112.166 -63 152.499s-96.667 60.5 -164 60.5c-65.333 0 -117.166 -16.667 -155.499 -50s-57.5 -76.666 -57.5 -129.999c0 -43.333 14.667 -78.666 44 -105.999s92.666 -64.333 189.999 -111c100.667 -44 170 -80.333 208 -109
s66.667 -60.5 86 -95.5s29 -76.5 29 -124.5c0 -89.333 -31 -160.333 -93 -213s-143.667 -79 -245 -79c-107.333 0 -194.166 29.333 -260.499 88s-99.5 134.334 -99.5 227.001h112c3.33301 -67.333 25.833 -119.5 67.5 -156.5s101.834 -55.5 180.501 -55.5
c68 0 122.667 16.667 164 50s62 77.666 62 132.999zM474.998 1330l141 193h98v-12l-201 -262h-77l-200 263v11h98z" />
    <glyph glyph-name="Tcommaaccent" unicode="&#x162;" horiz-adv-x="1067" 
d="M1005 1348h-414v-1348h-115v1348h-413v108h942v-108zM580 0l-10 -64c90.667 -14.667 136 -71.667 136 -171c0 -60.667 -22 -109.167 -66 -145.5s-104.667 -54.5 -182 -54.5l-6 79c47.333 0 86.5 10.333 117.5 31s46.5 50 46.5 88c0 34 -9.83301 59.167 -29.5 75.5
s-58.5 27.5 -116.5 33.5l25 128h85z" />
    <glyph glyph-name="tcommaaccent" unicode="&#x163;" horiz-adv-x="594" 
d="M315 1358l-0.000976562 -276h185v-100h-185v-719c0 -59.333 8.83301 -103.5 26.5 -132.5s47.167 -43.5 88.5 -43.5c18 0 44.667 3.33301 80 10l3 -100c-25.333 -11.333 -61.666 -17 -108.999 -17c-130 0 -196.667 89.333 -200 268v734h-167v100h167v276h111zM431.999 0
l-10 -64c90.667 -14.667 136 -71.667 136 -171c0 -60.667 -22 -109.167 -66 -145.5s-104.667 -54.5 -182 -54.5l-6 79c47.333 0 86.5 10.333 117.5 31s46.5 50 46.5 88c0 34 -9.83301 59.167 -29.5 75.5s-58.5 27.5 -116.5 33.5l25 128h85z" />
    <glyph glyph-name="Tcaron" unicode="&#x164;" horiz-adv-x="1067" 
d="M1005 1348h-414v-1348h-115v1348h-413v108h942v-108zM533 1642l141 193h98v-12l-201 -262h-77l-200 263v11h98z" />
    <glyph glyph-name="tcaron" unicode="&#x165;" horiz-adv-x="634" 
d="M315 1358l-0.000976562 -276h185v-100h-185v-719c0 -59.333 8.83301 -103.5 26.5 -132.5s47.167 -43.5 88.5 -43.5c18 0 44.667 3.33301 80 10l3 -100c-25.333 -11.333 -61.666 -17 -108.999 -17c-130 0 -196.667 89.333 -200 268v734h-167v100h167v276h111z
M486.999 1249l-64.999 52c39.333 68 59.666 139.333 60.999 214v93h106v-62c0 -128.667 -34 -227.667 -102 -297z" />
    <glyph glyph-name="Tbar" unicode="&#x166;" horiz-adv-x="1067" 
d="M791 834h-200v-834h-115v834h-203v104h203v410h-413v108h942v-108h-414v-410h200v-104z" />
    <glyph glyph-name="tbar" unicode="&#x167;" horiz-adv-x="594" 
d="M315 1358l-0.000976562 -276h185v-100h-185v-261h231v-104h-231v-354c0 -59.333 8.83301 -103.5 26.5 -132.5s47.167 -43.5 88.5 -43.5c18 0 44.667 3.33301 80 10l3 -100c-25.333 -11.333 -61.666 -17 -108.999 -17c-130 0 -196.667 89.333 -200 268v369h-176v104h176
v261h-167v100h167v276h111z" />
    <glyph glyph-name="Utilde" unicode="&#x168;" horiz-adv-x="1168" 
d="M1018 1456v-1033c-0.666992 -140.667 -38.5 -249.667 -113.5 -327s-181.5 -116 -319.5 -116c-140 0 -247.167 38.167 -321.5 114.5s-111.5 187.166 -111.5 332.499v1029h114v-1025c0 -230 106.333 -345 319 -345c209.333 0 315.333 111.667 318 335v1035h115zM878 1810
c0 -63.333 -16.001 -115 -48.001 -155s-71.333 -60 -118 -60c-29.333 0 -53.5 5.66699 -72.5 17s-36.333 24 -52 38s-31.667 26.667 -48 38s-36.5 17 -60.5 17c-25.333 0 -46.666 -10.5 -63.999 -31.5s-26 -49.833 -26 -86.5l-81 3c0 63.333 15.833 114.833 47.5 154.5
s71.167 59.5 118.5 59.5c20.667 0 39 -3.5 55 -10.5s39.167 -22.5 69.5 -46.5s52 -38.667 65 -44s27.5 -8 43.5 -8c25.333 0 46.833 11 64.5 33s26.5 51.333 26.5 88z" />
    <glyph glyph-name="utilde" unicode="&#x169;" horiz-adv-x="986" 
d="M728 129c-61.333 -99.333 -156.333 -149 -285 -149c-98 0 -172 34 -222 102s-75.333 168 -76 300v700h110v-697c0 -98 17.333 -172.333 52 -223s84.667 -76 150 -76c140 0 229.667 68 269 204v792h112v-1082h-108zM788 1495c0 -63.333 -16.001 -115 -48.001 -155
s-71.333 -60 -118 -60c-29.333 0 -53.5 5.66699 -72.5 17s-36.333 24 -52 38s-31.667 26.667 -48 38s-36.5 17 -60.5 17c-25.333 0 -46.666 -10.5 -63.999 -31.5s-26 -49.833 -26 -86.5l-81 3c0 63.333 15.833 114.833 47.5 154.5s71.167 59.5 118.5 59.5
c20.667 0 39 -3.5 55 -10.5s39.167 -22.5 69.5 -46.5s52 -38.667 65 -44s27.5 -8 43.5 -8c25.333 0 46.833 11 64.5 33s26.5 51.333 26.5 88z" />
    <glyph glyph-name="Umacron" unicode="&#x16a;" horiz-adv-x="1168" 
d="M1018 1456v-1033c-0.666992 -140.667 -38.5 -249.667 -113.5 -327s-181.5 -116 -319.5 -116c-140 0 -247.167 38.167 -321.5 114.5s-111.5 187.166 -111.5 332.499v1029h114v-1025c0 -230 106.333 -345 319 -345c209.333 0 315.333 111.667 318 335v1035h115zM857 1666
h-528v98h528v-98z" />
    <glyph glyph-name="umacron" unicode="&#x16b;" horiz-adv-x="986" 
d="M728 129c-61.333 -99.333 -156.333 -149 -285 -149c-98 0 -172 34 -222 102s-75.333 168 -76 300v700h110v-697c0 -98 17.333 -172.333 52 -223s84.667 -76 150 -76c140 0 229.667 68 269 204v792h112v-1082h-108zM767 1351h-528v98h528v-98z" />
    <glyph glyph-name="Ubreve" unicode="&#x16c;" horiz-adv-x="1168" 
d="M1018 1456v-1033c-0.666992 -140.667 -38.5 -249.667 -113.5 -327s-181.5 -116 -319.5 -116c-140 0 -247.167 38.167 -321.5 114.5s-111.5 187.166 -111.5 332.499v1029h114v-1025c0 -230 106.333 -345 319 -345c209.333 0 315.333 111.667 318 335v1035h115zM879 1808
c0 -76 -26 -138.001 -78 -186.001s-122.333 -72 -211 -72c-87.333 0 -157.333 23.833 -210 71.5s-79 109.834 -79 186.501h102c0 -53.333 15.833 -95 47.5 -125s78.167 -45 139.5 -45c58 0 103.667 15 137 45s50 71.667 50 125h102z" />
    <glyph glyph-name="ubreve" unicode="&#x16d;" horiz-adv-x="986" 
d="M728 129c-61.333 -99.333 -156.333 -149 -285 -149c-98 0 -172 34 -222 102s-75.333 168 -76 300v700h110v-697c0 -98 17.333 -172.333 52 -223s84.667 -76 150 -76c140 0 229.667 68 269 204v792h112v-1082h-108zM789 1493c0 -76 -26 -138.001 -78 -186.001
s-122.333 -72 -211 -72c-87.333 0 -157.333 23.833 -210 71.5s-79 109.834 -79 186.501h102c0 -53.333 15.833 -95 47.5 -125s78.167 -45 139.5 -45c58 0 103.667 15 137 45s50 71.667 50 125h102z" />
    <glyph glyph-name="Uring" unicode="&#x16e;" horiz-adv-x="1168" 
d="M1018 1456v-1033c-0.666992 -140.667 -38.5 -249.667 -113.5 -327s-181.5 -116 -319.5 -116c-140 0 -247.167 38.167 -321.5 114.5s-111.5 187.166 -111.5 332.499v1029h114v-1025c0 -230 106.333 -345 319 -345c209.333 0 315.333 111.667 318 335v1035h115zM398 1716
c0 53.333 18.667 98.666 56 135.999s83 56 137 56s99.667 -18.667 137 -56s56 -82.666 56 -135.999c0 -52.667 -18.333 -97 -55 -133s-82.667 -54 -138 -54s-101.333 18 -138 54s-55 80.333 -55 133zM475 1716c0 -32.667 11.001 -60 33.001 -82s49.667 -33 83 -33
c32 0 59.5 10.833 82.5 32.5s34.5 49.167 34.5 82.5c0 35.333 -11.333 64 -34 86s-50.334 33 -83.001 33c-34 0 -61.833 -11.333 -83.5 -34s-32.5 -51 -32.5 -85z" />
    <glyph glyph-name="uring" unicode="&#x16f;" horiz-adv-x="986" 
d="M728 129c-61.333 -99.333 -156.333 -149 -285 -149c-98 0 -172 34 -222 102s-75.333 168 -76 300v700h110v-697c0 -98 17.333 -172.333 52 -223s84.667 -76 150 -76c140 0 229.667 68 269 204v792h112v-1082h-108zM308 1401c0 53.333 18.667 98.666 56 135.999
s83 56 137 56s99.667 -18.667 137 -56s56 -82.666 56 -135.999c0 -52.667 -18.333 -97 -55 -133s-82.667 -54 -138 -54s-101.333 18 -138 54s-55 80.333 -55 133zM385 1401c0 -32.667 11.001 -60 33.001 -82s49.667 -33 83 -33c32 0 59.5 10.833 82.5 32.5
s34.5 49.167 34.5 82.5c0 35.333 -11.333 64 -34 86s-50.334 33 -83.001 33c-34 0 -61.833 -11.333 -83.5 -34s-32.5 -51 -32.5 -85z" />
    <glyph glyph-name="Uhungarumlaut" unicode="&#x170;" horiz-adv-x="1168" 
d="M1018 1456v-1033c-0.666992 -140.667 -38.5 -249.667 -113.5 -327s-181.5 -116 -319.5 -116c-140 0 -247.167 38.167 -321.5 114.5s-111.5 187.166 -111.5 332.499v1029h114v-1025c0 -230 106.333 -345 319 -345c209.333 0 315.333 111.667 318 335v1035h115zM834 1850
h131l-233 -303h-109zM569 1850h125l-192 -303h-98z" />
    <glyph glyph-name="uhungarumlaut" unicode="&#x171;" horiz-adv-x="986" 
d="M728 129c-61.333 -99.333 -156.333 -149 -285 -149c-98 0 -172 34 -222 102s-75.333 168 -76 300v700h110v-697c0 -98 17.333 -172.333 52 -223s84.667 -76 150 -76c140 0 229.667 68 269 204v792h112v-1082h-108zM744 1535h131l-233 -303h-109zM479 1535h125l-192 -303
h-98z" />
    <glyph glyph-name="Uogonek" unicode="&#x172;" horiz-adv-x="1168" 
d="M1018 1456v-1022c0 -216 -78.333 -355.667 -235 -419c-82.667 -76 -124 -146 -124 -210c0 -56 23.333 -84 70 -84c28.667 0 58 10.667 88 32l12 -85c-37.333 -29.333 -78.333 -44 -123 -44c-42.667 0 -77.667 14.167 -105 42.5s-41 70.833 -41 127.5
c0 64.667 27.333 127.667 82 189l-57 -3c-140 0 -247.167 38.167 -321.5 114.5s-111.5 187.166 -111.5 332.499v1029h114v-1025c0 -230 106.333 -345 319 -345c209.333 0 315.333 111.667 318 335v1035h115z" />
    <glyph glyph-name="uogonek" unicode="&#x173;" horiz-adv-x="986" 
d="M832 0l-56 -53.999c-62 -62 -93 -121.667 -93 -179c0 -56 23.333 -84 70 -84c28.667 0 58 10.667 88 32l12 -85c-37.333 -29.333 -78.333 -44 -123 -44c-42.667 0 -77.667 14.167 -105 42.5s-41 70.833 -41 127.5c0 89.333 48.667 171.666 146 246.999l-2 126
c-61.333 -99.333 -156.333 -149 -285 -149c-98 0 -172 34 -222 102s-75.333 168 -76 300v700h110v-697c0 -98 17.333 -172.333 52 -223s84.667 -76 150 -76c140 0 229.667 68 269 204v792h112v-1082h-6z" />
    <glyph glyph-name="Wcircumflex" unicode="&#x174;" horiz-adv-x="1579" 
d="M405 396l35 -216l44 206l261 1070h102l257 -1070l43 -208l38 218l215 1060h116l-310 -1456h-108l-273 1135l-29 135l-28 -135l-279 -1135h-109l-309 1456h117zM1035 1583v-10h-100l-138 182l-138 -182h-98v12l201 256h69z" />
    <glyph glyph-name="wcircumflex" unicode="&#x175;" horiz-adv-x="1336" 
d="M376 246l9 -60l12 65l221 831h93l219 -824l16 -85l13 76l187 833h114l-265 -1082h-93l-235 860l-5 26l-4 -27l-231 -859h-94l-263 1082h113zM900 1268v-10h-100l-138 182l-138 -182h-98v12l201 256h69z" />
    <glyph glyph-name="Ycircumflex" unicode="&#x176;" horiz-adv-x="1070" 
d="M534 664l363 792h131l-438 -908v-548h-114v548l-437 908h134zM773 1577v-10h-100l-138 182l-138 -182h-98v12l201 256h69z" />
    <glyph glyph-name="ycircumflex" unicode="&#x177;" horiz-adv-x="857" 
d="M436 183l258 899h119l-381 -1255l-21 -60c-51.333 -136 -130 -204 -236 -204c-25.333 0 -52 4.66699 -80 14l-1 102c15.333 -4.66699 32.333 -7 51 -7c48 0 87.333 14.333 118 43s56 75 76 139l46 153l-340 1075h122zM688 1268v-10h-100l-138 182l-138 -182h-98v12
l201 256h69z" />
    <glyph glyph-name="Ydieresis" unicode="&#x178;" horiz-adv-x="1070" 
d="M534 664l363 792h131l-438 -908v-548h-114v548l-437 908h134zM236 1704c0 23.333 7.33301 42.833 22 58.5s34.667 23.5 60 23.5s45.5 -7.83301 60.5 -23.5s22.5 -35.167 22.5 -58.5c0 -22.667 -7.5 -41.667 -22.5 -57s-35.167 -23 -60.5 -23s-45.333 7.66699 -60 23
s-22 34.333 -22 57zM674 1703c0 23.333 7.33301 42.833 22 58.5s34.667 23.5 60 23.5s45.5 -7.83301 60.5 -23.5s22.5 -35.167 22.5 -58.5c0 -22.667 -7.5 -41.667 -22.5 -57s-35.167 -23 -60.5 -23s-45.333 7.66699 -60 23s-22 34.333 -22 57z" />
    <glyph glyph-name="Zacute" unicode="&#x179;" horiz-adv-x="1069" 
d="M228 106h749v-106h-882v95l720 1254h-700v107h835v-91zM655 1851h145l-231 -281h-105z" />
    <glyph glyph-name="zacute" unicode="&#x17a;" horiz-adv-x="880" 
d="M225 103h584v-103h-716v90l547 887h-532v105h667v-91zM570 1536h145l-231 -281h-105z" />
    <glyph glyph-name="Zdotaccent" unicode="&#x17b;" horiz-adv-x="1069" 
d="M228 106h749v-106h-882v95l720 1254h-700v107h835v-91zM453 1696c0 23.333 7.33301 42.833 22 58.5s34.667 23.5 60 23.5c26 0 46.333 -7.83301 61 -23.5s22 -35.167 22 -58.5c0 -22.667 -7.33301 -41.667 -22 -57s-35 -23 -61 -23c-25.333 0 -45.333 7.66699 -60 23
s-22 34.333 -22 57z" />
    <glyph glyph-name="zdotaccent" unicode="&#x17c;" horiz-adv-x="880" 
d="M225 103h584v-103h-716v90l547 887h-532v105h667v-91zM368 1381c0 23.333 7.33301 42.833 22 58.5s34.667 23.5 60 23.5c26 0 46.333 -7.83301 61 -23.5s22 -35.167 22 -58.5c0 -22.667 -7.33301 -41.667 -22 -57s-35 -23 -61 -23c-25.333 0 -45.333 7.66699 -60 23
s-22 34.333 -22 57z" />
    <glyph glyph-name="Zcaron" unicode="&#x17d;" horiz-adv-x="1069" 
d="M228 106h749v-106h-882v95l720 1254h-700v107h835v-91zM535 1646l141 193h98v-12l-201 -262h-77l-200 263v11h98z" />
    <glyph glyph-name="zcaron" unicode="&#x17e;" horiz-adv-x="880" 
d="M225 103h584v-103h-716v90l547 887h-532v105h667v-91zM450 1331l141 193h98v-12l-201 -262h-77l-200 263v11h98z" />
    <glyph glyph-name="longs" unicode="&#x17f;" horiz-adv-x="437" 
d="M159 0l-0.000976562 1215c0 110.667 23.333 195.334 70 254.001s111.667 88 195 88c36.667 0 75.334 -6.33301 116.001 -19l-15 -98c-26 8.66699 -54.667 13 -86 13c-54 0 -95.667 -20.833 -125 -62.5s-44 -100.167 -44 -175.5v-1215h-111z" />
    <glyph glyph-name="uni018F" unicode="&#x18f;" horiz-adv-x="1241" 
d="M624 -20c-157.333 0 -280.833 56.501 -370.5 169.501s-134.5 270.167 -134.5 471.5v118h886v64c0 176 -36.5 314 -109.5 414s-175.5 150 -307.5 150c-133.333 0 -246 -39.333 -338 -118l-34 94c88.667 88.667 212.667 133 372 133c165.333 0 295.333 -61 390 -183
s142 -288 142 -498v-124c0 -130.667 -21.333 -248.834 -64 -354.501s-102.167 -188.167 -178.5 -247.5s-160.833 -89 -253.5 -89zM624 87.001c110 0 199.332 50.5 267.999 151.5s106 233.5 112 397.5h-770v-52c0 -154.667 34.333 -276.167 103 -364.5
s164.334 -132.5 287.001 -132.5z" />
    <glyph glyph-name="florin" unicode="&#x192;" horiz-adv-x="607" 
d="M525 982l-198 -0.000976562v-1071c0 -113.333 -22.833 -199.666 -68.5 -258.999s-109.167 -89 -190.5 -89c-31.333 0 -62.333 6.33301 -93 19l12 101c21.333 -10.667 48.333 -16 81 -16c47.333 0 83.833 21.333 109.5 64s38.5 102.667 38.5 180v1071h-150v100h150v142
c1.33301 108 25.166 190.5 71.499 247.5s110.5 85.5 192.5 85.5c36.667 0 75.334 -6.33301 116.001 -19l-14 -101c-28.667 8.66699 -58.667 13 -90 13c-110 0 -165 -81.667 -165 -245v-123h198v-100z" />
    <glyph glyph-name="Ohorn" unicode="&#x1a0;" horiz-adv-x="1236" 
d="M1085 650c0 -133.333 -19.499 -250.834 -58.499 -352.501s-94.833 -180 -167.5 -235s-156.667 -82.5 -252 -82.5c-94 0 -177.667 27.667 -251 83s-129.833 133.333 -169.5 234s-59.834 215.667 -60.501 345v162c0 132 19.833 249.167 59.5 351.5s96 181.333 169 237
s156.5 83.5 250.5 83.5c150.667 0 269.667 -65 357 -195c58.667 4.66699 101.667 29.334 129 74.001s41 115 41 211h103c0 -220.667 -74.333 -345.667 -223 -375c46.667 -106 71 -229.667 73 -371v-170zM972.001 805.999c0 175.333 -32.833 312.332 -98.5 410.999
s-155.167 148 -268.5 148c-112.667 0 -201.667 -50.333 -267 -151s-98 -238.667 -98 -414v-150c0 -173.333 33.167 -310.166 99.5 -410.499s155.5 -150.5 267.5 -150.5c114.667 0 204.167 50 268.5 150s96.5 238.667 96.5 416v151z" />
    <glyph glyph-name="ohorn" unicode="&#x1a1;" horiz-adv-x="1006" 
d="M95 556c0 159.333 37.501 290.168 112.501 392.501s172.833 153.5 293.5 153.5c118 0 214.333 -48 289 -144c48 4.66699 82.5 24 103.5 58s31.5 94.667 31.5 182h94c0 -96.667 -14.5 -170.667 -43.5 -222s-74.167 -84 -135.5 -98
c45.333 -88.667 68.666 -193.334 69.999 -314.001v-40c0 -159.333 -37.333 -289.833 -112 -391.5s-173 -152.5 -295 -152.5c-116.667 0 -212 46.5 -286 139.5s-114.333 214.833 -121 365.5zM205.001 524.002c0 -127.333 27.001 -232.667 81.001 -316s126.333 -125 217 -125
c88.667 0 160 41.167 214 123.5s81 190.833 81 325.5v24c0 127.333 -27.333 232.833 -82 316.5s-126.334 125.5 -215.001 125.5c-88 0 -159.333 -41.833 -214 -125.5s-82 -192.5 -82 -326.5v-22z" />
    <glyph glyph-name="Uhorn" unicode="&#x1af;" horiz-adv-x="1216" 
d="M1018 1456l0.000976562 -211.003c66.667 6 114.334 31.667 143.001 77s43 119.333 43 222h97c0 -129.333 -22.5 -225.666 -67.5 -288.999s-116.833 -98.333 -215.5 -105v-695c-2.66699 -145.333 -43.334 -260.833 -122.001 -346.5s-182.334 -128.5 -311.001 -128.5
c-129.333 0 -233.166 41.833 -311.499 125.5s-118.833 199.834 -121.5 348.501v1002h114v-994c1.33301 -118.667 30.666 -211 87.999 -277s134.333 -99 231 -99c98 0 175.5 33.833 232.5 101.5s85.5 161.834 85.5 282.501v986h115z" />
    <glyph glyph-name="uhorn" unicode="&#x1b0;" horiz-adv-x="1059" 
d="M1071 1179c0 -112 -18.833 -191.668 -56.5 -239.001s-96.5 -72.666 -176.5 -75.999v-864h-108l-2 129c-61.333 -99.333 -156.333 -149 -285 -149c-98 0 -172 34 -222 102s-75.333 168 -76 300v700h110v-697c0 -98 17.333 -172.333 52 -223s84.667 -76 150 -76
c140 0 229.667 68 269 204v792h112v-134c53.333 3.33301 90.5 19.5 111.5 48.5s31.5 89.833 31.5 182.5h90z" />
    <glyph glyph-name="uni01F0" unicode="&#x1f0;" horiz-adv-x="440" 
d="M280 1082v-1171c0 -113.333 -22.667 -199.666 -68 -258.999s-108.666 -89 -189.999 -89c-30 0 -61 6.33301 -93 19l11 101c24.667 -10.667 52 -16 82 -16c47.333 0 83.666 21.333 108.999 64s38 102.667 38 180v1171h111zM225 1290l141 193h98v-12l-201 -262h-77
l-200 263v11h98z" />
    <glyph glyph-name="Aringacute" unicode="&#x1fa;" 
d="M834 407h-546l-124 -407h-119l464 1456h106l464 -1456h-119zM321 514h480l-240 781zM667 1930h122l-173 -187h-79zM433 1537c0 44.667 13.333 81.667 40 111s57.667 44 93 44c34.667 0 65 -14.5 91 -43.5s39 -66.167 39 -111.5c0 -44 -12.833 -80.167 -38.5 -108.5
s-56.167 -42.5 -91.5 -42.5s-66.333 14.167 -93 42.5s-40 64.5 -40 108.5zM493 1537c0 -24.667 7.16699 -45.167 21.5 -61.5s31.5 -24.5 51.5 -24.5c19.333 0 36 8.16699 50 24.5s21 36.833 21 61.5c0 26 -7 47.5 -21 64.5s-30.667 25.5 -50 25.5
c-20 0 -37.167 -8.5 -51.5 -25.5s-21.5 -38.5 -21.5 -64.5z" />
    <glyph glyph-name="aringacute" unicode="&#x1fb;" horiz-adv-x="964" 
d="M720 0c-10 34.667 -16.6689 84.667 -20.002 150c-33.333 -54 -76.166 -95.833 -128.499 -125.5s-109.166 -44.5 -170.499 -44.5c-93.333 0 -166 26.333 -218 79s-78 127.667 -78 225c0 106 36.167 190 108.5 252s172.166 93.333 299.499 94h186v151
c0 77.333 -19.167 132.833 -57.5 166.5s-94.5 50.5 -168.5 50.5c-68.667 0 -125 -20 -169 -60s-66 -91.667 -66 -155l-111 1c0 88.667 33.333 163.834 100 225.501s150.334 92.5 251.001 92.5c108.667 0 191 -27.333 247 -82s84 -134.334 84 -239.001v-531
c0 -106 9.66699 -185.333 29 -238v-12h-118zM414.998 87c65.333 0 123.167 17 173.5 51s87.166 79.333 110.499 136v263h-176c-101.333 -1.33301 -177.666 -23.833 -228.999 -67.5s-77 -102.5 -77 -176.5c0 -137.333 66 -206 198 -206zM609.999 1616h122l-173 -187h-79z
M375.999 1223c0 44.667 13.333 81.667 40 111s57.667 44 93 44c34.667 0 65 -14.5 91 -43.5s39 -66.167 39 -111.5c0 -44 -12.833 -80.167 -38.5 -108.5s-56.167 -42.5 -91.5 -42.5s-66.333 14.167 -93 42.5s-40 64.5 -40 108.5zM435.999 1223
c0 -24.667 7.16699 -45.167 21.5 -61.5s31.5 -24.5 51.5 -24.5c19.333 0 36 8.16699 50 24.5s21 36.833 21 61.5c0 26 -7 47.5 -21 64.5s-30.667 25.5 -50 25.5c-20 0 -37.167 -8.5 -51.5 -25.5s-21.5 -38.5 -21.5 -64.5z" />
    <glyph glyph-name="AEacute" unicode="&#x1fc;" horiz-adv-x="1614" 
d="M1560 0h-697l-14 388h-493l-191 -388h-136l740 1456h740v-104h-583l19 -542h495v-104h-491l21 -603h590v-103zM412 503h433l-29 821zM939 1857h145l-231 -281h-105z" />
    <glyph glyph-name="aeacute" unicode="&#x1fd;" horiz-adv-x="1494" 
d="M1082 -20c-77.333 0 -144.001 17.834 -200.001 53.501s-101 85.167 -135 148.5c-34 -64 -82.833 -113.667 -146.5 -149s-134.5 -53 -212.5 -53c-93.333 0 -166.333 27.667 -219 83s-79 132.333 -79 231c0 106.667 32 189.667 96 249s156 89 276 89h209v88
c0 87.333 -17.167 155.5 -51.5 204.5s-85.833 73.5 -154.5 73.5c-72.667 0 -131 -21.833 -175 -65.5s-66 -99.5 -66 -167.5l-110 13c0 95.333 32.667 173.166 98 233.499s149.666 90.5 252.999 90.5c68.667 0 127.834 -17 177.501 -51s86.167 -85 109.5 -153
c34 64 77 114 129 150s110 54 174 54c110.667 0 198 -40.5 262 -121.5s96 -196.5 96 -346.5v-98h-631v-26c0 -133.333 26.333 -237.833 79 -313.5s126.334 -113.5 221.001 -113.5c102 0 192.333 39.333 271 118l42 -90c-36 -42.667 -81.333 -75.167 -136 -97.5
s-113.667 -33.5 -177 -33.5zM405.999 82.001c49.333 0 99.5 14.832 150.5 44.499s89.167 64.834 114.5 105.501v302h-213c-77.333 -0.666992 -139.333 -23.5 -186 -68.5s-70 -103.5 -70 -175.5c0 -62 17 -112.167 51 -150.5s85 -57.5 153 -57.5zM1055 998
c-73.333 0 -134.167 -32.833 -182.5 -98.5s-77.5 -153.5 -87.5 -263.5h518v31c0 103.333 -22 184.333 -66 243s-104.667 88 -182 88zM861.998 1536h145l-231 -281h-105z" />
    <glyph glyph-name="Oslashacute" unicode="&#x1fe;" horiz-adv-x="1208" 
d="M1083 650c0 -133.333 -19.5 -250.833 -58.5 -352.5s-94.833 -180 -167.5 -235s-156.667 -82.5 -252 -82.5c-102 0 -191 31.333 -267 94l-83 -158h-93l116 219c-102.667 124 -154 298 -154 522v147c0 132.667 19.667 250 59 352s95.5 180.833 168.5 236.5
s156.833 83.5 251.5 83.5c123.333 0 227.333 -45.667 312 -137l88 166h93l-126 -238c73.333 -118.667 111 -268.667 113 -450v-167zM238 650c0 -172.667 32.333 -308.333 97 -407l524 990c-64.667 88 -150 132 -256 132c-112.667 0 -201.667 -50.333 -267 -151
s-98 -238.667 -98 -414v-150zM969 806.001c0 133.333 -20.666 247.667 -61.999 343l-516 -975c59.333 -56.667 130.666 -85 213.999 -85c114 0 203.167 50 267.5 150s96.5 238.667 96.5 416v151zM739.001 1919h145l-231 -281h-105z" />
    <glyph glyph-name="oslashacute" unicode="&#x1ff;" horiz-adv-x="1001" 
d="M95 556c0 159.333 37.501 290.167 112.501 392.5s172.833 153.5 293.5 153.5c65.333 0 124.666 -15.667 177.999 -47l65 158h84l-84 -205c52.667 -48 93.5 -111 122.5 -189s43.5 -165.667 43.5 -263v-32c0 -159.333 -37.333 -289.833 -112 -391.5
s-173 -152.5 -295 -152.5c-59.333 0 -115 13 -167 39l-65 -158h-84l83 203c-116.667 98.667 -175 257 -175 475v17zM205.001 524.001c0 -71.333 9.16699 -137.833 27.5 -199.5s45.5 -113.167 81.5 -154.5l324 785c-41.333 28.667 -87 43 -137 43
c-88 0 -159.333 -41.833 -214 -125.5s-82 -192.5 -82 -326.5v-22zM798.001 556.001c0 144 -33.333 258 -100 342l-321 -781c37.333 -22.667 79.333 -34 126 -34c88.667 0 160 41.167 214 123.5s81 190.833 81 325.5v24zM581.001 1535h145l-231 -281h-105z" />
    <glyph glyph-name="Scommaaccent" unicode="&#x218;" horiz-adv-x="1059" 
d="M856 358c0 81.333 -23.168 145.332 -69.501 191.999s-132.833 91.334 -259.5 134.001s-219.667 90.334 -279 143.001c-78 68.667 -117 159.334 -117 272.001c0 111.333 38.333 202 115 272s175.667 105 297 105c124 0 225.333 -40.667 304 -122s118 -186 118 -314h-115
c0 98 -27.5 177.167 -82.5 237.5s-129.833 90.5 -224.5 90.5c-92 0 -164.5 -24.833 -217.5 -74.5s-79.5 -113.834 -79.5 -192.501c0 -73.333 25 -133.333 75 -180s129.667 -88.167 239 -124.5s192 -74 248 -113s97.333 -84.833 124 -137.5s40 -114.667 40 -186
c0 -114 -38.5 -205.833 -115.5 -275.5s-178.833 -104.5 -305.5 -104.5c-85.333 0 -163.166 17.5 -233.499 52.5s-125.333 85.333 -165 151s-59.5 143.167 -59.5 232.5h114c0 -102.667 31 -183.334 93 -242.001s145.667 -88 251 -88c92 0 165.833 24.667 221.5 74
s83.5 115.333 83.5 198zM499.999 -470.001l-64.999 52c39.333 68 59.666 139.333 60.999 214v93h106v-62c0 -128.667 -34 -227.667 -102 -297z" />
    <glyph glyph-name="scommaaccent" unicode="&#x219;" horiz-adv-x="914" 
d="M689 266c0 46.667 -19.335 87.4971 -58.002 122.497s-104.167 73.333 -196.5 115s-156.833 76.334 -193.5 104.001s-63.667 57.834 -81 90.501s-26 71.334 -26 116.001c0 83.333 30 152.166 90 206.499s137.667 81.5 233 81.5c102.667 0 184.667 -29 246 -87
s92 -134.667 92 -230h-111c0 61.333 -21 112.166 -63 152.499s-96.667 60.5 -164 60.5c-65.333 0 -117.166 -16.667 -155.499 -50s-57.5 -76.666 -57.5 -129.999c0 -43.333 14.667 -78.666 44 -105.999s92.666 -64.333 189.999 -111c100.667 -44 170 -80.333 208 -109
s66.667 -60.5 86 -95.5s29 -76.5 29 -124.5c0 -89.333 -31 -160.333 -93 -213s-143.667 -79 -245 -79c-107.333 0 -194.166 29.333 -260.499 88s-99.5 134.334 -99.5 227.001h112c3.33301 -67.333 25.833 -119.5 67.5 -156.5s101.834 -55.5 180.501 -55.5
c68 0 122.667 16.667 164 50s62 77.666 62 132.999zM425.998 -472.003l-64.999 52c39.333 68 59.666 139.333 60.999 214v93h106v-62c0 -128.667 -34 -227.667 -102 -297z" />
    <glyph glyph-name="uni021A" unicode="&#x21a;" horiz-adv-x="1067" 
d="M1005 1348h-414v-1348h-115v1348h-413v108h942v-108zM485 -465l-64.999 52c39.333 68 59.666 139.333 60.999 214v93h106v-62c0 -128.667 -34 -227.667 -102 -297z" />
    <glyph glyph-name="uni021B" unicode="&#x21b;" horiz-adv-x="594" 
d="M315 1358l-0.000976562 -276h185v-100h-185v-719c0 -59.333 8.83301 -103.5 26.5 -132.5s47.167 -43.5 88.5 -43.5c18 0 44.667 3.33301 80 10l3 -100c-25.333 -11.333 -61.666 -17 -108.999 -17c-130 0 -196.667 89.333 -200 268v734h-167v100h167v276h111z
M336.999 -465l-64.999 52c39.333 68 59.666 139.333 60.999 214v93h106v-62c0 -128.667 -34 -227.667 -102 -297z" />
    <glyph glyph-name="uni0237" unicode="&#x237;" horiz-adv-x="440" 
d="M280 1082v-1171c0 -113.333 -22.667 -199.666 -68 -258.999s-108.666 -89 -189.999 -89c-30 0 -61 6.33301 -93 19l11 101c24.667 -10.667 52 -16 82 -16c47.333 0 83.666 21.333 108.999 64s38 102.667 38 180v1171h111z" />
    <glyph glyph-name="uni0259" unicode="&#x259;" horiz-adv-x="930" 
d="M444 1102c76 0 144.667 -22.833 206 -68.5s109 -109.167 143 -190.5s51 -172 51 -272v-54c0 -100 -17.167 -191.333 -51.5 -274s-80.833 -147.167 -139.5 -193.5s-123 -69.5 -193 -69.5c-111.333 0 -199.5 41 -264.5 123s-97.5 196.333 -97.5 343v99h635v26
c0 124 -26.833 226.333 -80.5 307s-123.167 121 -208.5 121c-114.667 0 -204.667 -40 -270 -120l-46 85c72.667 92 178 138 316 138zM460 83c69.333 0 128.668 32.833 178.001 98.5s79.666 152.167 90.999 259.5h-520v-29c0 -97.333 23 -176.5 69 -237.5
s106.667 -91.5 182 -91.5z" />
    <glyph glyph-name="afii57929" unicode="&#x2bc;" horiz-adv-x="353" 
d="M135 1097l-65 53c50 81.333 76 165 78 251v135h110v-100c0 -141.333 -41 -254.333 -123 -339z" />
    <glyph glyph-name="circumflex" unicode="&#x2c6;" horiz-adv-x="793" 
d="M630 1268v-10h-100l-138 182l-138 -182h-98v12l201 256h69z" />
    <glyph glyph-name="caron" unicode="&#x2c7;" horiz-adv-x="754" 
d="M379 1328l141 193h98v-12l-201 -262h-77l-200 263v11h98z" />
    <glyph glyph-name="uni02C9" unicode="&#x2c9;" horiz-adv-x="785" 
d="M664 1342h-528v98h528v-98z" />
    <glyph glyph-name="breve" unicode="&#x2d8;" horiz-adv-x="865" 
d="M716 1490c0 -76 -26 -138.001 -78 -186.001s-122.333 -72 -211 -72c-87.333 0 -157.333 23.833 -210 71.5s-79 109.834 -79 186.501h102c0 -53.333 15.833 -95 47.5 -125s78.167 -45 139.5 -45c58 0 103.667 15 137 45s50 71.667 50 125h102z" />
    <glyph glyph-name="dotaccent" unicode="&#x2d9;" horiz-adv-x="459" 
d="M148 1381c0 23.333 7.33301 42.833 22 58.5s34.667 23.5 60 23.5c26 0 46.333 -7.83301 61 -23.5s22 -35.167 22 -58.5c0 -22.667 -7.33301 -41.667 -22 -57s-35 -23 -61 -23c-25.333 0 -45.333 7.66699 -60 23s-22 34.333 -22 57z" />
    <glyph glyph-name="ring" unicode="&#x2da;" horiz-adv-x="635" 
d="M117 1395c0 53.333 18.667 98.666 56 135.999s83 56 137 56s99.667 -18.667 137 -56s56 -82.666 56 -135.999c0 -52.667 -18.333 -97 -55 -133s-82.667 -54 -138 -54s-101.333 18 -138 54s-55 80.333 -55 133zM194 1395c0 -32.667 11.001 -60 33.001 -82
s49.667 -33 83 -33c32 0 59.5 10.833 82.5 32.5s34.5 49.167 34.5 82.5c0 35.333 -11.333 64 -34 86s-50.334 33 -83.001 33c-34 0 -61.833 -11.333 -83.5 -34s-32.5 -51 -32.5 -85z" />
    <glyph glyph-name="ogonek" unicode="&#x2db;" horiz-adv-x="477" 
d="M317 0l-56 -54.001c-62 -62 -93 -121.667 -93 -179c0 -56 23.333 -84 70 -84c28.667 0 58 10.667 88 32l12 -85c-37.333 -29.333 -78.333 -44 -123 -44c-42.667 0 -77.667 14.167 -105 42.5s-41 70.833 -41 127.5c0 50 17 99.833 51 149.5s82.333 93.834 145 132.501z
" />
    <glyph glyph-name="tilde" unicode="&#x2dc;" horiz-adv-x="800" 
d="M682 1486c0 -63.333 -16.001 -115 -48.001 -155s-71.333 -60 -118 -60c-29.333 0 -53.5 5.66699 -72.5 17s-36.333 24 -52 38s-31.667 26.667 -48 38s-36.5 17 -60.5 17c-25.333 0 -46.666 -10.5 -63.999 -31.5s-26 -49.833 -26 -86.5l-81 3
c0 63.333 15.833 114.833 47.5 154.5s71.167 59.5 118.5 59.5c20.667 0 39 -3.5 55 -10.5s39.167 -22.5 69.5 -46.5s52 -38.667 65 -44s27.5 -8 43.5 -8c25.333 0 46.833 11 64.5 33s26.5 51.333 26.5 88z" />
    <glyph glyph-name="hungarumlaut" unicode="&#x2dd;" horiz-adv-x="688" 
d="M547 1535h131l-233 -303h-109zM282 1535h125l-192 -303h-98z" />
    <glyph glyph-name="uni02F3" unicode="&#x2f3;" horiz-adv-x="559" 
d="M147 -231c0 39.333 12.833 73.166 38.5 101.499s56.834 42.5 93.501 42.5c35.333 0 65.833 -13.667 91.5 -41s38.5 -61.666 38.5 -102.999s-12.833 -75 -38.5 -101s-56.167 -39 -91.5 -39c-36.667 0 -67.834 13.333 -93.501 40s-38.5 60 -38.5 100zM210 -231
c0 -20 6.66699 -36.833 20 -50.5s29.666 -20.5 48.999 -20.5s35.5 6.66699 48.5 20s19.5 30.333 19.5 51c0 21.333 -6.5 39.166 -19.5 53.499s-29.167 21.5 -48.5 21.5s-35.666 -7.16699 -48.999 -21.5s-20 -32.166 -20 -53.499z" />
    <glyph glyph-name="gravecomb" unicode="&#x300;" horiz-adv-x="0" 
d="M-367 1255h-99l-195 281h134z" />
    <glyph glyph-name="acutecomb" unicode="&#x301;" horiz-adv-x="0" 
d="M-342 1536h134l-201 -281h-94z" />
    <glyph glyph-name="tildecomb" unicode="&#x303;" horiz-adv-x="0" 
d="M-132 1486c0 -63.333 -16.001 -115 -48.001 -155s-71.333 -60 -118 -60c-29.333 0 -53.5 5.66699 -72.5 17s-36.333 24 -52 38s-31.667 26.667 -48 38s-36.5 17 -60.5 17c-25.333 0 -46.666 -10.5 -63.999 -31.5s-26 -49.833 -26 -86.5l-81 3
c0 63.333 15.833 114.833 47.5 154.5s71.167 59.5 118.5 59.5c20.667 0 39 -3.5 55 -10.5s39.167 -22.5 69.5 -46.5s52 -38.667 65 -44s27.5 -8 43.5 -8c25.333 0 46.833 11 64.5 33s26.5 51.333 26.5 88z" />
    <glyph glyph-name="hookabovecomb" unicode="&#x309;" horiz-adv-x="0" 
d="M-509 1234v126c47.333 4.66699 81.833 13.5 103.5 26.5s32.5 35.5 32.5 67.5c0 30 -14.833 53.167 -44.5 69.5s-69.167 24.5 -118.5 24.5l6 78c78 0 138.833 -15.5 182.5 -46.5s65.5 -73.5 65.5 -127.5c0 -90 -48 -142 -144 -156l-1 -62h-82z" />
    <glyph glyph-name="uni030F" unicode="&#x30f;" horiz-adv-x="0" 
d="M-438 1252h-110l-254 266h140zM-231 1252h-98l-210 266h129z" />
    <glyph glyph-name="dotbelowcomb" unicode="&#x323;" horiz-adv-x="0" 
d="M-672 -232c0 23.333 7.33301 42.833 22 58.5s34.667 23.5 60 23.5c26 0 46.333 -7.83301 61 -23.5s22 -35.167 22 -58.5c0 -22.667 -7.33301 -41.667 -22 -57s-35 -23 -61 -23c-25.333 0 -45.333 7.66699 -60 23s-22 34.333 -22 57z" />
    <glyph glyph-name="tonos" unicode="&#x384;" horiz-adv-x="519" 
d="M273 1588h118l-109 -305h-83z" />
    <glyph glyph-name="dieresistonos" unicode="&#x385;" horiz-adv-x="873" 
d="M418 1664h122l-65 -252h-88zM142 1395c0 23.333 6.33301 42.833 19 58.5s30.667 23.5 54 23.5s41.5 -7.83301 54.5 -23.5s19.5 -35.167 19.5 -58.5c0 -22.667 -6.5 -41.667 -19.5 -57s-31.167 -23 -54.5 -23s-41.333 7.66699 -54 23s-19 34.333 -19 57zM577 1394
c0 23.333 6.33301 42.833 19 58.5s30.667 23.5 54 23.5s41.5 -7.83301 54.5 -23.5s19.5 -35.167 19.5 -58.5c0 -22.667 -6.5 -41.667 -19.5 -57s-31.167 -23 -54.5 -23s-41.333 7.66699 -54 23s-19 34.333 -19 57z" />
    <glyph glyph-name="Alphatonos" unicode="&#x386;" 
d="M834 407h-546l-124 -407h-119l464 1456h106l464 -1456h-119zM321 514h480l-240 781zM232 1588h118l-109 -305h-83z" />
    <glyph glyph-name="anoteleia" unicode="&#x387;" horiz-adv-x="467" 
d="M154 717c0 24 6.66699 44.167 20 60.5s32 24.5 56 24.5s42.833 -8.16699 56.5 -24.5s20.5 -36.5 20.5 -60.5c0 -23.333 -6.83301 -42.833 -20.5 -58.5s-32.5 -23.5 -56.5 -23.5s-42.667 7.83301 -56 23.5s-20 35.167 -20 58.5z" />
    <glyph glyph-name="Epsilontonos" unicode="&#x388;" horiz-adv-x="1018" 
d="M851 697h-565v-591h650v-106h-764v1456h759v-108h-645v-545h565v-106zM-89 1589h118l-109 -305h-83z" />
    <glyph glyph-name="Etatonos" unicode="&#x389;" horiz-adv-x="1259" 
d="M1085 0h-115v697h-684v-697h-114v1456h114v-653h684v653h115v-1456zM-78 1590h118l-109 -305h-83z" />
    <glyph glyph-name="Iotatonos" unicode="&#x38a;" horiz-adv-x="500" 
d="M307 0h-114v1456h114v-1456zM-66 1587h118l-109 -305h-83z" />
    <glyph glyph-name="Omicrontonos" unicode="&#x38c;" horiz-adv-x="1228" 
d="M1095 570c0 -188 -41.165 -333.333 -123.498 -436s-197.833 -154 -346.5 -154c-147.333 0 -262.833 51.333 -346.5 154s-125.834 247 -126.501 433v317c0 187.333 41.667 332.833 125 436.5s198.666 155.5 345.999 155.5c149.333 0 265.333 -52 348 -156
s124 -250.333 124 -439v-311zM980.002 886c0 159.333 -30.668 279 -92.001 359s-149.666 120 -264.999 120c-111.333 0 -198.333 -39.167 -261 -117.5s-94.667 -195.5 -96 -351.5v-326c0 -160 31.667 -280.167 95 -360.5s151.333 -120.5 264 -120.5
c116 0 204.167 40 264.5 120s90.5 200.333 90.5 361v316zM73.001 1588h118l-109 -305h-83z" />
    <glyph glyph-name="Upsilontonos" unicode="&#x38e;" horiz-adv-x="1170" 
d="M634 664l363 792h131l-438 -908v-548h-114v548l-437 908h134zM-99 1588h118l-109 -305h-83z" />
    <glyph glyph-name="Omegatonos" unicode="&#x38f;" horiz-adv-x="1190" 
d="M667 121c86 35.333 152.499 105.332 199.499 209.999s70.5 236.667 70.5 396v119c0 160.667 -31.167 288 -93.5 382s-144.5 141 -246.5 141c-102.667 0 -184.667 -47.5 -246 -142.5s-92 -223.167 -92 -384.5v-113c0 -160 23.833 -292.5 71.5 -397.5
s115.5 -175.167 203.5 -210.5v-121h-394v106h240c-75.333 66.667 -133.666 154.834 -174.999 264.501s-62 229.167 -62 358.5v115c0 123.333 19 233.333 57 330s91.5 171.167 160.5 223.5s147.833 78.5 236.5 78.5s167.667 -26.333 237 -79s123 -127 161 -223
s57 -206 57 -330v-115c0 -130 -20.667 -249.833 -62 -359.5s-99.333 -197.5 -174 -263.5h241v-106h-390v121zM81.999 1588h118l-109 -305h-83z" />
    <glyph glyph-name="iotadieresistonos" unicode="&#x390;" horiz-adv-x="564" 
d="M286 1082v-810c0 -58.667 8.83301 -102.5 26.5 -131.5s47.167 -43.5 88.5 -43.5c18 0 44.667 3.33301 80 10l3 -102c-30 -10 -66.667 -15 -110 -15c-128.667 0 -195 87.667 -199 263v829h111zM217 1643h122l-65 -252h-88zM-59 1374c0 23.333 6.33301 42.833 19 58.5
s30.667 23.5 54 23.5s41.5 -7.83301 54.5 -23.5s19.5 -35.167 19.5 -58.5c0 -22.667 -6.5 -41.667 -19.5 -57s-31.167 -23 -54.5 -23s-41.333 7.66699 -54 23s-19 34.333 -19 57zM376 1373c0 23.333 6.33301 42.833 19 58.5s30.667 23.5 54 23.5s41.5 -7.83301 54.5 -23.5
s19.5 -35.167 19.5 -58.5c0 -22.667 -6.5 -41.667 -19.5 -57s-31.167 -23 -54.5 -23s-41.333 7.66699 -54 23s-19 34.333 -19 57z" />
    <glyph glyph-name="Alpha" unicode="&#x391;" 
d="M834 407h-546l-124 -407h-119l464 1456h106l464 -1456h-119zM321 514h480l-240 781z" />
    <glyph glyph-name="Beta" unicode="&#x392;" horiz-adv-x="1097" 
d="M172 0l-0.00195312 1456h369c131.333 0 230.833 -32.167 298.5 -96.5s101.5 -159.166 101.5 -284.499c0 -74.667 -17.333 -139.667 -52 -195s-82.667 -95.333 -144 -120c70.667 -18 127.834 -59.167 171.501 -123.5s65.5 -139.833 65.5 -226.5
c0 -126.667 -34.667 -226.667 -104 -300s-167.666 -110 -294.999 -110h-411zM285.998 698.999v-593h302c86.667 0 155 26.667 205 80s75 127.333 75 222c0 88 -23.167 158 -69.5 210s-110.833 79 -193.5 81h-319zM285.998 803.999l265 -0.000976562c86.667 0 154 23 202 69
s72 114.333 72 205c0 92.667 -23.5 160.834 -70.5 204.501s-118.167 65.5 -213.5 65.5h-255v-544z" />
    <glyph glyph-name="Gamma" unicode="&#x393;" horiz-adv-x="990" 
d="M914 1348h-626v-1348h-114v1456h740v-108z" />
    <glyph glyph-name="uni2206" unicode="&#x394;" horiz-adv-x="1241" 
d="M679 1456l499 -1456h-1123l517 1456h107zM211 106h812l-399 1188z" />
    <glyph glyph-name="uni2206" unicode="&#x2206;" horiz-adv-x="1241" 
d="M679 1456l499 -1456h-1123l517 1456h107zM211 106h812l-399 1188z" />
    <glyph glyph-name="Epsilon" unicode="&#x395;" horiz-adv-x="1018" 
d="M851 697h-565v-591h650v-106h-764v1456h759v-108h-645v-545h565v-106z" />
    <glyph glyph-name="Zeta" unicode="&#x396;" horiz-adv-x="1069" 
d="M228 106h749v-106h-882v95l720 1254h-700v107h835v-91z" />
    <glyph glyph-name="Eta" unicode="&#x397;" horiz-adv-x="1259" 
d="M1085 0h-115v697h-684v-697h-114v1456h114v-653h684v653h115v-1456z" />
    <glyph glyph-name="Theta" unicode="&#x398;" horiz-adv-x="1200" 
d="M830 675h-460v103h460v-103zM1075 650c0 -133.333 -19.501 -250.834 -58.501 -352.501s-94.833 -180 -167.5 -235s-156.667 -82.5 -252 -82.5c-93.333 0 -176.5 27.333 -249.5 82s-129.5 132.5 -169.5 233.5s-60.333 216.5 -61 346.5v162c0 132.667 19.667 250 59 352
s95.5 180.833 168.5 236.5s156.5 83.5 250.5 83.5c144.667 0 260.834 -60.667 348.501 -182s131.5 -287.666 131.5 -498.999v-145zM961.999 805.999c0 175.333 -32.834 312.333 -98.501 411s-155.167 148 -268.5 148c-110 0 -197.833 -48.833 -263.5 -146.5
s-99.167 -232.167 -100.5 -403.5v-165c0 -172 32.833 -308.5 98.5 -409.5s154.834 -151.5 267.501 -151.5c114.667 0 204.167 50 268.5 150s96.5 238.667 96.5 416v151z" />
    <glyph glyph-name="Iota" unicode="&#x399;" horiz-adv-x="500" 
d="M307 0h-114v1456h114v-1456z" />
    <glyph glyph-name="Kappa" unicode="&#x39a;" horiz-adv-x="1124" 
d="M455 718l-169 -196v-522h-114v1456h114v-776l160 200l451 576h143l-508 -648l547 -808h-139z" />
    <glyph glyph-name="Lambda" unicode="&#x39b;" horiz-adv-x="1157" 
d="M575 1262l-377 -1262h-124l447 1456h108l448 -1456h-124z" />
    <glyph glyph-name="Mu" unicode="&#x39c;" horiz-adv-x="1531" 
d="M323 1456l441 -1281l443 1281h151v-1456h-114v631l10 635l-446 -1266h-88l-444 1260l10 -625v-635h-114v1456h151z" />
    <glyph glyph-name="Nu" unicode="&#x39d;" horiz-adv-x="1262" 
d="M1088 0h-114l-687 1240v-1240h-115v1456h115l688 -1242v1242h113v-1456z" />
    <glyph glyph-name="Xi" unicode="&#x39e;" horiz-adv-x="1006" 
d="M118 106h776v-106h-776v106zM198 787h609v-107h-609v107zM127 1456h746v-107h-746v107z" />
    <glyph glyph-name="Omicron" unicode="&#x39f;" horiz-adv-x="1208" 
d="M1075 570c0 -188 -41.165 -333.333 -123.498 -436s-197.833 -154 -346.5 -154c-147.333 0 -262.833 51.333 -346.5 154s-125.834 247 -126.501 433v317c0 187.333 41.667 332.833 125 436.5s198.666 155.5 345.999 155.5c149.333 0 265.333 -52 348 -156
s124 -250.333 124 -439v-311zM960.002 886c0 159.333 -30.668 279 -92.001 359s-149.666 120 -264.999 120c-111.333 0 -198.333 -39.167 -261 -117.5s-94.667 -195.5 -96 -351.5v-326c0 -160 31.667 -280.167 95 -360.5s151.333 -120.5 264 -120.5
c116 0 204.167 40 264.5 120s90.5 200.333 90.5 361v316z" />
    <glyph glyph-name="Pi" unicode="&#x3a0;" horiz-adv-x="1259" 
d="M1081 0h-114v1348h-676v-1348h-114v1456h904v-1456z" />
    <glyph glyph-name="Rho" unicode="&#x3a1;" horiz-adv-x="1104" 
d="M286 592l0.000976562 -592.001h-114v1456h423c128.667 0 230 -38.667 304 -116s111 -183.666 111 -318.999c0 -138 -35.833 -244 -107.5 -318s-174.834 -111 -309.501 -111h-307zM286.001 698.999h309c96 0 170.167 27.833 222.5 83.5s78.5 134.5 78.5 236.5
s-26.5 182.333 -79.5 241s-126.5 88 -220.5 88h-310v-649z" />
    <glyph glyph-name="Sigma" unicode="&#x3a3;" horiz-adv-x="1006" 
d="M620 742l-408 -635h710v-107h-848v94l426 663l-426 604v95h804v-107h-659l401 -572v-35z" />
    <glyph glyph-name="Tau" unicode="&#x3a4;" horiz-adv-x="1067" 
d="M1005 1348h-414v-1348h-115v1348h-413v108h942v-108z" />
    <glyph glyph-name="Upsilon" unicode="&#x3a5;" horiz-adv-x="1070" 
d="M534 664l363 792h131l-438 -908v-548h-114v548l-437 908h134z" />
    <glyph glyph-name="Phi" unicode="&#x3a6;" horiz-adv-x="1270" 
d="M694 1268c94.667 -2 179 -25.667 253 -71s131.5 -109 172.5 -191s61.5 -173.667 61.5 -275c0 -156.667 -45.167 -285 -135.5 -385s-207.5 -151.333 -351.5 -154v-192h-115v192c-144 2.66699 -261.167 53.5 -351.5 152.5s-135.5 227.167 -135.5 384.5
c0 101.333 20.333 193 61 275s98.167 146 172.5 192s158.833 70 253.5 72v188h115v-188zM1067 731c0 128.667 -33 231.831 -99 309.498s-157.333 117.834 -274 120.501v-862c117.333 2.66699 208.833 42.834 274.5 120.501s98.5 181.5 98.5 311.5zM206 728.997
c0 -130.667 33 -234.332 99 -310.999s157.333 -116.334 274 -119.001v862c-114.667 -2.66699 -205.5 -42.5 -272.5 -119.5s-100.5 -181.167 -100.5 -312.5z" />
    <glyph glyph-name="Chi" unicode="&#x3a7;" horiz-adv-x="1097" 
d="M549 842l335 614h136l-401 -718l413 -738h-137l-346 633l-347 -633h-136l415 738l-403 718h136z" />
    <glyph glyph-name="Psi" unicode="&#x3a8;" horiz-adv-x="1234" 
d="M666 496c100.667 11.333 180.665 56.334 239.998 135.001s89 182 89 310v515h114v-521c0 -104.667 -18.333 -197.334 -55 -278.001s-88.667 -144.167 -156 -190.5s-144.666 -72.5 -231.999 -78.5v-388h-115v388c-131.333 11.333 -236.166 65.5 -314.499 162.5
s-117.833 225.167 -118.5 384.5v521h114v-529c2 -120.667 31.667 -219.5 89 -296.5s134 -121.5 230 -133.5v959h115v-960z" />
    <glyph glyph-name="uni2126" unicode="&#x3a9;" horiz-adv-x="1170" 
d="M647 121c86 35.333 152.499 105.332 199.499 209.999s70.5 236.667 70.5 396v119c0 160.667 -31.167 288 -93.5 382s-144.5 141 -246.5 141c-102.667 0 -184.667 -47.5 -246 -142.5s-92 -223.167 -92 -384.5v-113c0 -160 23.833 -292.5 71.5 -397.5
s115.5 -175.167 203.5 -210.5v-121h-394v106h240c-75.333 66.667 -133.666 154.834 -174.999 264.501s-62 229.167 -62 358.5v115c0 123.333 19 233.333 57 330s91.5 171.167 160.5 223.5s147.833 78.5 236.5 78.5s167.667 -26.333 237 -79s123 -127 161 -223
s57 -206 57 -330v-115c0 -130 -20.667 -249.833 -62 -359.5s-99.333 -197.5 -174 -263.5h241v-106h-390v121z" />
    <glyph glyph-name="uni2126" unicode="&#x2126;" horiz-adv-x="1170" 
d="M647 121c86 35.333 152.499 105.332 199.499 209.999s70.5 236.667 70.5 396v119c0 160.667 -31.167 288 -93.5 382s-144.5 141 -246.5 141c-102.667 0 -184.667 -47.5 -246 -142.5s-92 -223.167 -92 -384.5v-113c0 -160 23.833 -292.5 71.5 -397.5
s115.5 -175.167 203.5 -210.5v-121h-394v106h240c-75.333 66.667 -133.666 154.834 -174.999 264.501s-62 229.167 -62 358.5v115c0 123.333 19 233.333 57 330s91.5 171.167 160.5 223.5s147.833 78.5 236.5 78.5s167.667 -26.333 237 -79s123 -127 161 -223
s57 -206 57 -330v-115c0 -130 -20.667 -249.833 -62 -359.5s-99.333 -197.5 -174 -263.5h241v-106h-390v121z" />
    <glyph glyph-name="Iotadieresis" unicode="&#x3aa;" horiz-adv-x="500" 
d="M307 0h-114v1456h114v-1456zM-48 1716c0 23.333 7.33301 42.833 22 58.5s34.667 23.5 60 23.5s45.5 -7.83301 60.5 -23.5s22.5 -35.167 22.5 -58.5c0 -22.667 -7.5 -41.667 -22.5 -57s-35.167 -23 -60.5 -23s-45.333 7.66699 -60 23s-22 34.333 -22 57zM390 1715
c0 23.333 7.33301 42.833 22 58.5s34.667 23.5 60 23.5s45.5 -7.83301 60.5 -23.5s22.5 -35.167 22.5 -58.5c0 -22.667 -7.5 -41.667 -22.5 -57s-35.167 -23 -60.5 -23s-45.333 7.66699 -60 23s-22 34.333 -22 57z" />
    <glyph glyph-name="Upsilondieresis" unicode="&#x3ab;" horiz-adv-x="1070" 
d="M534 664l363 792h131l-438 -908v-548h-114v548l-437 908h134zM236 1704c0 23.333 7.33301 42.833 22 58.5s34.667 23.5 60 23.5s45.5 -7.83301 60.5 -23.5s22.5 -35.167 22.5 -58.5c0 -22.667 -7.5 -41.667 -22.5 -57s-35.167 -23 -60.5 -23s-45.333 7.66699 -60 23
s-22 34.333 -22 57zM674 1703c0 23.333 7.33301 42.833 22 58.5s34.667 23.5 60 23.5s45.5 -7.83301 60.5 -23.5s22.5 -35.167 22.5 -58.5c0 -22.667 -7.5 -41.667 -22.5 -57s-35.167 -23 -60.5 -23s-45.333 7.66699 -60 23s-22 34.333 -22 57z" />
    <glyph glyph-name="alphatonos" unicode="&#x3ac;" horiz-adv-x="1009" 
d="M846 1082l-0.000976562 -813.999c0.666992 -119.333 27.667 -179 81 -179c10.667 0 24 2.66699 40 8l15 -94c-23.333 -16 -52 -24 -86 -24c-42.667 0 -77 14.333 -103 43s-43.333 76.667 -52 144c-62 -124.667 -155.667 -187 -281 -187
c-107.333 0 -192.333 47.667 -255 143s-94 231.666 -94 408.999c0 174 31.167 312.667 93.5 416s147.833 155 256.5 155c122.667 0 215.334 -64.667 278.001 -194l12 174h95zM222.999 510.001c0 -136 22.5 -241.333 67.5 -316s108.833 -112 191.5 -112
c116.667 0 201 76.667 253 230v436c-54.667 166.667 -138.667 250 -252 250c-82.667 0 -146.667 -41.333 -192 -124s-68 -204 -68 -364zM564.999 1546h118l-109 -305h-83z" />
    <glyph glyph-name="epsilontonos" unicode="&#x3ad;" horiz-adv-x="973" 
d="M108 297c0 131.333 62.667 217.333 188 258c-54.667 23.333 -97 56 -127 98s-45 89 -45 141c0 96 31.667 171.167 95 225.5s151 81.5 263 81.5c104 0 190.5 -29.333 259.5 -88s103.5 -133.334 103.5 -224.001h-110c0 61.333 -24.667 111.5 -74 150.5s-109 58.5 -179 58.5
c-76 0 -136 -18.167 -180 -54.5s-66 -85.833 -66 -148.5c0 -128 83 -192 249 -192h151v-102h-158c-84 0 -147.833 -16.333 -191.5 -49s-65.5 -85 -65.5 -157c0 -62.667 23 -113.667 69 -153s110 -59 192 -59c76.667 0 140.334 21.333 191.001 64s76 97 76 163h111
c0 -99.333 -35.333 -179.166 -106 -239.499s-161.334 -90.5 -272.001 -90.5c-113.333 0 -204 29 -272 87s-102 134.667 -102 230zM503 1545h118l-109 -305h-83z" />
    <glyph glyph-name="etatonos" unicode="&#x3ae;" horiz-adv-x="1001" 
d="M253 1082l6 -163c64 122 159.333 183 286 183c102.667 0 178.334 -32.833 227.001 -98.5s74 -166.167 76 -301.5v-1117h-111v1108c-0.666992 104.667 -18.334 181.667 -53.001 231s-90 74 -166 74c-62.667 0 -116 -20 -160 -60s-76 -99.667 -96 -179v-759h-112v1082h103z
M526 1546h118l-109 -305h-83z" />
    <glyph glyph-name="iotatonos" unicode="&#x3af;" horiz-adv-x="564" 
d="M286 1082v-810c0 -58.667 8.83301 -102.5 26.5 -131.5s47.167 -43.5 88.5 -43.5c18 0 44.667 3.33301 80 10l3 -102c-30 -10 -66.667 -15 -110 -15c-128.667 0 -195 87.667 -199 263v829h111zM255 1525h118l-109 -305h-83z" />
    <glyph glyph-name="upsilondieresistonos" unicode="&#x3b0;" horiz-adv-x="963" 
d="M259 1082v-664.999c0 -222.667 65.667 -334 197 -334c82.667 0 149.334 43.5 200.001 130.5s76 196.167 76 327.5c-2.66699 177.333 -35.667 357.666 -99 540.999h119c60 -163.333 90 -343 90 -539c0 -171.333 -34 -308 -102 -410s-161.333 -153 -280 -153
c-102.667 0 -180.334 36.167 -233.001 108.5s-79 178.833 -79 319.5v674h111zM448 1643h122l-65 -252h-88zM172 1374c0 23.333 6.33301 42.833 19 58.5s30.667 23.5 54 23.5s41.5 -7.83301 54.5 -23.5s19.5 -35.167 19.5 -58.5c0 -22.667 -6.5 -41.667 -19.5 -57
s-31.167 -23 -54.5 -23s-41.333 7.66699 -54 23s-19 34.333 -19 57zM607 1373c0 23.333 6.33301 42.833 19 58.5s30.667 23.5 54 23.5s41.5 -7.83301 54.5 -23.5s19.5 -35.167 19.5 -58.5c0 -22.667 -6.5 -41.667 -19.5 -57s-31.167 -23 -54.5 -23s-41.333 7.66699 -54 23
s-19 34.333 -19 57z" />
    <glyph glyph-name="alpha" unicode="&#x3b1;" horiz-adv-x="1009" 
d="M846 1082l-0.000976562 -813.999c0.666992 -119.333 27.667 -179 81 -179c10.667 0 24 2.66699 40 8l15 -94c-23.333 -16 -52 -24 -86 -24c-42.667 0 -77 14.333 -103 43s-43.333 76.667 -52 144c-62 -124.667 -155.667 -187 -281 -187
c-107.333 0 -192.333 47.667 -255 143s-94 231.666 -94 408.999c0 174 31.167 312.667 93.5 416s147.833 155 256.5 155c122.667 0 215.334 -64.667 278.001 -194l12 174h95zM222.999 510.001c0 -136 22.5 -241.333 67.5 -316s108.833 -112 191.5 -112
c116.667 0 201 76.667 253 230v436c-54.667 166.667 -138.667 250 -252 250c-82.667 0 -146.667 -41.333 -192 -124s-68 -204 -68 -364z" />
    <glyph glyph-name="beta" unicode="&#x3b2;" horiz-adv-x="1059" 
d="M521 1476c103.333 0 186.832 -35.498 250.499 -106.498s95.5 -163.5 95.5 -277.5c0 -66.667 -14.5 -127.334 -43.5 -182.001s-70.5 -97.334 -124.5 -128.001c75.333 -26 133.833 -72.333 175.5 -139s62.5 -146 62.5 -238c0 -131.333 -34.5 -235 -103.5 -311
s-160.5 -114 -274.5 -114c-56 0 -108.667 10.667 -158 32s-90.666 51 -123.999 89v-499h-111v1455c0 120 34.667 219.833 104 299.5s153 119.5 251 119.5zM756.999 1097c0 78.667 -21.499 144.166 -64.499 196.499s-100.167 78.5 -171.5 78.5
c-69.333 0 -127.333 -29.667 -174 -89s-70 -134 -70 -224v-826c25.333 -45.333 62 -81.666 110 -108.999s102.333 -41 163 -41c87.333 0 155.166 28.5 203.499 85.5s72.5 134.5 72.5 232.5c0 96 -23.833 173 -71.5 231s-111.5 87.333 -191.5 88h-123v105h72
c163.333 0 245 90.667 245 272z" />
    <glyph glyph-name="gamma" unicode="&#x3b3;" horiz-adv-x="886" 
d="M719 1082h114l-332 -1048v-449h-111v452l-333 1045h115l261 -843l14 -70l15 71z" />
    <glyph glyph-name="delta" unicode="&#x3b4;" horiz-adv-x="1001" 
d="M204 1288c0 80.667 27.834 146.667 83.501 198s130.5 77 224.5 77c88.667 0 169 -22 241 -66l-7 -105c-76.667 43.333 -155 65 -235 65c-58.667 0 -106 -15 -142 -45s-54 -70.333 -54 -121c0 -49.333 17.667 -91.333 53 -126s91.666 -65 168.999 -91
s143.333 -64.5 198 -115.5s96.334 -112.5 125.001 -184.5s43 -152.333 43 -241v-29c0 -157.333 -37.333 -284 -112 -380s-171.334 -144 -290.001 -144c-120 0 -217.333 48.167 -292 144.5s-112 224.833 -112 385.5v26c0 121.333 28.5 226.5 85.5 315.5
s126.167 142.167 207.5 159.5l-1 8c-64.667 30.667 -111.667 69.667 -141 117s-44 98 -44 152zM209.001 504c0 -126 26.833 -227.668 80.5 -305.001s124.167 -116 211.5 -116s157.5 38.833 210.5 116.5s79.5 182.167 79.5 313.5v23c0 100 -26.833 190.167 -80.5 270.5
s-120.5 128.833 -200.5 145.5c-89.333 0 -161.833 -39.167 -217.5 -117.5s-83.5 -181.166 -83.5 -308.499v-22z" />
    <glyph glyph-name="epsilon" unicode="&#x3b5;" horiz-adv-x="973" 
d="M108 297c0 131.333 62.667 217.333 188 258c-54.667 23.333 -97 56 -127 98s-45 89 -45 141c0 96 31.667 171.167 95 225.5s151 81.5 263 81.5c104 0 190.5 -29.333 259.5 -88s103.5 -133.334 103.5 -224.001h-110c0 61.333 -24.667 111.5 -74 150.5s-109 58.5 -179 58.5
c-76 0 -136 -18.167 -180 -54.5s-66 -85.833 -66 -148.5c0 -128 83 -192 249 -192h151v-102h-158c-84 0 -147.833 -16.333 -191.5 -49s-65.5 -85 -65.5 -157c0 -62.667 23 -113.667 69 -153s110 -59 192 -59c76.667 0 140.334 21.333 191.001 64s76 97 76 163h111
c0 -99.333 -35.333 -179.166 -106 -239.499s-161.334 -90.5 -272.001 -90.5c-113.333 0 -204 29 -272 87s-102 134.667 -102 230z" />
    <glyph glyph-name="zeta" unicode="&#x3b6;" horiz-adv-x="894" 
d="M803 1456l0.00195312 -79.998l-327 -504c-72 -106.667 -122.167 -198.334 -150.5 -275.001s-42.5 -154.334 -42.5 -233.001c0 -64 14.833 -114.5 44.5 -151.5s84 -68.333 163 -94s130.5 -43.167 154.5 -52.5c49.333 -18.667 83.666 -41.667 102.999 -69
s29 -63.333 29 -108c0 -46.667 -14 -97 -42 -151s-61.333 -95.667 -100 -125l-62 58c64.667 61.333 97 129.333 97 204c0 30 -11 53.833 -33 71.5s-69.833 37.667 -143.5 60s-129 43.833 -166 64.5s-66.833 44.5 -89.5 71.5s-39.334 58.333 -50.001 94s-16 77.167 -16 124.5
c0 167.333 73 358 219 572l285 419h-589v104h716z" />
    <glyph glyph-name="eta" unicode="&#x3b7;" horiz-adv-x="1001" 
d="M253 1082l6 -163c64 122 159.333 183 286 183c102.667 0 178.334 -32.833 227.001 -98.5s74 -166.167 76 -301.5v-1117h-111v1108c-0.666992 104.667 -18.334 181.667 -53.001 231s-90 74 -166 74c-62.667 0 -116 -20 -160 -60s-76 -99.667 -96 -179v-759h-112v1082h103z
" />
    <glyph glyph-name="theta" unicode="&#x3b8;" horiz-adv-x="1024" 
d="M890 617c0 -205.333 -32.999 -362.835 -98.999 -472.502s-159 -164.5 -279 -164.5c-118.667 0 -211 54.333 -277 163s-100 261 -102 457v243c0 202.667 33 358.834 99 468.501s159 164.5 279 164.5c121.333 0 214.666 -54.667 279.999 -164s98.333 -263.666 99 -462.999
v-232zM245.001 774.998l532.999 0.000976562v84c0 163.333 -23.167 289.666 -69.5 378.999s-112.166 134 -197.499 134c-86 0 -151.833 -45 -197.5 -135s-68.5 -217 -68.5 -381v-81zM778 670.999h-533.001v-68c0 -163.333 23.333 -290.833 70 -382.5
s112.334 -137.5 197.001 -137.5c85.333 0 151 45.5 197 136.5s69 219.833 69 386.5v65z" />
    <glyph glyph-name="iota" unicode="&#x3b9;" horiz-adv-x="564" 
d="M286 1082v-810c0 -58.667 8.83301 -102.5 26.5 -131.5s47.167 -43.5 88.5 -43.5c18 0 44.667 3.33301 80 10l3 -102c-30 -10 -66.667 -15 -110 -15c-128.667 0 -195 87.667 -199 263v829h111z" />
    <glyph glyph-name="kappa" unicode="&#x3ba;" horiz-adv-x="978" 
d="M377 494h-110v-494h-112v1082h112v-479h105l365 479h135l-401 -526l441 -556h-141z" />
    <glyph glyph-name="lambda" unicode="&#x3bb;" horiz-adv-x="988" 
d="M233 1518c86.667 0 149.669 -51.332 189.002 -153.999l21 -62l341 -1067c14 -46 28.5 -80.5 43.5 -103.5s35.5 -34.5 61.5 -34.5c14.667 0 26.667 1.33301 36 4l6 -101c-13.333 -7.33301 -33 -11 -59 -11c-46.667 0 -84.834 15.333 -114.501 46s-56.834 85 -81.501 163
l-215 677l-278 -875h-124l347 1047l-70 211c-18 61.333 -36.5 102.666 -55.5 123.999s-42.5 32 -70.5 32l-40 -4l-3 97c14.667 7.33301 36.667 11 66 11z" />
    <glyph glyph-name="mu" unicode="&#x3bc;" horiz-adv-x="1001" 
d="M265 1082l-0.000976562 -655.001c2 -112 19.833 -197.333 53.5 -256s87.167 -88 160.5 -88c68 0 123.167 17.333 165.5 52s72.5 89.334 90.5 164.001v783h112v-1082h-101l-7 145c-53.333 -110 -137.666 -165 -252.999 -165c-99.333 0 -173 40.333 -221 121v-517h-110
v1498h110z" />
    <glyph glyph-name="nu" unicode="&#x3bd;" horiz-adv-x="869" 
d="M435 174l266 908h114l-337 -1082h-88l-339 1082h114z" />
    <glyph glyph-name="xi" unicode="&#x3be;" horiz-adv-x="884" 
d="M774 1331c-69.333 27.333 -137.995 41 -205.995 41c-88.667 0 -157.334 -20.833 -206.001 -62.5s-73 -97.5 -73 -167.5c0 -158.667 101.667 -238 305 -238h106v-105h-109c-118 0 -208 -30.5 -270 -91.5s-93 -148.833 -93 -263.5c0 -90.667 24.167 -164.834 72.5 -222.501
s122.666 -101.167 222.999 -130.5s163.166 -51 188.499 -65c56.667 -31.333 85 -81.666 85 -150.999c0 -44.667 -13.833 -91.334 -41.5 -140.001s-60.167 -87.667 -97.5 -117l-65 60l30 32c45.333 49.333 68 101 68 155c0 26.667 -10.167 48 -30.5 64
s-64.833 34.333 -133.5 55s-123.334 40.334 -164.001 59.001c-84.667 38.667 -146.834 90.834 -186.501 156.501s-59.5 148.5 -59.5 248.5c0 100.667 24 185.667 72 255s116 118.666 204 147.999c-68 25.333 -121 63.5 -159 114.5s-57 108.5 -57 172.5
c0 104.667 34.333 187.167 103 247.5s164.667 90.5 288 90.5c82 0 156 -14.667 222 -44z" />
    <glyph glyph-name="omicron" unicode="&#x3bf;" horiz-adv-x="1005" 
d="M106 596c0 156 35.335 279.334 106.002 370.001s167 136 289 136c122.667 0 219.167 -44.667 289.5 -134s105.833 -212.333 106.5 -369v-115c0 -158.667 -35.5 -282.334 -106.5 -371.001s-166.833 -133 -287.5 -133s-216.334 43.333 -287.001 130
s-107.334 206 -110.001 358v128zM218.002 484.001c0 -124.667 25.1699 -222.668 75.5029 -294.001s120.166 -107 209.499 -107c91.333 0 161.166 34.333 209.499 103s72.833 167 73.5 295v115c0 124.667 -25.333 222.834 -76 294.501s-120.334 107.5 -209.001 107.5
c-86 0 -154.333 -35 -205 -105s-76.667 -166.333 -78 -289v-120z" />
    <glyph glyph-name="pi" unicode="&#x3c0;" horiz-adv-x="1064" 
d="M972 977l-149.999 -0.000976562v-704c0 -61.333 8.83301 -106 26.5 -134s47.167 -42 88.5 -42c17.333 0 43.666 3.33301 78.999 10l4 -102c-30 -10 -66.667 -15 -110 -15c-68.667 0 -119 23.333 -151 70s-48.333 115.334 -49 206.001v711h-387v-977h-111v977h-151v105
h911v-105z" />
    <glyph glyph-name="rho" unicode="&#x3c1;" horiz-adv-x="1001" 
d="M517 1102c116 0 206.667 -50.833 272 -152.5s98 -248.167 98 -439.5c0 -161.333 -30.5 -290 -91.5 -386s-145.833 -144 -254.5 -144c-122.667 0 -215.667 47.667 -279 143v-539h-112v1034c2 147.333 36.667 264.833 104 352.5s155 131.5 263 131.5zM262 262
c24 -58.667 57.668 -103.167 101.001 -133.5s93.666 -45.5 150.999 -45.5c82.667 0 147 37.167 193 111.5s69 186.5 69 336.5c0 145.333 -22.667 259.5 -68 342.5s-109 124.5 -191 124.5c-76.667 0 -138 -37 -184 -111s-69.333 -173.333 -70 -298z" />
    <glyph glyph-name="sigma1" unicode="&#x3c2;" horiz-adv-x="961" 
d="M501 1102c102.667 0 185.499 -34.834 248.499 -104.501s94.5 -164.167 94.5 -283.5h-105c0 88 -21.5 157.333 -64.5 208s-100.833 76 -173.5 76c-85.333 0 -152.833 -40 -202.5 -120s-74.5 -188.667 -74.5 -326v-32c0 -219.333 109.667 -361.666 329 -426.999
c86 -25.333 142.333 -53.666 169 -84.999s40 -74.333 40 -129c0 -38.667 -14 -84.5 -42 -137.5s-59 -92.167 -93 -117.5l-60 59c58.667 58.667 88 120 88 184c0 34.667 -9.16699 60.667 -27.5 78s-54.833 33 -109.5 47c-271.333 69.333 -407 246 -407 530v40
c0 159.333 35.833 289.166 107.5 389.499s165.834 150.5 282.501 150.5z" />
    <glyph glyph-name="sigma" unicode="&#x3c3;" horiz-adv-x="999" 
d="M973 977l-260 0.000976562c126.667 -93.333 190 -244.333 190 -453v-19c0 -152 -37.5 -277.5 -112.5 -376.5s-171.5 -148.5 -289.5 -148.5c-121.333 0 -219 50.167 -293 150.5s-111 234.166 -111 401.499v24c0 156 37.167 282.667 111.5 380s172.5 146 294.5 146h470
v-105zM208 524.001c0 -130 26.6689 -236 80.002 -318s124.333 -123 213 -123c87.333 0 157.666 41 210.999 123s80 190.333 80 325v25c0 124.667 -27 226 -81 304s-124.667 117 -212 117c-86.667 0 -156.834 -39.167 -210.501 -117.5s-80.5 -182.5 -80.5 -312.5v-23z" />
    <glyph glyph-name="tau" unicode="&#x3c4;" horiz-adv-x="923" 
d="M836 978h-333v-704c0 -62.667 9.16699 -109.667 27.5 -141s47.833 -47 88.5 -47c24.667 0 51.667 5.66699 81 17l25 -91c-34 -21.333 -77.333 -32 -130 -32c-70.667 0 -122 23.833 -154 71.5s-48.667 119.5 -50 215.5v711h-306v104h751v-104z" />
    <glyph glyph-name="upsilon" unicode="&#x3c5;" horiz-adv-x="963" 
d="M259 1082v-664.999c0 -222.667 65.667 -334 197 -334c82.667 0 149.334 43.5 200.001 130.5s76 196.167 76 327.5c-2.66699 177.333 -35.667 357.666 -99 540.999h119c60 -163.333 90 -343 90 -539c0 -171.333 -34 -308 -102 -410s-161.333 -153 -280 -153
c-102.667 0 -180.334 36.167 -233.001 108.5s-79 178.833 -79 319.5v674h111z" />
    <glyph glyph-name="phi" unicode="&#x3c6;" horiz-adv-x="1226" 
d="M552 -18c-140.667 10.667 -249.334 65.167 -326.001 163.5s-115 234.833 -115 409.5c0 114 18.833 216.667 56.5 308s91.5 164.333 161.5 219l59 -89c-49.333 -43.333 -89 -103.5 -119 -180.5s-45.667 -163.167 -47 -258.5c0 -136.667 28.833 -246 86.5 -328
s138.834 -129 243.501 -141v787c0 64 17 115 51 153s78.667 57 134 57c70 0 134.333 -23.5 193 -70.5s104.5 -111.5 137.5 -193.5s49.5 -173 49.5 -273c0 -162 -40.333 -293.5 -121 -394.5s-191.667 -157.5 -333 -169.5v-459h-111v460zM663 85
c105.333 11.333 188.831 58.833 250.498 142.5s92.5 189.167 92.5 316.5c-1.33301 123.333 -27.166 226.333 -77.499 309s-114.166 124 -191.499 124c-22 0 -39.833 -9.33301 -53.5 -28s-20.5 -42.667 -20.5 -72v-792z" />
    <glyph glyph-name="chi" unicode="&#x3c7;" horiz-adv-x="880" 
d="M137 1093c85.333 0 152.001 -58.334 200.001 -175.001l29 -72l126 -340l250 576h115l-311 -721l205 -549c34 -85.333 69.667 -128 107 -128c30.667 0 54 2 70 6l-21 -105c-14.667 -8 -33.334 -12 -56.001 -12c-46.667 0 -85.667 17.333 -117 52s-67 106.334 -107 215.001
l-141 382l-275 -636h-117l338 782l-160 436l-27 68c-31.333 76 -73 114 -125 114l-58 -6l-3 101c19.333 8 45.333 12 78 12z" />
    <glyph glyph-name="psi" unicode="&#x3c8;" horiz-adv-x="1221" 
d="M658 1082l0.000976562 -996.002c109.333 11.333 194 59.833 254 145.5s90 200.834 90 345.501c-2 161.333 -40.333 329.666 -115 504.999h120l32 -81c49.333 -132.667 74 -273.667 74 -423c0 -183.333 -39.333 -326.166 -118 -428.499s-191 -158.166 -337 -167.499v-426
h-110v427c-140 12.667 -246.333 69.5 -319 170.5s-110 242.5 -112 424.5v504h112v-498c0.666992 -149.333 28.167 -266.333 82.5 -351s133.166 -133.667 236.499 -147v996h110z" />
    <glyph glyph-name="omega" unicode="&#x3c9;" horiz-adv-x="1458" 
d="M367 1082c-80 -188 -121.334 -371.669 -124.001 -551.002c0 -138.667 19.333 -248 58 -328s91.667 -120 159 -120c68 0 120.167 33.167 156.5 99.5s54.833 161.5 55.5 285.5v302h112v-302c0.666992 -124 19.167 -219.167 55.5 -285.5s88.833 -99.5 157.5 -99.5
c66.667 0 119.5 39.5 158.5 118.5s58.5 188.833 58.5 329.5c-2 178 -43.667 361.667 -125 551h121c42.667 -101.333 72.334 -195.166 89.001 -281.499s25 -175.833 25 -268.5c0 -173.333 -28.5 -308.666 -85.5 -405.999s-135.833 -146 -236.5 -146
c-138 0 -229.333 83 -274 249c-44.667 -166 -136 -249 -274 -249c-101.333 0 -180.166 49 -236.499 147s-84.5 233 -84.5 405c0 98.667 8.66699 191.5 26 278.5s46.666 177.5 87.999 271.5h120z" />
    <glyph glyph-name="iotadieresis" unicode="&#x3ca;" horiz-adv-x="564" 
d="M286 1082v-810c0 -58.667 8.83301 -102.5 26.5 -131.5s47.167 -43.5 88.5 -43.5c18 0 44.667 3.33301 80 10l3 -102c-30 -10 -66.667 -15 -110 -15c-128.667 0 -195 87.667 -199 263v829h111zM-64 1374c0 23.333 7.33301 42.833 22 58.5s34.667 23.5 60 23.5
s45.5 -7.83301 60.5 -23.5s22.5 -35.167 22.5 -58.5c0 -22.667 -7.5 -41.667 -22.5 -57s-35.167 -23 -60.5 -23s-45.333 7.66699 -60 23s-22 34.333 -22 57zM374 1373c0 23.333 7.33301 42.833 22 58.5s34.667 23.5 60 23.5s45.5 -7.83301 60.5 -23.5
s22.5 -35.167 22.5 -58.5c0 -22.667 -7.5 -41.667 -22.5 -57s-35.167 -23 -60.5 -23s-45.333 7.66699 -60 23s-22 34.333 -22 57z" />
    <glyph glyph-name="upsilondieresis" unicode="&#x3cb;" horiz-adv-x="963" 
d="M259 1082v-664.999c0 -222.667 65.667 -334 197 -334c82.667 0 149.334 43.5 200.001 130.5s76 196.167 76 327.5c-2.66699 177.333 -35.667 357.666 -99 540.999h119c60 -163.333 90 -343 90 -539c0 -171.333 -34 -308 -102 -410s-161.333 -153 -280 -153
c-102.667 0 -180.334 36.167 -233.001 108.5s-79 178.833 -79 319.5v674h111zM167 1374c0 23.333 7.33301 42.833 22 58.5s34.667 23.5 60 23.5s45.5 -7.83301 60.5 -23.5s22.5 -35.167 22.5 -58.5c0 -22.667 -7.5 -41.667 -22.5 -57s-35.167 -23 -60.5 -23
s-45.333 7.66699 -60 23s-22 34.333 -22 57zM605 1373c0 23.333 7.33301 42.833 22 58.5s34.667 23.5 60 23.5s45.5 -7.83301 60.5 -23.5s22.5 -35.167 22.5 -58.5c0 -22.667 -7.5 -41.667 -22.5 -57s-35.167 -23 -60.5 -23s-45.333 7.66699 -60 23s-22 34.333 -22 57z" />
    <glyph glyph-name="omicrontonos" unicode="&#x3cc;" horiz-adv-x="1005" 
d="M106 596c0 156 35.335 279.334 106.002 370.001s167 136 289 136c122.667 0 219.167 -44.667 289.5 -134s105.833 -212.333 106.5 -369v-115c0 -158.667 -35.5 -282.334 -106.5 -371.001s-166.833 -133 -287.5 -133s-216.334 43.333 -287.001 130
s-107.334 206 -110.001 358v128zM218.002 484.001c0 -124.667 25.1699 -222.668 75.5029 -294.001s120.166 -107 209.499 -107c91.333 0 161.166 34.333 209.499 103s72.833 167 73.5 295v115c0 124.667 -25.333 222.834 -76 294.501s-120.334 107.5 -209.001 107.5
c-86 0 -154.333 -35 -205 -105s-76.667 -166.333 -78 -289v-120zM520.005 1546h118l-109 -305h-83z" />
    <glyph glyph-name="upsilontonos" unicode="&#x3cd;" horiz-adv-x="963" 
d="M259 1082v-664.999c0 -222.667 65.667 -334 197 -334c82.667 0 149.334 43.5 200.001 130.5s76 196.167 76 327.5c-2.66699 177.333 -35.667 357.666 -99 540.999h119c60 -163.333 90 -343 90 -539c0 -171.333 -34 -308 -102 -410s-161.333 -153 -280 -153
c-102.667 0 -180.334 36.167 -233.001 108.5s-79 178.833 -79 319.5v674h111zM486 1525h118l-109 -305h-83z" />
    <glyph glyph-name="omegatonos" unicode="&#x3ce;" horiz-adv-x="1458" 
d="M367 1082c-80 -188 -121.334 -371.669 -124.001 -551.002c0 -138.667 19.333 -248 58 -328s91.667 -120 159 -120c68 0 120.167 33.167 156.5 99.5s54.833 161.5 55.5 285.5v302h112v-302c0.666992 -124 19.167 -219.167 55.5 -285.5s88.833 -99.5 157.5 -99.5
c66.667 0 119.5 39.5 158.5 118.5s58.5 188.833 58.5 329.5c-2 178 -43.667 361.667 -125 551h121c42.667 -101.333 72.334 -195.166 89.001 -281.499s25 -175.833 25 -268.5c0 -173.333 -28.5 -308.666 -85.5 -405.999s-135.833 -146 -236.5 -146
c-138 0 -229.333 83 -274 249c-44.667 -166 -136 -249 -274 -249c-101.333 0 -180.166 49 -236.499 147s-84.5 233 -84.5 405c0 98.667 8.66699 191.5 26 278.5s46.666 177.5 87.999 271.5h120zM758.999 1523h118l-109 -305h-83z" />
    <glyph glyph-name="theta1" unicode="&#x3d1;" horiz-adv-x="1029" 
d="M979 673c-42 -18.667 -86.9971 -30.0029 -134.997 -34.0029v-224c-2 -141.333 -33.333 -249.166 -94 -323.499s-147 -111.5 -259 -111.5c-110.667 0 -198.334 39.833 -263.001 119.5s-97.334 188.167 -98.001 325.5v332l111 2v-341
c1.33301 -110.667 24.5 -193.667 69.5 -249s105.167 -83 180.5 -83c80.667 0 140.834 27 180.501 81s60.167 136.667 61.5 248v226c-129.333 15.333 -231.833 67.5 -307.5 156.5s-113.5 203.5 -113.5 343.5v13c0 100.667 24.167 181.334 72.5 242.001s110.166 91 185.499 91
c87.333 0 154.833 -35 202.5 -105s71.5 -167.667 71.5 -293v-344c43.333 4.66699 85.666 14.334 126.999 29.001zM424.003 1133c0 -104.667 26.8311 -191.167 80.498 -259.5s129.834 -109.833 228.501 -124.5v360c-3.33301 180.667 -57.666 271 -162.999 271
c-45.333 0 -81 -19.667 -107 -59s-39 -102 -39 -188z" />
    <glyph glyph-name="Upsilon1" unicode="&#x3d2;" horiz-adv-x="961" 
d="M890 1467c35.333 0 67.666 -9 96.999 -27l-26 -97c-11.333 9.33301 -29.333 14 -54 14c-28.667 0 -52.5 -11.167 -71.5 -33.5s-37.167 -57.833 -54.5 -106.5l-239 -622v-595h-115v600l-244 630c-18 45.333 -36 77.833 -54 97.5s-40.333 29.5 -67 29.5
c-26 0 -44.667 -4.66699 -56 -14l-24 96c28.667 18.667 60.667 28 96 28c48 0 87.833 -15.5 119.5 -46.5s60.834 -81.5 87.501 -151.5l186 -495l13 -57l16 61l188 498c27.333 68.667 56 117.667 86 147s68.667 44 116 44z" />
    <glyph glyph-name="omega1" unicode="&#x3d6;" horiz-adv-x="1392" 
d="M1340 977l-138 -0.00195312c48.667 -136.667 73 -285 73 -445c0 -169.333 -26.667 -303.666 -80 -402.999s-128 -149 -224 -149c-137.333 0 -228.333 82.667 -273 248c-44.667 -165.333 -135.667 -248 -273 -248c-94.667 0 -169 48.833 -223 146.5
s-81 232.834 -81 405.501c0 160 24.333 308.333 73 445h-124v105h1270v-105zM1164 530.998c-2.66699 144 -30.6689 292.668 -84.002 446.001h-765c-54 -154.667 -81.667 -303.334 -83 -446.001c0 -138.667 17.5 -248 52.5 -328s83.5 -120 145.5 -120
c69.333 0 121.833 33.5 157.5 100.5s53.834 161.833 54.501 284.5v278h112v-278c0.666992 -122.667 18.834 -217.5 54.501 -284.5s88.5 -100.5 158.5 -100.5c60.667 0 108.667 39.667 144 119s53 189 53 329z" />
    </font>
</defs>
</svg>
